<?xml version="1.0" standalone="no"?>
<!DOCTYPE svg PUBLIC "-//W3C//DTD SVG 1.1//EN" "http://www.w3.org/Graphics/SVG/1.1/DTD/svg11.dtd" >
<svg xmlns="http://www.w3.org/2000/svg" xmlns:xlink="http://www.w3.org/1999/xlink" version="1.1">
<metadata>
Created by FontForge 20170731 at Tue May 25 23:16:23 2021
 By Aleksey,,,
(c) 2020 Microsoft Corporation. All Rights Reserved.
</metadata>
<defs>
<font id="CascadiaCodePL-Regular" horiz-adv-x="1200" >
  <font-face 
    font-family="Cascadia Code PL"
    font-weight="400"
    font-stretch="normal"
    units-per-em="2048"
    panose-1="0 0 0 0 0 0 0 0 0 0"
    ascent="1638"
    descent="-410"
    x-height="1060"
    cap-height="1420"
    bbox="-115 -891 4520 2309"
    underline-thickness="100"
    underline-position="-200"
    unicode-range="U+000D-FB02"
  />
<missing-glyph 
d="M128 0v1420h944v-1420h-944zM860 190v1040h-520v-1040h520z" />
    <glyph glyph-name=".notdef" 
d="M128 0v1420h944v-1420h-944zM860 190v1040h-520v-1040h520z" />
    <glyph glyph-name=".null" horiz-adv-x="0" 
 />
    <glyph glyph-name="nonmarkingreturn" horiz-adv-x="682" 
 />
    <glyph glyph-name="CR" unicode="&#xd;" 
 />
    <glyph glyph-name="space" unicode=" " 
 />
    <glyph glyph-name="exclam" unicode="!" 
d="M502 456l-6 974h208l-10 -974h-192zM600 -20q-62 0 -105 43t-43 105t43 105t105 43t105 -43t43 -105t-43 -105t-105 -43z" />
    <glyph glyph-name="quotedbl" unicode="&#x22;" 
d="M304 780l-20 640h232l-20 -640h-192zM708 780l-20 640h232l-20 -640h-192z" />
    <glyph glyph-name="numbersign" unicode="#" 
d="M670 0l30 360h-260l-30 -360h-176l30 360h-164v170h179l30 360h-209v170h224l30 360h176l-30 -360h260l30 360h176l-30 -360h164v-170h-179l-30 -360h209v-170h-224l-30 -360h-176zM455 530h260l30 360h-260z" />
    <glyph glyph-name="dollar" unicode="$" 
d="M544 -320v300q-238 1 -415 78l26 202q209 -90 389 -96v461l-77 35q-150 68 -225 162t-75 228q0 174 98 274.5t279 113.5v302h138v-304q110 -10 201 -52.5t178 -122.5l-140 -142q-126 103 -239 128v-450l53 -25q165 -78 243.5 -172t78.5 -234q0 -333 -375 -379v-307h-138z
M544 862v390q-79 -12 -121 -61t-42 -131q0 -67 35.5 -111t110.5 -79zM682 175q161 34 161 187q0 127 -130 186l-31 14v-387z" />
    <glyph glyph-name="percent" unicode="%" 
d="M368 794q-142 0 -228 88t-86 234q0 147 86 235.5t228 88.5t227 -87.5t85 -236.5q0 -146 -85.5 -234t-226.5 -88zM854 -20q-142 0 -228 88t-86 234q0 147 86 235.5t228 88.5q141 0 226.5 -88.5t85.5 -235.5q0 -146 -85.5 -234t-226.5 -88zM186 306l-92 136l930 664
l92 -130zM368 957q59 0 95 44t36 115q0 74 -36 118.5t-95 44.5q-61 0 -97 -44.5t-36 -118.5q0 -72 36.5 -115.5t96.5 -43.5zM854 143q59 0 95 44t36 115q0 73 -36 117t-95 44q-61 0 -97 -44t-36 -117q0 -72 36.5 -115.5t96.5 -43.5z" />
    <glyph glyph-name="ampersand" unicode="&#x26;" 
d="M962 0l-104 114q-155 -134 -396 -134q-183 0 -294.5 99.5t-111.5 264.5q0 134 70 229t200 139q-124 175 -124 330q0 190 106.5 294t301.5 104q181 0 280.5 -83.5t99.5 -234.5h-214q0 64 -42.5 99t-119.5 35q-92 0 -142 -56.5t-50 -159.5q0 -70 36 -139.5t108 -150.5
l282 -321q52 139 52 337h192q0 -300 -107 -494l239 -272h-262zM732 252l-286 314q-6 6 -14 16q-84 -36 -129 -94.5t-45 -133.5q0 -86 62.5 -138t165.5 -52q147 0 246 88z" />
    <glyph glyph-name="quotesingle" unicode="'" 
d="M504 780l-20 640h232l-20 -640h-192z" />
    <glyph glyph-name="parenleft" unicode="(" 
d="M950 -200q-326 0 -505 239.5t-179 676.5q0 431 179 667.5t505 236.5h48v-180h-28q-236 0 -365 -189.5t-129 -534.5q0 -351 128.5 -543.5t365.5 -192.5h28v-180h-48z" />
    <glyph glyph-name="parenright" unicode=")" 
d="M202 -200v180h28q237 0 365.5 192.5t128.5 543.5q0 345 -129 534.5t-365 189.5h-28v180h48q326 0 505 -236.5t179 -667.5q0 -437 -179 -676.5t-505 -239.5h-48z" />
    <glyph glyph-name="asterisk" unicode="*" 
d="M826 258l-226 313l-226 -313l-166 140l253 260l-349 100l74 204l332 -148l-26 362h216l-26 -362l332 148l74 -204l-349 -100l253 -260z" />
    <glyph glyph-name="plus" unicode="+" 
d="M504 190v427h-404v186h404v425h192v-425h404v-186h-404v-427h-192z" />
    <glyph glyph-name="comma" unicode="," 
d="M412 -436l80 690h232l-120 -690h-192z" />
    <glyph glyph-name="hyphen" unicode="-" 
d="M100 616v186h1000v-186h-1000z" />
    <glyph glyph-name="period" unicode="." 
d="M600 -20q-62 0 -105 43t-43 105t43 105t105 43t105 -43t43 -105t-43 -105t-105 -43z" />
    <glyph glyph-name="slash" unicode="/" 
d="M114 -190l804 1800h212l-804 -1800h-212z" />
    <glyph glyph-name="zero" unicode="0" 
d="M600 -20q-484 0 -484 720q0 740 484 740t484 -740q0 -720 -484 -720zM600 164q270 0 270 536q0 556 -270 556t-270 -556q0 -536 270 -536zM600 550q-68 0 -109 41t-41 109t41 109t109 41t109 -41t41 -109t-41 -109t-109 -41z" />
    <glyph glyph-name="one" unicode="1" 
d="M170 0v190h360v1024l-340 -116v202l340 120h200v-1230h322v-190h-882z" />
    <glyph glyph-name="two" unicode="2" 
d="M152 0v224q654 362 654 788q0 244 -242 244q-81 0 -169 -47t-151 -125l-138 137q69 99 195.5 159t266.5 60q448 0 448 -428q0 -434 -552 -796v-30h612v-186h-924z" />
    <glyph glyph-name="three" unicode="3" 
d="M514 -20q-208 0 -364 48l25 191q5 -2 30 -9t34.5 -9.5t34 -9t39.5 -9t40.5 -7t47 -6.5t49.5 -3.5t56 -1.5q156 0 242 62t86 174q0 120 -110 185t-312 65h-32l-24 130q448 60 448 292q0 87 -56.5 135.5t-161.5 48.5q-79 0 -164 -39t-159 -113l-138 137q176 199 483 199
q195 0 300.5 -82.5t105.5 -235.5q0 -127 -81 -221.5t-215 -130.5v-21q150 -26 238 -122.5t88 -246.5q0 -191 -138.5 -295.5t-391.5 -104.5z" />
    <glyph glyph-name="four" unicode="4" 
d="M74 318l200 1022h206l-165 -836h469v916h202v-916h134v-186h-134v-318h-202v318h-710z" />
    <glyph glyph-name="five" unicode="5" 
d="M614 -20q-230 0 -356 109t-126 309h214q0 -111 70.5 -172.5t199.5 -61.5q128 0 198 77t70 217q0 137 -76.5 212.5t-215.5 75.5q-140 0 -262 -66h-112l20 740h766v-186h-566l-11 -347q101 39 235 39q206 0 319 -122.5t113 -345.5q0 -228 -125.5 -353t-354.5 -125z" />
    <glyph glyph-name="six" unicode="6" 
d="M608 -20q-247 0 -363.5 123t-116.5 383v88q0 407 207 619t629 233l20 -190q-319 -13 -476 -154.5t-158 -413.5h18q30 110 119 171t219 61q186 0 287 -115t101 -325q0 -226 -128.5 -353t-357.5 -127zM615 164q127 0 198 78.5t71 217.5q0 123 -65.5 189.5t-187.5 66.5
q-139 0 -214 -72t-75 -204q0 -130 72 -203t201 -73z" />
    <glyph glyph-name="seven" unicode="7" 
d="M447 0l423 1230h-552v-308h-206v498h1042l-488 -1420h-219z" />
    <glyph glyph-name="eight" unicode="8" 
d="M600 -20q-231 0 -357.5 107.5t-126.5 302.5q0 143 82.5 235t235.5 123v15q-135 30 -206.5 111.5t-71.5 205.5q0 171 116.5 265.5t327.5 94.5t327.5 -94.5t116.5 -265.5q0 -123 -71.5 -204.5t-204.5 -112.5v-15q153 -32 234.5 -123.5t81.5 -234.5q0 -195 -126.5 -302.5
t-357.5 -107.5zM600 164q131 0 202.5 61.5t71.5 174.5q0 120 -71.5 187t-202.5 67t-202.5 -67t-71.5 -187q0 -113 71.5 -174.5t202.5 -61.5zM600 846q111 0 172.5 51t61.5 143q0 103 -61 159.5t-173 56.5t-173 -56.5t-61 -159.5q0 -92 61.5 -143t172.5 -51z" />
    <glyph glyph-name="nine" unicode="9" 
d="M504 506q-186 0 -287 115t-101 325q0 226 128.5 353t357.5 127q247 0 363.5 -123t116.5 -383v-88q0 -407 -207 -619t-629 -233l-20 190q319 13 476 154.5t158 413.5h-18q-30 -110 -119 -171t-219 -61zM579 690q139 0 214 72t75 204q0 130 -72 203t-201 73
q-127 0 -198 -78.5t-71 -217.5q0 -123 65.5 -189.5t187.5 -66.5z" />
    <glyph glyph-name="colon" unicode=":" 
d="M600 -20q-62 0 -105 43t-43 105t43 105t105 43t105 -43t43 -105t-43 -105t-105 -43zM600 784q-62 0 -105 43t-43 105t43 105t105 43t105 -43t43 -105t-43 -105t-105 -43z" />
    <glyph glyph-name="semicolon" unicode=";" 
d="M412 -436l80 690h232l-120 -690h-192zM600 784q-62 0 -105 43t-43 105t43 105t105 43t105 -43t43 -105t-43 -105t-105 -43z" />
    <glyph glyph-name="less" unicode="&#x3c;" 
d="M1054 214l-958 394v202l958 394v-220l-740 -266v-18l740 -266v-220z" />
    <glyph glyph-name="equal" unicode="=" 
d="M100 366v186h1000v-186h-1000zM100 866v186h1000v-186h-1000z" />
    <glyph glyph-name="greater" unicode="&#x3e;" 
d="M146 214v220l700 266v18l-700 266v220l958 -394v-202z" />
    <glyph glyph-name="question" unicode="?" 
d="M460 456v96q0 198 164 302q162 100 162 238q0 75 -50.5 116.5t-141.5 41.5q-93 0 -184.5 -46.5t-155.5 -125.5l-138 143q70 100 200 159.5t280 59.5q195 0 302.5 -88.5t107.5 -249.5q0 -222 -222 -364q-128 -83 -128 -200v-82h-196zM562 -20q-62 0 -105 43t-43 105
t43 105t105 43t105 -43t43 -105t-43 -105t-105 -43z" />
    <glyph glyph-name="at" unicode="@" 
d="M710 -243q-317 0 -459.5 199.5t-142.5 641.5q0 841 512 841q452 0 452 -546v-725h-172v212h-12q-18 -111 -73.5 -171.5t-138.5 -60.5q-133 0 -206.5 123.5t-73.5 347.5q0 234 72.5 352t209.5 118q77 0 132.5 -61t77.5 -171h12v30q0 382 -280 382q-344 0 -344 -671
q0 -348 103 -504.5t331 -156.5q125 0 197 25v-180q-79 -25 -197 -25zM734 338q79 0 122.5 60.5t43.5 171.5q0 329 -152 329q-172 0 -172 -280q0 -134 41.5 -207.5t116.5 -73.5z" />
    <glyph glyph-name="A" unicode="A" 
d="M45 0l410 1420h290l410 -1420h-210l-93 346h-504l-93 -346h-210zM399 536h402l-192 712h-18z" />
    <glyph glyph-name="B" unicode="B" 
d="M160 0v1420h422q216 0 334 -94t118 -266q0 -129 -88 -207t-252 -95v-12q211 -3 325.5 -96t114.5 -260q0 -186 -112.5 -288t-317.5 -102h-544zM360 190h286q132 0 205 60.5t73 169.5q0 112 -76.5 173.5t-215.5 61.5h-272v-465zM360 845h226q114 0 176 50.5t62 144.5
q0 91 -65.5 140.5t-186.5 49.5h-212v-385z" />
    <glyph glyph-name="C" unicode="C" 
d="M748 -20q-662 0 -662 732q0 347 167 537.5t471 190.5q147 0 256 -47t159 -132l-148 -147q-45 68 -114.5 105t-150.5 37q-196 0 -311 -140.5t-115 -393.5q0 -558 482 -558q145 0 286 60l46 -176q-174 -68 -366 -68z" />
    <glyph glyph-name="D" unicode="D" 
d="M140 0v1420h344q650 0 650 -730q0 -690 -650 -690h-344zM340 190h144q440 0 440 500q0 540 -440 540h-144v-1040z" />
    <glyph glyph-name="E" unicode="E" 
d="M160 0v1420h940v-190h-740v-424h560v-190h-560v-426h740v-190h-940z" />
    <glyph glyph-name="F" unicode="F" 
d="M180 0v1420h940v-190h-740v-484h560v-190h-560v-556h-200z" />
    <glyph glyph-name="G" unicode="G" 
d="M702 -20q-636 0 -636 732q0 346 164.5 537t463.5 191q149 0 261 -46.5t165 -131.5l-149 -148q-47 68 -116.5 105t-148.5 37q-202 0 -314 -140t-112 -394q0 -558 446 -558q83 0 174 20v336h-290v190h480v-670q-187 -60 -388 -60z" />
    <glyph glyph-name="H" unicode="H" 
d="M860 0v612h-520v-612h-200v1420h200v-618h520v618h200v-1420h-200z" />
    <glyph glyph-name="I" unicode="I" 
d="M168 0v190h331v1040h-331v190h864v-190h-333v-1040h333v-190h-864z" />
    <glyph glyph-name="J" unicode="J" 
d="M574 -20q-233 0 -360.5 130t-127.5 366h200q0 -150 76.5 -233t216.5 -83q136 0 209.5 82t73.5 234v754h-372v190h572v-944q0 -236 -129 -366t-359 -130z" />
    <glyph glyph-name="K" unicode="K" 
d="M150 0v1420h200v-768q134 12 239.5 81t169.5 176.5t96.5 237t32.5 273.5h206q0 -222 -74.5 -420t-211.5 -334l354 -666h-242l-281 541q-134 -71 -289 -86v-455h-200z" />
    <glyph glyph-name="L" unicode="L" 
d="M160 0v1420h200v-1230h740v-190h-940z" />
    <glyph glyph-name="M" unicode="M" 
d="M128 0v1420h302l162 -610h16l162 610h302v-1420h-192v1168h-26l-162 -588h-184l-162 588h-26v-1168h-192z" />
    <glyph glyph-name="N" unicode="N" 
d="M800 0l-440 1080h-20v-1080h-192v1420h252l440 -1080h20v1080h192v-1420h-252z" />
    <glyph glyph-name="O" unicode="O" 
d="M600 -20q-524 0 -524 720q0 740 524 740t524 -740q0 -720 -524 -720zM600 164q314 0 314 536q0 556 -314 556t-314 -556q0 -536 314 -536z" />
    <glyph glyph-name="P" unicode="P" 
d="M160 0v1420h418q267 0 404.5 -119t137.5 -351q0 -251 -137.5 -380.5t-404.5 -129.5h-218v-440h-200zM360 630h218q163 0 247.5 81t84.5 239q0 138 -84 209t-248 71h-218v-600z" />
    <glyph glyph-name="Q" unicode="Q" 
d="M930 -460q-434 0 -434 440v8q-420 68 -420 712q0 740 524 740t524 -740q0 -652 -430 -714v-8q0 -258 236 -258h102l-20 -180h-82zM600 164q314 0 314 536q0 556 -314 556t-314 -556q0 -536 314 -536z" />
    <glyph glyph-name="R" unicode="R" 
d="M140 0v1420h488q221 0 341.5 -112.5t120.5 -317.5q0 -152 -62 -257t-179 -154l293 -579h-240l-257 540h-17h-288v-540h-200zM340 730h288q119 0 185.5 63t66.5 177q0 124 -66 192t-186 68h-288v-500z" />
    <glyph glyph-name="S" unicode="S" 
d="M551 -20q-242 0 -422 78l26 202q222 -96 412 -96q276 0 276 198q0 127 -130 186l-246 112q-150 68 -225 162t-75 228q0 186 112 288t317 102q143 0 253 -42.5t212 -136.5l-140 -142q-89 72 -165.5 104.5t-158.5 32.5q-104 0 -160 -50t-56 -146q0 -67 35.5 -111t110.5 -79
l208 -98q165 -78 243.5 -172t78.5 -234q0 -386 -506 -386z" />
    <glyph glyph-name="T" unicode="T" 
d="M500 0v1230h-420v190h1040v-190h-420v-1230h-200z" />
    <glyph glyph-name="U" unicode="U" 
d="M596 -20q-456 0 -456 476v964h200v-964q0 -144 63 -215t197 -71q260 0 260 286v964h200v-964q0 -237 -117.5 -356.5t-346.5 -119.5z" />
    <glyph glyph-name="V" unicode="V" 
d="M445 0l-400 1420h214l332 -1250h18l332 1250h214l-400 -1420h-310z" />
    <glyph glyph-name="W" unicode="W" 
d="M180 0l-160 1420h210l120 -1260h20l131 900h200l129 -900h20l120 1260h210l-160 -1420h-309l-105 862h-12l-105 -862h-309z" />
    <glyph glyph-name="X" unicode="X" 
d="M905 0l-305 533l-305 -533h-230l435 703l-435 717h230l305 -544l305 544h230l-435 -717l435 -703h-230z" />
    <glyph glyph-name="Y" unicode="Y" 
d="M500 0v503l-475 917h220l346 -710h18l346 710h220l-475 -917v-503h-200z" />
    <glyph glyph-name="Z" unicode="Z" 
d="M150 0v190l664 1040h-664v190h900v-190l-669 -1040h689v-190h-920z" />
    <glyph glyph-name="bracketleft" unicode="[" 
d="M372 -214v1848h626v-190h-426v-1468h426v-190h-626z" />
    <glyph glyph-name="backslash" unicode="\" 
d="M874 -190l-804 1800h212l804 -1800h-212z" />
    <glyph glyph-name="bracketright" unicode="]" 
d="M202 -214v190h414v1468h-414v190h626v-1848h-626z" />
    <glyph glyph-name="asciicircum" unicode="^" 
d="M205 820l260 600h270l260 -600h-220l-166 440h-18l-166 -440h-220z" />
    <glyph glyph-name="underscore" unicode="_" 
d="M100 -176v176h1000v-176h-1000z" />
    <glyph glyph-name="grave" unicode="`" 
d="M569 1248l-190 380h212l170 -380h-192z" />
    <glyph glyph-name="a" unicode="a" 
d="M818 -10l-10 234h-21q-11 -120 -101.5 -182t-241.5 -62q-166 0 -257 80t-91 226q0 168 125 258t355 90q118 0 200 -17v49q0 104 -73.5 154.5t-222.5 54.5l-254 7l20 188l214 -3q518 -7 518 -433v-442l180 -22v-170zM776 454q-68 10 -204 10q-276 0 -276 -168
q0 -70 47.5 -108t134.5 -38q140 0 219 69t79 161v74z" />
    <glyph glyph-name="b" unicode="b" 
d="M447 -20q-124 0 -284 20v1500h212v-632h20q15 212 260 212q212 0 328 -125.5t116 -354.5q0 -296 -170.5 -458t-481.5 -162zM375 596v-433q38 -3 114 -3q191 0 295.5 115t104.5 325q0 144 -63.5 222t-180.5 78q-270 0 -270 -304z" />
    <glyph glyph-name="c" unicode="c" 
d="M702 -20q-271 0 -418.5 143t-147.5 409q0 260 140 404t398 144q155 0 265.5 -57.5t157.5 -162.5l-163 -123q-45 73 -115 113t-153 40q-150 0 -233 -91t-83 -257q0 -181 97.5 -276.5t278.5 -95.5q139 0 292 26l24 -186q-138 -30 -340 -30z" />
    <glyph glyph-name="d" unicode="d" 
d="M519 -20q-209 0 -316 137t-107 403q0 276 107.5 418t315.5 142q119 0 193.5 -56t87.5 -156h20v632h212v-1500l-190 -10l-21 202h-21q-10 -100 -84.5 -156t-196.5 -56zM820 494v72q0 164 -64.5 249t-189.5 85q-128 0 -194 -96.5t-66 -283.5q0 -178 66 -269t194 -91
q125 0 189.5 85t64.5 249z" />
    <glyph glyph-name="e" unicode="e" 
d="M702 -20q-272 0 -419 143t-147 409q0 260 125 404t353 144q216 0 333 -131t117 -377q0 -73 -6 -136h-716q28 -132 126 -201t258 -69q123 0 260 28l26 -186q-147 -28 -310 -28zM334 598h538q0 142 -67.5 219t-188.5 77q-123 0 -196 -77t-86 -219z" />
    <glyph glyph-name="f" unicode="f" 
d="M402 0v646h-334v174h334v150q0 550 502 550q114 0 220 -20l-22 -184q-118 14 -204 14q-284 0 -284 -350v-160h434v-174h-434v-646h-212z" />
    <glyph glyph-name="g" unicode="g" 
d="M182 -478l-10 194l340 10q158 4 232 87t76 249v130h-20q-10 -100 -84.5 -156t-196.5 -56q-209 0 -316 137t-107 403q0 276 107.5 418t315.5 142q124 0 200.5 -56t90.5 -156h13l17 192h192v-966q0 -284 -129 -418.5t-411 -143.5zM820 566q0 164 -64.5 249t-189.5 85
q-128 0 -194 -96.5t-66 -283.5q0 -178 66 -269t194 -91q125 0 189.5 85t64.5 249v72z" />
    <glyph glyph-name="h" unicode="h" 
d="M820 0v690q0 100 -50 155t-140 55q-250 0 -250 -304v-596h-212v1500h212v-632h20q18 212 280 212q168 0 260 -102t92 -288v-690h-212z" />
    <glyph glyph-name="i" unicode="i" 
d="M160 0v174h404v712h-344v174h556v-886h326v-174h-942zM663 1228q-61 0 -104.5 43t-43.5 105t43.5 105t104.5 43t104.5 -43t43.5 -105t-43.5 -105t-104.5 -43z" />
    <glyph glyph-name="j" unicode="j" 
d="M180 -480l-10 188l200 18q161 15 233.5 94t72.5 242v824h-412v174h624v-966q0 -281 -126.5 -410t-411.5 -152zM760 1228q-62 0 -105 43t-43 105t43 105t105 43t105 -43t43 -105t-43 -105t-105 -43z" />
    <glyph glyph-name="k" unicode="k" 
d="M160 0v1500h212v-908h58q198 0 292.5 105.5t129.5 362.5h220q-49 -390 -244 -547l312 -513h-262l-245 419q-73 -17 -153 -17h-108v-402h-212z" />
    <glyph glyph-name="l" unicode="l" 
d="M758 -20q-184 0 -266 99.5t-82 320.5v926h-312v174h524v-1090q0 -67 8 -109t31.5 -73.5t66 -44.5t110.5 -13q83 0 212 38l24 -186q-151 -42 -316 -42z" />
    <glyph glyph-name="m" unicode="m" 
d="M876 0v810q0 110 -82 110q-104 0 -104 -144v-776h-180v830q0 90 -84 90q-102 0 -102 -144v-776h-212v1060h188l14 -132h16q12 152 182 152q141 0 171 -152h17q5 65 51.5 108.5t126.5 43.5q110 0 160 -59t50 -191v-830h-212z" />
    <glyph glyph-name="n" unicode="n" 
d="M820 0v690q0 96 -50 148t-140 52q-250 0 -250 -294v-596h-212v1060h192l17 -192h23q18 212 280 212q168 0 260 -102t92 -288v-690h-212z" />
    <glyph glyph-name="o" unicode="o" 
d="M600 -20q-221 0 -342.5 144t-121.5 406t121.5 406t342.5 144t342.5 -144t121.5 -406t-121.5 -406t-342.5 -144zM600 170q117 0 180.5 93.5t63.5 266.5t-63.5 266.5t-180.5 93.5t-180.5 -93.5t-63.5 -266.5t63.5 -266.5t180.5 -93.5z" />
    <glyph glyph-name="p" unicode="p" 
d="M168 -460v1520h192l17 -192h13q14 100 90.5 156t200.5 56q208 0 315.5 -142t107.5 -418q0 -266 -107 -403t-316 -137q-122 0 -196.5 56t-84.5 156h-20v-652h-212zM380 494q0 -164 64.5 -249t189.5 -85q128 0 194 91t66 269q0 187 -66 283.5t-194 96.5q-125 0 -189.5 -85
t-64.5 -249v-72z" />
    <glyph glyph-name="q" unicode="q" 
d="M518 -20q-202 0 -312 140t-110 400q0 267 111 413.5t313 146.5q253 0 280 -212h23l17 192h192v-1520h-212v624h-20q-10 -90 -85 -137t-197 -47zM820 636q0 264 -240 264q-131 0 -202.5 -99t-71.5 -281q0 -178 69.5 -269t206.5 -91q238 0 238 180v296z" />
    <glyph glyph-name="r" unicode="r" 
d="M528 456v-282h260v-174h-708v174h236v712h-196v174h368l36 -272h24q18 292 292 292q164 0 238 -94t74 -304h-210q0 115 -34.5 166.5t-111.5 51.5q-133 0 -200.5 -114t-67.5 -330z" />
    <glyph glyph-name="s" unicode="s" 
d="M518 -20q-234 0 -362 30l24 192q204 -32 338 -32q160 0 233 31.5t73 100.5q0 46 -24.5 70t-79.5 38l-244 62q-164 41 -234 101.5t-70 176.5q0 174 133.5 252t430.5 78q146 0 280 -20l-22 -184q-151 14 -264 14q-179 0 -258.5 -30.5t-79.5 -99.5q0 -44 30 -65t104 -39
l196 -48q171 -42 246.5 -110t75.5 -192q0 -171 -125 -248.5t-401 -77.5z" />
    <glyph glyph-name="t" unicode="t" 
d="M792 -20q-241 0 -348.5 99.5t-107.5 320.5v486h-266v174h266v320h212v-320h482v-174h-482v-476q0 -127 62 -183.5t202 -56.5q74 0 234 20l24 -186q-141 -24 -278 -24z" />
    <glyph glyph-name="u" unicode="u" 
d="M496 -20q-167 0 -258.5 99t-91.5 281v700h212v-700q0 -91 52 -140.5t146 -49.5q118 0 176 75.5t58 244.5v570h212v-868l146 -22v-170l-340 -10l-15 214h-19q-25 -108 -98 -166t-180 -58z" />
    <glyph glyph-name="v" unicode="v" 
d="M459 0l-379 1060h226l285 -880h18l285 880h226l-379 -1060h-282z" />
    <glyph glyph-name="w" unicode="w" 
d="M720 0l-124 842h-12l-124 -842h-270l-120 1060h200l80 -900h18l125 900h194l125 -900h18l90 900h210l-150 -1060h-260z" />
    <glyph glyph-name="x" unicode="x" 
d="M106 0l379 524l-379 536h240l254 -371l254 371h240l-384 -528l384 -532h-240l-259 368l-249 -368h-240z" />
    <glyph glyph-name="y" unicode="y" 
d="M75 -480l-10 190l166 20q128 15 210.5 77.5t138.5 192.5h-103l-422 1060h220l346 -900h15l259 900h220l-306 -966q-89 -283 -214 -406.5t-340 -147.5z" />
    <glyph glyph-name="z" unicode="z" 
d="M160 0v176l609 708h-609v176h856v-176l-606 -708h626v-176h-876z" />
    <glyph glyph-name="braceleft" unicode="{" 
d="M816 -214q-163 0 -252.5 97t-89.5 273q0 55 21 166t21 170q0 40 -28 69.5t-72 45t-87 22.5t-83 7v158q50 0 110.5 16t110 50.5t49.5 77.5q0 62 -21 171.5t-21 164.5q0 168 89.5 260t252.5 92q97 0 170 -20l-24 -170q-78 10 -128 10q-71 0 -108.5 -45t-37.5 -127
q0 -58 23 -166t23 -166q0 -98 -69 -153t-193 -57v-34q123 -2 192.5 -58t69.5 -152q0 -62 -23 -170t-23 -162q0 -91 37.5 -140.5t108.5 -49.5q50 0 128 10l24 -170q-73 -20 -170 -20z" />
    <glyph glyph-name="bar" unicode="|" 
d="M500 -310v2040h200v-2040h-200z" />
    <glyph glyph-name="braceright" unicode="}" 
d="M386 -214q-97 0 -170 20l24 170q78 -10 128 -10q71 0 108.5 49.5t37.5 140.5q0 54 -23 162t-23 170q0 96 69.5 152t192.5 58v34q-124 2 -193 57t-69 153q0 58 23 166t23 166q0 82 -37.5 127t-108.5 45q-50 0 -128 -10l-24 170q73 20 170 20q163 0 252.5 -92t89.5 -260
q0 -55 -21 -164.5t-21 -171.5q0 -43 49.5 -77.5t110 -50.5t110.5 -16v-158q-40 0 -83 -7t-87 -22.5t-72 -45t-28 -69.5q0 -59 21 -170t21 -166q0 -176 -89.5 -273t-252.5 -97z" />
    <glyph glyph-name="asciitilde" unicode="~" 
d="M100 486v80q0 173 64 251.5t206 78.5q111 0 260 -89q13 -8 45.5 -29t48.5 -30t41.5 -18t47.5 -9q45 0 65 28.5t20 90.5v90h202v-80q0 -173 -57 -251.5t-183 -78.5q-109 0 -256 89q-9 5 -38.5 23.5t-41.5 25.5t-35 18t-41.5 15t-38.5 4q-56 0 -81.5 -28.5t-25.5 -90.5v-90
h-202z" />
    <glyph glyph-name="uni00A0" unicode="&#xa0;" 
 />
    <glyph glyph-name="exclamdown" unicode="&#xa1;" 
d="M496 -370l6 974h192l10 -974h-208zM600 1080q62 0 105 -43t43 -105t-43 -105t-105 -43t-105 43t-43 105t43 105t105 43z" />
    <glyph glyph-name="cent" unicode="&#xa2;" 
d="M594 -334v320q-221 28 -339.5 168t-118.5 378q0 239 118.5 380.5t339.5 163.5v318h138v-316q133 -11 227.5 -67t137.5 -151l-163 -123q-74 118 -202 146v-713q136 0 286 26l24 -186q-128 -28 -310 -30v-314h-138zM594 186v698q-118 -21 -181 -109t-63 -233
q0 -144 62.5 -234.5t181.5 -121.5z" />
    <glyph glyph-name="sterling" unicode="&#xa3;" 
d="M132 0v186q145 207 158 395h-181v138h183v317q0 193 110.5 298.5t307.5 105.5q140 0 243.5 -60t151.5 -169l-158 -117q-42 77 -106 119.5t-139 42.5q-89 0 -142.5 -58t-53.5 -163v-316h391v-138h-393q-13 -189 -160 -395h752v-186h-964z" />
    <glyph glyph-name="currency" unicode="&#xa4;" 
d="M603 300q-128 0 -223 50l-192 -209l-116 122l183 192q-76 101 -76 245q0 142 75 245l-182 190l127 124l182 -208q96 49 222 49q125 0 217 -47l181 206l127 -124l-178 -187q77 -104 77 -248q0 -145 -78 -248l179 -189l-116 -122l-190 207q-94 -48 -219 -48zM603 490
q92 0 148 57.5t56 152.5t-56 152.5t-148 57.5t-148 -57.5t-56 -152.5t56 -152.5t148 -57.5z" />
    <glyph glyph-name="yen" unicode="&#xa5;" 
d="M162 501v138h268l-405 781h220l346 -710h18l346 710h220l-405 -781h270v-138h-340v-172h340v-138h-340v-191h-200v191h-338v138h338v172h-338z" />
    <glyph glyph-name="brokenbar" unicode="&#xa6;" 
d="M500 -310v860h200v-860h-200zM500 870v860h200v-860h-200z" />
    <glyph glyph-name="section" unicode="&#xa7;" 
d="M1131 674q0 -140 -73.5 -205t-235.5 -66v-28q110 -44 159.5 -105t49.5 -164q0 -171 -120.5 -248.5t-385.5 -77.5q-234 0 -362 30l24 192q204 -32 338 -32q150 0 218 31.5t68 100.5q0 47 -19.5 70.5t-64.5 37.5l-354 110q-110 34 -173.5 73.5t-97 104t-33.5 160.5
q0 136 95 203t300 66v23q-175 58 -235 116t-60 172q0 174 124 252t400 78q146 0 280 -20l-22 -184q-151 14 -264 14q-158 0 -228 -30.5t-70 -99.5q0 -44 20.5 -64t73.5 -40l326 -120q177 -65 249.5 -137t72.5 -213zM289 668q0 -55 24.5 -93t72 -59t105 -29.5t134.5 -8.5
q150 0 218 45.5t68 146.5q0 111 -76.5 154.5t-227.5 43.5q-168 0 -243 -47t-75 -153z" />
    <glyph glyph-name="dieresis" unicode="&#xa8;" 
d="M390 1238q-56 0 -95 39t-39 95t39 95t95 39t95 -39t39 -95t-39 -95t-95 -39zM810 1238q-56 0 -95 39t-39 95t39 95t95 39t95 -39t39 -95t-39 -95t-95 -39z" />
    <glyph glyph-name="copyright" unicode="&#xa9;" 
d="M600 15q-274 0 -424 178t-150 502q0 338 150 524t424 186t424 -186t150 -524q0 -324 -150 -502t-424 -178zM600 169q193 0 298.5 137.5t105.5 388.5q0 265 -105.5 410.5t-298.5 145.5t-298.5 -145.5t-105.5 -410.5q0 -251 105.5 -388.5t298.5 -137.5zM652 380
q-175 0 -270.5 86t-95.5 246q0 156 93.5 242t264.5 86q88 0 152 -31.5t91 -88.5l-123 -113q-44 73 -128 73q-77 0 -118.5 -41t-41.5 -117q0 -88 51.5 -135t148.5 -47q83 0 172 26l24 -156q-88 -30 -220 -30z" />
    <glyph glyph-name="ordfeminine" unicode="&#xaa;" 
d="M690 779l-6 135h-25q-27 -74 -74 -107.5t-139 -33.5q-103 0 -160 50.5t-57 142.5q0 104 74 160.5t211 56.5q84 0 152 -11v6q0 56 -44.5 86t-130.5 30h-185l11 146l162 -1q353 -1 353 -280v-249l107 -13v-112zM666 1054q-50 5 -148 5q-114 0 -114 -76q0 -74 86 -74
q82 0 129 39.5t47 90.5v15z" />
    <glyph glyph-name="guillemotleft" unicode="&#xab;" 
d="M486 25l-426 443v122l426 439l130 -115l-362 -376v-18l362 -380zM981 25l-426 443v122l426 439l130 -115l-362 -376v-18l362 -380z" />
    <glyph glyph-name="logicalnot" unicode="&#xac;" 
d="M100 717v186h1000v-553h-192v367h-808z" />
    <glyph glyph-name="uni00AD" unicode="&#xad;" 
d="M100 616v186h1000v-186h-1000z" />
    <glyph glyph-name="registered" unicode="&#xae;" 
d="M600 15q-274 0 -424 178t-150 502q0 338 150 524t424 186t424 -186t150 -524q0 -324 -150 -502t-424 -178zM600 169q193 0 298.5 137.5t105.5 388.5q0 265 -105.5 410.5t-298.5 145.5t-298.5 -145.5t-105.5 -410.5q0 -251 105.5 -388.5t298.5 -137.5zM348 396v634h300
q116 0 179 -55.5t63 -159.5q0 -144 -124 -195l138 -224h-187l-110 204h-99v-204h-160zM508 730h140q44 0 68 22.5t24 62.5t-24 62.5t-68 22.5h-140v-170z" />
    <glyph glyph-name="macron" unicode="&#xaf;" 
d="M170 1248v188h860v-188h-860z" />
    <glyph glyph-name="degree" unicode="&#xb0;" 
d="M600 690q-180 0 -281 99t-101 276t101 276t281 99t281 -99t101 -276t-101 -276t-281 -99zM600 860q88 0 137.5 54t49.5 151t-49.5 151t-137.5 54t-137.5 -54t-49.5 -151t49.5 -151t137.5 -54z" />
    <glyph glyph-name="plusminus" unicode="&#xb1;" 
d="M100 683v186h404v355h192v-355h404v-186h-404v-311h404v-186h-1000v186h404v311h-404z" />
    <glyph glyph-name="uni00B2" unicode="&#xb2;" 
d="M354 802v157q297 104 297 228q0 93 -102 93q-76 0 -161 -36l-59 138q104 58 257 58q117 0 187.5 -54.5t70.5 -143.5q0 -156 -244 -287v-13h270v-140h-516z" />
    <glyph glyph-name="uni00B3" unicode="&#xb3;" 
d="M562 793q-126 -1 -218 26l41 146q108 -21 163 -21q64 0 99 16.5t35 46.5q0 52 -127 52h-64l-10 116q183 13 183 66q0 23 -29.5 36t-82.5 13q-97 0 -175 -29l-21 149q94 30 226 30q123 0 189.5 -35.5t66.5 -102.5q0 -51 -41 -89t-108 -52v-24q77 -12 121.5 -50t44.5 -99
q0 -93 -76.5 -143t-216.5 -52z" />
    <glyph glyph-name="acute" unicode="&#xb4;" 
d="M439 1248l170 380h212l-190 -380h-192z" />
    <glyph glyph-name="uni00B5" unicode="&#xb5;" 
d="M561 -20q-162 0 -205 224h-19l36 -664h-222v1520h212v-630q0 -115 52 -177.5t146 -62.5q118 0 176 70.5t58 229.5v570h212v-868l146 -22v-170l-340 -10l-15 214h-19q-42 -224 -218 -224z" />
    <glyph glyph-name="paragraph" unicode="&#xb6;" 
d="M422 0v644q-186 19 -286 116t-100 262q0 189 127 293.5t361 104.5h636v-190h-168v-1230h-200v1230h-170v-1230h-200z" />
    <glyph glyph-name="periodcentered" unicode="&#xb7;" 
d="M600 562q-62 0 -105 43t-43 105t43 105t105 43t105 -43t43 -105t-43 -105t-105 -43z" />
    <glyph glyph-name="cedilla" unicode="&#xb8;" 
d="M414 -480v150q188 0 188 72q0 68 -162 68l69 196l136 -11l-25 -95q172 -36 172 -167q0 -213 -378 -213z" />
    <glyph glyph-name="uni00B9" unicode="&#xb9;" 
d="M341 800v141h199v319l-190 -51v158l190 53h156v-479h163v-141h-518z" />
    <glyph glyph-name="ordmasculine" unicode="&#xba;" 
d="M600 770q-155 0 -248.5 92t-93.5 243t93.5 243t248.5 92t248.5 -92t93.5 -243t-93.5 -243t-248.5 -92zM600 920q71 0 114 51t43 134t-43 134t-114 51t-114 -51t-43 -134t43 -134t114 -51z" />
    <glyph glyph-name="guillemotright" unicode="&#xbb;" 
d="M219 25l-130 115l362 380v18l-362 376l130 115l426 -439v-122zM714 25l-130 115l362 380v18l-362 376l130 115l426 -439v-122z" />
    <glyph glyph-name="onequarter" unicode="&#xbc;" 
d="M567 106l2 3l77 476h160l-56 -344h138v377h156v-377h69v-135h-69v-106h-156v106h-321zM186 286l-92 136l930 664l92 -130zM81 800v141h199v319l-190 -51v158l190 53h156v-479h163v-141h-518z" />
    <glyph glyph-name="onehalf" unicode="&#xbd;" 
d="M624 -1v157q297 104 297 228q0 93 -102 93q-76 0 -161 -36l-59 138q104 58 257 58q117 0 187.5 -54.5t70.5 -143.5q0 -156 -244 -287v-13h270v-140h-516zM186 296l-92 136l930 664l92 -130zM81 800v141h199v319l-190 -51v158l190 53h156v-479h163v-141h-518z" />
    <glyph glyph-name="threequarters" unicode="&#xbe;" 
d="M322 793q-126 -1 -218 26l41 146q108 -21 163 -21q64 0 99 16.5t35 46.5q0 52 -127 52h-64l-10 116q183 13 183 66q0 23 -29.5 36t-82.5 13q-97 0 -175 -29l-21 149q94 30 226 30q123 0 189.5 -35.5t66.5 -102.5q0 -51 -41 -89t-108 -52v-24q77 -12 121.5 -50t44.5 -99
q0 -93 -76.5 -143t-216.5 -52zM567 106l2 3l77 476h160l-56 -344h138v377h156v-377h69v-135h-69v-106h-156v106h-321zM186 306l-92 136l930 664l92 -130z" />
    <glyph glyph-name="questiondown" unicode="&#xbf;" 
d="M604 -380q-195 0 -302.5 88.5t-107.5 249.5q0 222 222 364q128 83 128 200v82h196v-96q0 -198 -164 -302q-162 -100 -162 -238q0 -75 50.5 -116.5t141.5 -41.5q93 0 184.5 46.5t155.5 125.5l138 -143q-70 -100 -200 -159.5t-280 -59.5zM638 1080q62 0 105 -43t43 -105
t-43 -105t-105 -43t-105 43t-43 105t43 105t105 43z" />
    <glyph glyph-name="Agrave" unicode="&#xc0;" 
d="M45 0l410 1420h290l410 -1420h-210l-93 346h-504l-93 -346h-210zM399 536h402l-192 712h-18zM509 1580l-270 250h282l220 -250h-232z" />
    <glyph glyph-name="Aacute" unicode="&#xc1;" 
d="M45 0l410 1420h290l410 -1420h-210l-93 346h-504l-93 -346h-210zM399 536h402l-192 712h-18zM469 1580l220 250h282l-270 -250h-232z" />
    <glyph glyph-name="Acircumflex" unicode="&#xc2;" 
d="M45 0l410 1420h290l410 -1420h-210l-93 346h-504l-93 -346h-210zM399 536h402l-192 712h-18zM259 1580l260 260h172l260 -260h-222l-124 144l-124 -144h-222z" />
    <glyph glyph-name="Atilde" unicode="&#xc3;" 
d="M45 0l410 1420h290l410 -1420h-210l-93 346h-504l-93 -346h-210zM225 1566v50q0 250 210 250q70 0 188 -49q17 -7 41 -17t35.5 -15t25.5 -10t24 -7t20 -2q54 0 54 64v60h172v-50q0 -240 -188 -240q-62 0 -193 55q-107 45 -141 45q-74 0 -74 -74v-60h-174zM399 536h402
l-192 712h-18z" />
    <glyph glyph-name="Adieresis" unicode="&#xc4;" 
d="M45 0l410 1420h290l410 -1420h-210l-93 346h-504l-93 -346h-210zM399 536h402l-192 712h-18zM392 1580q-56 0 -95 39t-39 95t39 95t95 39t95 -39t39 -95t-39 -95t-95 -39zM808 1580q-56 0 -95 39t-39 95t39 95t95 39t95 -39t39 -95t-39 -95t-95 -39z" />
    <glyph glyph-name="Aring" unicode="&#xc5;" 
d="M45 0l410 1420h290l410 -1420h-210l-93 346h-504l-93 -346h-210zM600 1488q-113 0 -175.5 54t-62.5 152t62.5 152t175.5 54t175.5 -54t62.5 -152t-62.5 -152t-175.5 -54zM399 536h402l-192 712h-18zM600 1604q46 0 71 23t25 67t-25 67.5t-71 23.5t-71 -23.5t-25 -67.5
t25 -67t71 -23z" />
    <glyph glyph-name="AE" unicode="&#xc6;" 
d="M42 0l400 1420h658v-190h-320v-424h260v-190h-260v-426h320v-190h-500v241h-300l-68 -241h-190zM349 416h251v832h-17z" />
    <glyph glyph-name="Ccedilla" unicode="&#xc7;" 
d="M748 -20h-17l-21 -80q172 -36 172 -167q0 -213 -378 -213v150q188 0 188 72q0 68 -162 68l64 181q-508 81 -508 721q0 347 167 537.5t471 190.5q147 0 256 -47t159 -132l-148 -147q-45 68 -114.5 105t-150.5 37q-196 0 -311 -140.5t-115 -393.5q0 -558 482 -558
q145 0 286 60l46 -176q-174 -68 -366 -68z" />
    <glyph glyph-name="Egrave" unicode="&#xc8;" 
d="M160 0v1420h940v-190h-740v-424h560v-190h-560v-426h740v-190h-940zM539 1580l-270 250h282l220 -250h-232z" />
    <glyph glyph-name="Eacute" unicode="&#xc9;" 
d="M160 0v1420h940v-190h-740v-424h560v-190h-560v-426h740v-190h-940zM499 1580l220 250h282l-270 -250h-232z" />
    <glyph glyph-name="Ecircumflex" unicode="&#xca;" 
d="M160 0v1420h940v-190h-740v-424h560v-190h-560v-426h740v-190h-940zM289 1580l260 260h172l260 -260h-222l-124 144l-124 -144h-222z" />
    <glyph glyph-name="Edieresis" unicode="&#xcb;" 
d="M160 0v1420h940v-190h-740v-424h560v-190h-560v-426h740v-190h-940zM422 1580q-56 0 -95 39t-39 95t39 95t95 39t95 -39t39 -95t-39 -95t-95 -39zM838 1580q-56 0 -95 39t-39 95t39 95t95 39t95 -39t39 -95t-39 -95t-95 -39z" />
    <glyph glyph-name="Igrave" unicode="&#xcc;" 
d="M168 0v190h331v1040h-331v190h864v-190h-333v-1040h333v-190h-864zM509 1580l-270 250h282l220 -250h-232z" />
    <glyph glyph-name="Iacute" unicode="&#xcd;" 
d="M168 0v190h331v1040h-331v190h864v-190h-333v-1040h333v-190h-864zM469 1580l220 250h282l-270 -250h-232z" />
    <glyph glyph-name="Icircumflex" unicode="&#xce;" 
d="M168 0v190h331v1040h-331v190h864v-190h-333v-1040h333v-190h-864zM259 1580l260 260h172l260 -260h-222l-124 144l-124 -144h-222z" />
    <glyph glyph-name="Idieresis" unicode="&#xcf;" 
d="M168 0v190h331v1040h-331v190h864v-190h-333v-1040h333v-190h-864zM392 1580q-56 0 -95 39t-39 95t39 95t95 39t95 -39t39 -95t-39 -95t-95 -39zM808 1580q-56 0 -95 39t-39 95t39 95t95 39t95 -39t39 -95t-39 -95t-95 -39z" />
    <glyph glyph-name="Eth" unicode="&#xd0;" 
d="M12 612v190h128v618h344q650 0 650 -730q0 -690 -650 -690h-344v612h-128zM340 190h144q440 0 440 500q0 540 -440 540h-144v-428h311v-190h-311v-422z" />
    <glyph glyph-name="Ntilde" unicode="&#xd1;" 
d="M800 0l-440 1080h-20v-1080h-192v1420h252l440 -1080h20v1080h192v-1420h-252zM225 1566v50q0 250 210 250q70 0 188 -49q17 -7 41 -17t35.5 -15t25.5 -10t24 -7t20 -2q54 0 54 64v60h172v-50q0 -240 -188 -240q-62 0 -193 55q-107 45 -141 45q-74 0 -74 -74v-60h-174z
" />
    <glyph glyph-name="Ograve" unicode="&#xd2;" 
d="M600 -20q-524 0 -524 720q0 740 524 740t524 -740q0 -720 -524 -720zM600 164q314 0 314 536q0 556 -314 556t-314 -556q0 -536 314 -536zM509 1580l-270 250h282l220 -250h-232z" />
    <glyph glyph-name="Oacute" unicode="&#xd3;" 
d="M600 -20q-524 0 -524 720q0 740 524 740t524 -740q0 -720 -524 -720zM600 164q314 0 314 536q0 556 -314 556t-314 -556q0 -536 314 -536zM469 1580l220 250h282l-270 -250h-232z" />
    <glyph glyph-name="Ocircumflex" unicode="&#xd4;" 
d="M600 -20q-524 0 -524 720q0 740 524 740t524 -740q0 -720 -524 -720zM600 164q314 0 314 536q0 556 -314 556t-314 -556q0 -536 314 -536zM259 1580l260 260h172l260 -260h-222l-124 144l-124 -144h-222z" />
    <glyph glyph-name="Otilde" unicode="&#xd5;" 
d="M600 -20q-524 0 -524 720q0 740 524 740t524 -740q0 -720 -524 -720zM600 164q314 0 314 536q0 556 -314 556t-314 -556q0 -536 314 -536zM225 1566v50q0 250 210 250q70 0 188 -49q17 -7 41 -17t35.5 -15t25.5 -10t24 -7t20 -2q54 0 54 64v60h172v-50q0 -240 -188 -240
q-62 0 -193 55q-107 45 -141 45q-74 0 -74 -74v-60h-174z" />
    <glyph glyph-name="Odieresis" unicode="&#xd6;" 
d="M600 -20q-524 0 -524 720q0 740 524 740t524 -740q0 -720 -524 -720zM600 164q314 0 314 536q0 556 -314 556t-314 -556q0 -536 314 -536zM392 1580q-56 0 -95 39t-39 95t39 95t95 39t95 -39t39 -95t-39 -95t-95 -39zM808 1580q-56 0 -95 39t-39 95t39 95t95 39t95 -39
t39 -95t-39 -95t-95 -39z" />
    <glyph glyph-name="multiply" unicode="&#xd7;" 
d="M249 188l-128 121l357 378l-357 378l128 123l351 -372l351 372l128 -123l-357 -378l357 -378l-128 -121l-351 371z" />
    <glyph glyph-name="Oslash" unicode="&#xd8;" 
d="M201 -134l-135 75l133 231q-123 180 -123 528q0 740 524 740q169 0 282 -76l97 168l135 -75l-118 -206q128 -185 128 -551q0 -720 -524 -720q-172 0 -289 78zM600 164q314 0 314 536q0 206 -43 334l-458 -799q73 -71 187 -71zM324 391l458 797q-73 68 -182 68
q-314 0 -314 -556q0 -186 38 -309z" />
    <glyph glyph-name="Ugrave" unicode="&#xd9;" 
d="M596 -20q-456 0 -456 476v964h200v-964q0 -144 63 -215t197 -71q260 0 260 286v964h200v-964q0 -237 -117.5 -356.5t-346.5 -119.5zM509 1580l-270 250h282l220 -250h-232z" />
    <glyph glyph-name="Uacute" unicode="&#xda;" 
d="M596 -20q-456 0 -456 476v964h200v-964q0 -144 63 -215t197 -71q260 0 260 286v964h200v-964q0 -237 -117.5 -356.5t-346.5 -119.5zM469 1580l220 250h282l-270 -250h-232z" />
    <glyph glyph-name="Ucircumflex" unicode="&#xdb;" 
d="M596 -20q-456 0 -456 476v964h200v-964q0 -144 63 -215t197 -71q260 0 260 286v964h200v-964q0 -237 -117.5 -356.5t-346.5 -119.5zM259 1580l260 260h172l260 -260h-222l-124 144l-124 -144h-222z" />
    <glyph glyph-name="Udieresis" unicode="&#xdc;" 
d="M596 -20q-456 0 -456 476v964h200v-964q0 -144 63 -215t197 -71q260 0 260 286v964h200v-964q0 -237 -117.5 -356.5t-346.5 -119.5zM392 1580q-56 0 -95 39t-39 95t39 95t95 39t95 -39t39 -95t-39 -95t-95 -39zM808 1580q-56 0 -95 39t-39 95t39 95t95 39t95 -39t39 -95
t-39 -95t-95 -39z" />
    <glyph glyph-name="Yacute" unicode="&#xdd;" 
d="M500 0v503l-475 917h220l346 -710h18l346 710h220l-475 -917v-503h-200zM469 1580l220 250h282l-270 -250h-232z" />
    <glyph glyph-name="Thorn" unicode="&#xde;" 
d="M160 0v1420h200v-220h218q258 0 400 -128t142 -362t-142 -362t-400 -128h-218v-220h-200zM360 410h218q158 0 245 78.5t87 221.5q0 144 -86.5 222t-245.5 78h-218v-600z" />
    <glyph glyph-name="germandbls" unicode="&#xdf;" 
d="M818 -20q-149 0 -252 30l24 192q155 -32 228 -32q60 0 93 29.5t33 82.5q0 66 -32 113.5t-91 93.5q-77 67 -100 94q-69 82 -69 187q0 19 2 37.5t7.5 37t9.5 31t13 32.5t13 27.5t16 29t14 26.5q29 44 40.5 64t26.5 65t15 90q0 56 -37 87.5t-104 32.5q-112 0 -173 -65.5
t-61 -184.5v-1080h-212v644h-154v176h154v250q0 214 118.5 332t333.5 118q169 0 262 -81t93 -229q0 -40 -4.5 -72.5t-19 -63.5t-21 -43.5t-30 -46t-26.5 -38.5q-3 -6 -15 -27t-16.5 -31t-11.5 -29t-10 -38t-3 -41q0 -30 17.5 -64t34.5 -54.5t56 -62.5q35 -33 53.5 -50.5
t47.5 -52t44 -62.5t27 -67.5t12 -80.5q0 -146 -90.5 -226t-255.5 -80z" />
    <glyph glyph-name="agrave" unicode="&#xe0;" 
d="M818 -10l-10 234h-21q-11 -120 -101.5 -182t-241.5 -62q-166 0 -257 80t-91 226q0 168 125 258t355 90q118 0 200 -17v49q0 104 -73.5 154.5t-222.5 54.5l-254 7l20 188l214 -3q518 -7 518 -433v-442l180 -22v-170zM776 454q-68 10 -204 10q-276 0 -276 -168
q0 -70 47.5 -108t134.5 -38q140 0 219 69t79 161v74zM504 1248l-190 380h212l170 -380h-192z" />
    <glyph glyph-name="aacute" unicode="&#xe1;" 
d="M818 -10l-10 234h-21q-11 -120 -101.5 -182t-241.5 -62q-166 0 -257 80t-91 226q0 168 125 258t355 90q118 0 200 -17v49q0 104 -73.5 154.5t-222.5 54.5l-254 7l20 188l214 -3q518 -7 518 -433v-442l180 -22v-170zM776 454q-68 10 -204 10q-276 0 -276 -168
q0 -70 47.5 -108t134.5 -38q140 0 219 69t79 161v74zM479 1248l170 380h212l-190 -380h-192z" />
    <glyph glyph-name="acircumflex" unicode="&#xe2;" 
d="M818 -10l-10 234h-21q-11 -120 -101.5 -182t-241.5 -62q-166 0 -257 80t-91 226q0 168 125 258t355 90q118 0 200 -17v49q0 104 -73.5 154.5t-222.5 54.5l-254 7l20 188l214 -3q518 -7 518 -433v-442l180 -22v-170zM254 1248l240 380h172l240 -380h-212l-114 226
l-114 -226h-212zM776 454q-68 10 -204 10q-276 0 -276 -168q0 -70 47.5 -108t134.5 -38q140 0 219 69t79 161v74z" />
    <glyph glyph-name="atilde" unicode="&#xe3;" 
d="M818 -10l-10 234h-21q-11 -120 -101.5 -182t-241.5 -62q-166 0 -257 80t-91 226q0 168 125 258t355 90q118 0 200 -17v49q0 104 -73.5 154.5t-222.5 54.5l-254 7l20 188l214 -3q518 -7 518 -433v-442l180 -22v-170zM230 1256v40q0 250 210 250q58 0 148 -44
q112 -56 146 -56q54 0 54 64v90h172v-80q0 -240 -188 -240q-63 0 -163 50q-7 4 -25.5 13.5t-28 14t-25 11t-28 9t-24.5 2.5q-74 0 -74 -74v-50h-174zM776 454q-68 10 -204 10q-276 0 -276 -168q0 -70 47.5 -108t134.5 -38q140 0 219 69t79 161v74z" />
    <glyph glyph-name="adieresis" unicode="&#xe4;" 
d="M818 -10l-10 234h-21q-11 -120 -101.5 -182t-241.5 -62q-166 0 -257 80t-91 226q0 168 125 258t355 90q118 0 200 -17v49q0 104 -73.5 154.5t-222.5 54.5l-254 7l20 188l214 -3q518 -7 518 -433v-442l180 -22v-170zM776 454q-68 10 -204 10q-276 0 -276 -168
q0 -70 47.5 -108t134.5 -38q140 0 219 69t79 161v74zM372 1238q-56 0 -95 39t-39 95t39 95t95 39t95 -39t39 -95t-39 -95t-95 -39zM792 1238q-56 0 -95 39t-39 95t39 95t95 39t95 -39t39 -95t-39 -95t-95 -39z" />
    <glyph glyph-name="aring" unicode="&#xe5;" 
d="M818 -10l-10 234h-21q-11 -120 -101.5 -182t-241.5 -62q-166 0 -257 80t-91 226q0 168 125 258t355 90q118 0 200 -17v49q0 104 -73.5 154.5t-222.5 54.5l-254 7l20 188l214 -3q518 -7 518 -433v-442l180 -22v-170zM580 1198q-113 0 -175.5 56.5t-62.5 159.5t62.5 159.5
t175.5 56.5t175.5 -56.5t62.5 -159.5t-62.5 -159.5t-175.5 -56.5zM776 454q-68 10 -204 10q-276 0 -276 -168q0 -70 47.5 -108t134.5 -38q140 0 219 69t79 161v74zM580 1314q46 0 71 26t25 74t-25 74t-71 26t-71 -26t-25 -74t25 -74t71 -26z" />
    <glyph glyph-name="ae" unicode="&#xe6;" 
d="M299 -20q-125 0 -201.5 84t-76.5 222q0 157 101.5 252.5t268.5 95.5q69 0 130 -11v43q0 99 -78 157t-218 62l-94 3l20 182l94 -3q262 -9 368 -186q80 199 257 199q145 0 225 -133t80 -375q0 -76 -6 -136h-458q20 -128 91.5 -197t184.5 -69q57 0 120 13l26 -185
q-87 -18 -170 -18q-128 0 -218.5 62t-137.5 182h-17q-21 -120 -91 -182t-200 -62zM521 380v84q-35 10 -134 10q-79 0 -127.5 -49t-48.5 -129q0 -66 39 -106t103 -40q80 0 124 60.5t44 169.5zM704 588h279q0 161 -31 233.5t-100 72.5q-72 0 -108 -73.5t-40 -232.5z" />
    <glyph glyph-name="ccedilla" unicode="&#xe7;" 
d="M489 -480v150q188 0 188 72q0 68 -162 68l63 179q-214 31 -328 170t-114 373q0 260 140 404t398 144q155 0 265.5 -57.5t157.5 -162.5l-163 -123q-45 73 -115 113t-153 40q-150 0 -233 -91t-83 -257q0 -181 97.5 -276.5t278.5 -95.5q139 0 292 26l24 -186
q-129 -28 -326 -30l-21 -80q172 -36 172 -167q0 -213 -378 -213z" />
    <glyph glyph-name="egrave" unicode="&#xe8;" 
d="M702 -20q-272 0 -419 143t-147 409q0 260 125 404t353 144q216 0 333 -131t117 -377q0 -73 -6 -136h-716q28 -132 126 -201t258 -69q123 0 260 28l26 -186q-147 -28 -310 -28zM334 598h538q0 142 -67.5 219t-188.5 77q-123 0 -196 -77t-86 -219zM534 1248l-190 380h212
l170 -380h-192z" />
    <glyph glyph-name="eacute" unicode="&#xe9;" 
d="M702 -20q-272 0 -419 143t-147 409q0 260 125 404t353 144q216 0 333 -131t117 -377q0 -73 -6 -136h-716q28 -132 126 -201t258 -69q123 0 260 28l26 -186q-147 -28 -310 -28zM334 598h538q0 142 -67.5 219t-188.5 77q-123 0 -196 -77t-86 -219zM509 1248l170 380h212
l-190 -380h-192z" />
    <glyph glyph-name="ecircumflex" unicode="&#xea;" 
d="M702 -20q-272 0 -419 143t-147 409q0 260 125 404t353 144q216 0 333 -131t117 -377q0 -73 -6 -136h-716q28 -132 126 -201t258 -69q123 0 260 28l26 -186q-147 -28 -310 -28zM284 1248l240 380h172l240 -380h-212l-114 226l-114 -226h-212zM334 598h538q0 142 -67.5 219
t-188.5 77q-123 0 -196 -77t-86 -219z" />
    <glyph glyph-name="edieresis" unicode="&#xeb;" 
d="M702 -20q-272 0 -419 143t-147 409q0 260 125 404t353 144q216 0 333 -131t117 -377q0 -73 -6 -136h-716q28 -132 126 -201t258 -69q123 0 260 28l26 -186q-147 -28 -310 -28zM334 598h538q0 142 -67.5 219t-188.5 77q-123 0 -196 -77t-86 -219zM402 1238q-56 0 -95 39
t-39 95t39 95t95 39t95 -39t39 -95t-39 -95t-95 -39zM822 1238q-56 0 -95 39t-39 95t39 95t95 39t95 -39t39 -95t-39 -95t-95 -39z" />
    <glyph glyph-name="igrave" unicode="&#xec;" 
d="M160 0v174h404v712h-344v174h556v-886h326v-174h-942zM574 1248l-190 380h212l170 -380h-192z" />
    <glyph glyph-name="iacute" unicode="&#xed;" 
d="M160 0v174h404v712h-344v174h556v-886h326v-174h-942zM549 1248l170 380h212l-190 -380h-192z" />
    <glyph glyph-name="icircumflex" unicode="&#xee;" 
d="M160 0v174h404v712h-344v174h556v-886h326v-174h-942zM324 1248l240 380h172l240 -380h-212l-114 226l-114 -226h-212z" />
    <glyph glyph-name="idieresis" unicode="&#xef;" 
d="M160 0v174h404v712h-344v174h556v-886h326v-174h-942zM442 1238q-56 0 -95 39t-39 95t39 95t95 39t95 -39t39 -95t-39 -95t-95 -39zM862 1238q-56 0 -95 39t-39 95t39 95t95 39t95 -39t39 -95t-39 -95t-95 -39z" />
    <glyph glyph-name="eth" unicode="&#xf0;" 
d="M579 -20q-223 0 -344.5 123t-121.5 347t109 347t309 123q118 0 199.5 -55.5t108.5 -156.5h17q-8 260 -119 424l-464 -135l-40 175l364 106q-109 82 -264 138l50 100q241 -74 387 -188l289 84l40 -175l-186 -54q166 -223 166 -609v-48q0 -261 -130 -403.5t-370 -142.5z
M591 164q125 0 195.5 75.5t70.5 210.5t-70.5 210.5t-195.5 75.5t-194.5 -75.5t-69.5 -210.5t69.5 -210.5t194.5 -75.5z" />
    <glyph glyph-name="ntilde" unicode="&#xf1;" 
d="M820 0v690q0 96 -50 148t-140 52q-250 0 -250 -294v-596h-212v1060h192l17 -192h23q18 212 280 212q168 0 260 -102t92 -288v-690h-212zM240 1256v40q0 250 210 250q58 0 148 -44q112 -56 146 -56q54 0 54 64v90h172v-80q0 -240 -188 -240q-63 0 -163 50q-7 4 -25.5 13.5
t-28 14t-25 11t-28 9t-24.5 2.5q-74 0 -74 -74v-50h-174z" />
    <glyph glyph-name="ograve" unicode="&#xf2;" 
d="M600 -20q-221 0 -342.5 144t-121.5 406t121.5 406t342.5 144t342.5 -144t121.5 -406t-121.5 -406t-342.5 -144zM600 170q117 0 180.5 93.5t63.5 266.5t-63.5 266.5t-180.5 93.5t-180.5 -93.5t-63.5 -266.5t63.5 -266.5t180.5 -93.5zM524 1248l-190 380h212l170 -380h-192
z" />
    <glyph glyph-name="oacute" unicode="&#xf3;" 
d="M600 -20q-221 0 -342.5 144t-121.5 406t121.5 406t342.5 144t342.5 -144t121.5 -406t-121.5 -406t-342.5 -144zM600 170q117 0 180.5 93.5t63.5 266.5t-63.5 266.5t-180.5 93.5t-180.5 -93.5t-63.5 -266.5t63.5 -266.5t180.5 -93.5zM499 1248l170 380h212l-190 -380h-192
z" />
    <glyph glyph-name="ocircumflex" unicode="&#xf4;" 
d="M600 -20q-221 0 -342.5 144t-121.5 406t121.5 406t342.5 144t342.5 -144t121.5 -406t-121.5 -406t-342.5 -144zM600 170q117 0 180.5 93.5t63.5 266.5t-63.5 266.5t-180.5 93.5t-180.5 -93.5t-63.5 -266.5t63.5 -266.5t180.5 -93.5zM274 1248l240 380h172l240 -380h-212
l-114 226l-114 -226h-212z" />
    <glyph glyph-name="otilde" unicode="&#xf5;" 
d="M600 -20q-221 0 -342.5 144t-121.5 406t121.5 406t342.5 144t342.5 -144t121.5 -406t-121.5 -406t-342.5 -144zM600 170q117 0 180.5 93.5t63.5 266.5t-63.5 266.5t-180.5 93.5t-180.5 -93.5t-63.5 -266.5t63.5 -266.5t180.5 -93.5zM250 1256v40q0 250 210 250
q58 0 148 -44q112 -56 146 -56q54 0 54 64v90h172v-80q0 -240 -188 -240q-63 0 -163 50q-7 4 -25.5 13.5t-28 14t-25 11t-28 9t-24.5 2.5q-74 0 -74 -74v-50h-174z" />
    <glyph glyph-name="odieresis" unicode="&#xf6;" 
d="M600 -20q-221 0 -342.5 144t-121.5 406t121.5 406t342.5 144t342.5 -144t121.5 -406t-121.5 -406t-342.5 -144zM600 170q117 0 180.5 93.5t63.5 266.5t-63.5 266.5t-180.5 93.5t-180.5 -93.5t-63.5 -266.5t63.5 -266.5t180.5 -93.5zM392 1238q-56 0 -95 39t-39 95t39 95
t95 39t95 -39t39 -95t-39 -95t-95 -39zM812 1238q-56 0 -95 39t-39 95t39 95t95 39t95 -39t39 -95t-39 -95t-95 -39z" />
    <glyph glyph-name="divide" unicode="&#xf7;" 
d="M100 616v186h1000v-186h-1000zM600 151q-58 0 -99.5 41t-41.5 99q0 59 41.5 100t99.5 41t99.5 -41t41.5 -100q0 -58 -41.5 -99t-99.5 -41zM600 984q-58 0 -99.5 41t-41.5 100q0 58 41.5 99t99.5 41t99.5 -41t41.5 -99t-41.5 -99.5t-99.5 -41.5z" />
    <glyph glyph-name="oslash" unicode="&#xf8;" 
d="M301 -134l-105 75l87 156q-147 142 -147 433q0 262 121.5 406t342.5 144q116 0 207 -41l89 159l115 -65l-95 -169q148 -143 148 -434q0 -262 -121.5 -406t-342.5 -144q-117 0 -211 43zM600 170q117 0 180.5 93.5t63.5 266.5q0 139 -42 229l-315 -560q50 -29 113 -29z
M397 303l312 560q-46 27 -109 27q-117 0 -180.5 -93.5t-63.5 -266.5q0 -139 41 -227z" />
    <glyph glyph-name="ugrave" unicode="&#xf9;" 
d="M496 -20q-167 0 -258.5 99t-91.5 281v700h212v-700q0 -91 52 -140.5t146 -49.5q118 0 176 75.5t58 244.5v570h212v-868l146 -22v-170l-340 -10l-15 214h-19q-25 -108 -98 -166t-180 -58zM504 1248l-190 380h212l170 -380h-192z" />
    <glyph glyph-name="uacute" unicode="&#xfa;" 
d="M496 -20q-167 0 -258.5 99t-91.5 281v700h212v-700q0 -91 52 -140.5t146 -49.5q118 0 176 75.5t58 244.5v570h212v-868l146 -22v-170l-340 -10l-15 214h-19q-25 -108 -98 -166t-180 -58zM479 1248l170 380h212l-190 -380h-192z" />
    <glyph glyph-name="ucircumflex" unicode="&#xfb;" 
d="M496 -20q-167 0 -258.5 99t-91.5 281v700h212v-700q0 -91 52 -140.5t146 -49.5q118 0 176 75.5t58 244.5v570h212v-868l146 -22v-170l-340 -10l-15 214h-19q-25 -108 -98 -166t-180 -58zM254 1248l240 380h172l240 -380h-212l-114 226l-114 -226h-212z" />
    <glyph glyph-name="udieresis" unicode="&#xfc;" 
d="M496 -20q-167 0 -258.5 99t-91.5 281v700h212v-700q0 -91 52 -140.5t146 -49.5q118 0 176 75.5t58 244.5v570h212v-868l146 -22v-170l-340 -10l-15 214h-19q-25 -108 -98 -166t-180 -58zM372 1238q-56 0 -95 39t-39 95t39 95t95 39t95 -39t39 -95t-39 -95t-95 -39z
M792 1238q-56 0 -95 39t-39 95t39 95t95 39t95 -39t39 -95t-39 -95t-95 -39z" />
    <glyph glyph-name="yacute" unicode="&#xfd;" 
d="M75 -480l-10 190l166 20q128 15 210.5 77.5t138.5 192.5h-103l-422 1060h220l346 -900h15l259 900h220l-306 -966q-89 -283 -214 -406.5t-340 -147.5zM514 1248l170 380h212l-190 -380h-192z" />
    <glyph glyph-name="thorn" unicode="&#xfe;" 
d="M168 -460v1960h212v-632h20q13 100 87.5 156t193.5 56q208 0 315.5 -142t107.5 -418q0 -266 -107 -403t-316 -137q-122 0 -196.5 56t-84.5 156h-20v-652h-212zM380 494q0 -164 64.5 -249t189.5 -85q128 0 194 91t66 269q0 187 -66 283.5t-194 96.5q-125 0 -189.5 -85
t-64.5 -249v-72z" />
    <glyph glyph-name="ydieresis" unicode="&#xff;" 
d="M75 -480l-10 190l166 20q128 15 210.5 77.5t138.5 192.5h-103l-422 1060h220l346 -900h15l259 900h220l-306 -966q-89 -283 -214 -406.5t-340 -147.5zM407 1238q-55 0 -94.5 39t-39.5 95t39 95t95 39t95 -39t39 -95t-39.5 -95t-94.5 -39zM827 1238q-55 0 -94.5 39
t-39.5 95t39 95t95 39t95 -39t39 -95t-39.5 -95t-94.5 -39z" />
    <glyph glyph-name="Amacron" unicode="&#x100;" 
d="M45 0l410 1420h290l410 -1420h-210l-93 346h-504l-93 -346h-210zM399 536h402l-192 712h-18zM213 1580v188h774v-188h-774z" />
    <glyph glyph-name="amacron" unicode="&#x101;" 
d="M818 -10l-10 234h-21q-11 -120 -101.5 -182t-241.5 -62q-166 0 -257 80t-91 226q0 168 125 258t355 90q118 0 200 -17v49q0 104 -73.5 154.5t-222.5 54.5l-254 7l20 188l214 -3q518 -7 518 -433v-442l180 -22v-170zM150 1248v188h860v-188h-860zM776 454q-68 10 -204 10
q-276 0 -276 -168q0 -70 47.5 -108t134.5 -38q140 0 219 69t79 161v74z" />
    <glyph glyph-name="Abreve" unicode="&#x102;" 
d="M45 0l410 1420h290l410 -1420h-210l-93 346h-504l-93 -346h-210zM399 536h402l-192 712h-18zM600 1570q-178 0 -276 76t-98 214h175q0 -73 52 -113.5t147 -40.5t147 40.5t52 113.5h175q0 -138 -98 -214t-276 -76z" />
    <glyph glyph-name="abreve" unicode="&#x103;" 
d="M818 -10l-10 234h-21q-11 -120 -101.5 -182t-241.5 -62q-166 0 -257 80t-91 226q0 168 125 258t355 90q118 0 200 -17v49q0 104 -73.5 154.5t-222.5 54.5l-254 7l20 188l214 -3q518 -7 518 -433v-442l180 -22v-170zM580 1238q-167 0 -258 84t-91 238v43h175v-43
q0 -89 45 -137.5t129 -48.5t129 48.5t45 137.5v43h175v-43q0 -154 -91 -238t-258 -84zM776 454q-68 10 -204 10q-276 0 -276 -168q0 -70 47.5 -108t134.5 -38q140 0 219 69t79 161v74z" />
    <glyph glyph-name="Aogonek" unicode="&#x104;" 
d="M1018 -424q-115 0 -177.5 55.5t-62.5 156.5q0 81 43.5 136.5t123.5 75.5l-93 346h-504l-93 -346h-210l410 1420h290l410 -1420h-3q-107 0 -165.5 -41t-58.5 -117q0 -47 30.5 -72.5t85.5 -25.5q30 0 82 7l-18 -170q-39 -5 -90 -5zM399 536h402l-192 712h-18z" />
    <glyph glyph-name="aogonek" unicode="&#x105;" 
d="M1020 -424q-115 0 -177.5 55.5t-62.5 156.5q0 68 29.5 114.5t84.5 62.5v27l-76 -2l-10 234h-21q-11 -120 -101.5 -182t-241.5 -62q-166 0 -257 80t-91 226q0 168 125 258t355 90q118 0 200 -17v49q0 104 -73.5 154.5t-222.5 54.5l-254 7l20 188l214 -3q518 -7 518 -433
v-442l180 -22v-170l-35 -1q-92 -6 -142.5 -49.5t-50.5 -117.5q0 -42 30.5 -65t85.5 -23q35 0 82 11l-18 -170q-46 -9 -90 -9zM776 454q-68 10 -204 10q-276 0 -276 -168q0 -70 47.5 -108t134.5 -38q140 0 219 69t79 161v74z" />
    <glyph glyph-name="Cacute" unicode="&#x106;" 
d="M748 -20q-662 0 -662 732q0 347 167 537.5t471 190.5q147 0 256 -47t159 -132l-148 -147q-45 68 -114.5 105t-150.5 37q-196 0 -311 -140.5t-115 -393.5q0 -558 482 -558q145 0 286 60l46 -176q-174 -68 -366 -68zM564 1580l220 250h282l-270 -250h-232z" />
    <glyph glyph-name="cacute" unicode="&#x107;" 
d="M702 -20q-271 0 -418.5 143t-147.5 409q0 260 140 404t398 144q155 0 265.5 -57.5t157.5 -162.5l-163 -123q-45 73 -115 113t-153 40q-150 0 -233 -91t-83 -257q0 -181 97.5 -276.5t278.5 -95.5q139 0 292 26l24 -186q-138 -30 -340 -30zM549 1248l170 380h212l-190 -380
h-192z" />
    <glyph glyph-name="Ccircumflex" unicode="&#x108;" 
d="M748 -20q-662 0 -662 732q0 347 167 537.5t471 190.5q147 0 256 -47t159 -132l-148 -147q-45 68 -114.5 105t-150.5 37q-196 0 -311 -140.5t-115 -393.5q0 -558 482 -558q145 0 286 60l46 -176q-174 -68 -366 -68zM354 1580l260 260h172l260 -260h-222l-124 144
l-124 -144h-222z" />
    <glyph glyph-name="ccircumflex" unicode="&#x109;" 
d="M702 -20q-271 0 -418.5 143t-147.5 409q0 260 140 404t398 144q155 0 265.5 -57.5t157.5 -162.5l-163 -123q-45 73 -115 113t-153 40q-150 0 -233 -91t-83 -257q0 -181 97.5 -276.5t278.5 -95.5q139 0 292 26l24 -186q-138 -30 -340 -30zM324 1248l240 380h172l240 -380
h-212l-114 226l-114 -226h-212z" />
    <glyph glyph-name="Cdotaccent" unicode="&#x10a;" 
d="M748 -20q-662 0 -662 732q0 347 167 537.5t471 190.5q147 0 256 -47t159 -132l-148 -147q-45 68 -114.5 105t-150.5 37q-196 0 -311 -140.5t-115 -393.5q0 -558 482 -558q145 0 286 60l46 -176q-174 -68 -366 -68zM695 1580q-55 0 -94.5 39t-39.5 95t39 95t95 39t95 -39
t39 -95t-39.5 -95t-94.5 -39z" />
    <glyph glyph-name="cdotaccent" unicode="&#x10b;" 
d="M702 -20q-271 0 -418.5 143t-147.5 409q0 260 140 404t398 144q155 0 265.5 -57.5t157.5 -162.5l-163 -123q-45 73 -115 113t-153 40q-150 0 -233 -91t-83 -257q0 -181 97.5 -276.5t278.5 -95.5q139 0 292 26l24 -186q-138 -30 -340 -30zM648 1238q-56 0 -95 39t-39 95
t39 95t95 39t95 -39t39 -95t-39 -95t-95 -39z" />
    <glyph glyph-name="Ccaron" unicode="&#x10c;" 
d="M748 -20q-662 0 -662 732q0 347 167 537.5t471 190.5q147 0 256 -47t159 -132l-148 -147q-45 68 -114.5 105t-150.5 37q-196 0 -311 -140.5t-115 -393.5q0 -558 482 -558q145 0 286 60l46 -176q-174 -68 -366 -68zM609 1580l-260 260h222l124 -144l124 144h222l-260 -260
h-172z" />
    <glyph glyph-name="ccaron" unicode="&#x10d;" 
d="M702 -20q-271 0 -418.5 143t-147.5 409q0 260 140 404t398 144q155 0 265.5 -57.5t157.5 -162.5l-163 -123q-45 73 -115 113t-153 40q-150 0 -233 -91t-83 -257q0 -181 97.5 -276.5t278.5 -95.5q139 0 292 26l24 -186q-138 -30 -340 -30zM564 1210l-240 380h212l114 -226
l114 226h212l-240 -380h-172z" />
    <glyph glyph-name="Dcaron" unicode="&#x10e;" 
d="M140 0v1420h344q650 0 650 -730q0 -690 -650 -690h-344zM340 190h144q440 0 440 500q0 540 -440 540h-144v-1040zM444 1580l-260 260h222l124 -144l124 144h222l-260 -260h-172z" />
    <glyph glyph-name="dcaron" unicode="&#x10f;" 
d="M519 -20q-209 0 -316 137t-107 403q0 276 107.5 418t315.5 142q119 0 193.5 -56t87.5 -156h20v632h212v-1500l-190 -10l-21 202h-21q-10 -100 -84.5 -156t-196.5 -56zM820 494v72q0 164 -64.5 249t-189.5 85q-128 0 -194 -96.5t-66 -283.5q0 -178 66 -269t194 -91
q125 0 189.5 85t64.5 249zM1122 1188l50 380h212l-90 -380h-172z" />
    <glyph glyph-name="Dcroat" unicode="&#x110;" 
d="M140 0v612h-128v190h128v618h344q650 0 650 -730q0 -690 -650 -690h-344zM340 190h144q440 0 440 500q0 540 -440 540h-144v-428h311v-190h-311v-422z" />
    <glyph glyph-name="dcroat" unicode="&#x111;" 
d="M462 1218v174h358v108h212v-108h106v-174h-106v-1218l-190 -10l-21 202h-21q-10 -100 -84.5 -156t-196.5 -56q-209 0 -316 137t-107 403q0 276 107.5 418t315.5 142q119 0 193.5 -56t87.5 -156h20v350h-358zM820 494v72q0 164 -64.5 249t-189.5 85q-128 0 -194 -96.5
t-66 -283.5q0 -178 66 -269t194 -91q125 0 189.5 85t64.5 249z" />
    <glyph glyph-name="Emacron" unicode="&#x112;" 
d="M160 0v1420h940v-190h-740v-424h560v-190h-560v-426h740v-190h-940zM243 1580v188h774v-188h-774z" />
    <glyph glyph-name="emacron" unicode="&#x113;" 
d="M702 -20q-272 0 -419 143t-147 409q0 260 125 404t353 144q216 0 333 -131t117 -377q0 -73 -6 -136h-716q28 -132 126 -201t258 -69q123 0 260 28l26 -186q-147 -28 -310 -28zM180 1248v188h860v-188h-860zM334 598h538q0 142 -67.5 219t-188.5 77q-123 0 -196 -77
t-86 -219z" />
    <glyph glyph-name="Ebreve" unicode="&#x114;" 
d="M160 0v1420h940v-190h-740v-424h560v-190h-560v-426h740v-190h-940zM630 1570q-178 0 -276 76t-98 214h175q0 -73 52 -113.5t147 -40.5t147 40.5t52 113.5h175q0 -138 -98 -214t-276 -76z" />
    <glyph glyph-name="ebreve" unicode="&#x115;" 
d="M702 -20q-272 0 -419 143t-147 409q0 260 125 404t353 144q216 0 333 -131t117 -377q0 -73 -6 -136h-716q28 -132 126 -201t258 -69q123 0 260 28l26 -186q-147 -28 -310 -28zM610 1238q-167 0 -258 84t-91 238v43h175v-43q0 -89 45 -137.5t129 -48.5t129 48.5t45 137.5
v43h175v-43q0 -154 -91 -238t-258 -84zM334 598h538q0 142 -67.5 219t-188.5 77q-123 0 -196 -77t-86 -219z" />
    <glyph glyph-name="Edotaccent" unicode="&#x116;" 
d="M160 0v1420h940v-190h-740v-424h560v-190h-560v-426h740v-190h-940zM630 1580q-56 0 -95 39t-39 95t39 95t95 39t95 -39t39 -95t-39 -95t-95 -39z" />
    <glyph glyph-name="edotaccent" unicode="&#x117;" 
d="M702 -20q-272 0 -419 143t-147 409q0 260 125 404t353 144q216 0 333 -131t117 -377q0 -73 -6 -136h-716q28 -132 126 -201t258 -69q123 0 260 28l26 -186q-147 -28 -310 -28zM334 598h538q0 142 -67.5 219t-188.5 77q-123 0 -196 -77t-86 -219zM608 1238q-56 0 -95 39
t-39 95t39 95t95 39t95 -39t39 -95t-39 -95t-95 -39z" />
    <glyph glyph-name="Eogonek" unicode="&#x118;" 
d="M966 -424q-115 0 -177.5 55.5t-62.5 156.5q0 74 29.5 124t84.5 68v20h-680v1420h940v-190h-740v-424h560v-190h-560v-426h740v-190q-107 0 -165.5 -44t-58.5 -124q0 -42 30.5 -65t85.5 -23q35 0 82 11l-18 -170q-46 -9 -90 -9z" />
    <glyph glyph-name="eogonek" unicode="&#x119;" 
d="M878 -424q-115 0 -177.5 50t-62.5 142q0 73 30 123.5t84 68.5v21q-18 -1 -50 -1q-272 0 -419 143t-147 409q0 260 125 404t353 144q216 0 333 -131t117 -377q0 -73 -6 -136h-716q28 -132 126 -201t258 -69q123 0 260 28l26 -186q-46 -11 -79.5 -22.5t-69.5 -31.5
t-55.5 -51t-19.5 -71q0 -34 27 -61t89 -27q37 0 82 11l-18 -170q-51 -9 -90 -9zM334 598h538q0 142 -67.5 219t-188.5 77q-123 0 -196 -77t-86 -219z" />
    <glyph glyph-name="Ecaron" unicode="&#x11a;" 
d="M160 0v1420h940v-190h-740v-424h560v-190h-560v-426h740v-190h-940zM544 1580l-260 260h222l124 -144l124 144h222l-260 -260h-172z" />
    <glyph glyph-name="ecaron" unicode="&#x11b;" 
d="M702 -20q-272 0 -419 143t-147 409q0 260 125 404t353 144q216 0 333 -131t117 -377q0 -73 -6 -136h-716q28 -132 126 -201t258 -69q123 0 260 28l26 -186q-147 -28 -310 -28zM524 1210l-240 380h212l114 -226l114 226h212l-240 -380h-172zM334 598h538q0 142 -67.5 219
t-188.5 77q-123 0 -196 -77t-86 -219z" />
    <glyph glyph-name="Gcircumflex" unicode="&#x11c;" 
d="M702 -20q-636 0 -636 732q0 346 164.5 537t463.5 191q149 0 261 -46.5t165 -131.5l-149 -148q-47 68 -116.5 105t-148.5 37q-202 0 -314 -140t-112 -394q0 -558 446 -558q83 0 174 20v336h-290v190h480v-670q-187 -60 -388 -60zM334 1580l260 260h172l260 -260h-222
l-124 144l-124 -144h-222z" />
    <glyph glyph-name="gcircumflex" unicode="&#x11d;" 
d="M182 -478l-10 194l340 10q158 4 232 87t76 249v130h-20q-10 -100 -84.5 -156t-196.5 -56q-209 0 -316 137t-107 403q0 276 107.5 418t315.5 142q124 0 200.5 -56t90.5 -156h13l17 192h192v-966q0 -284 -129 -418.5t-411 -143.5zM820 566q0 164 -64.5 249t-189.5 85
q-128 0 -194 -96.5t-66 -283.5q0 -178 66 -269t194 -91q125 0 189.5 85t64.5 249v72zM254 1248l240 380h172l240 -380h-212l-114 226l-114 -226h-212z" />
    <glyph glyph-name="Gbreve" unicode="&#x11e;" 
d="M702 -20q-636 0 -636 732q0 346 164.5 537t463.5 191q149 0 261 -46.5t165 -131.5l-149 -148q-47 68 -116.5 105t-148.5 37q-202 0 -314 -140t-112 -394q0 -558 446 -558q83 0 174 20v336h-290v190h480v-670q-187 -60 -388 -60zM675 1570q-178 0 -276 76t-98 214h175
q0 -73 52 -113.5t147 -40.5t147 40.5t52 113.5h175q0 -138 -98 -214t-276 -76z" />
    <glyph glyph-name="gbreve" unicode="&#x11f;" 
d="M182 -478l-10 194l340 10q158 4 232 87t76 249v130h-20q-10 -100 -84.5 -156t-196.5 -56q-209 0 -316 137t-107 403q0 276 107.5 418t315.5 142q124 0 200.5 -56t90.5 -156h13l17 192h192v-966q0 -284 -129 -418.5t-411 -143.5zM820 566q0 164 -64.5 249t-189.5 85
q-128 0 -194 -96.5t-66 -283.5q0 -178 66 -269t194 -91q125 0 189.5 85t64.5 249v72zM580 1238q-167 0 -258 84t-91 238v43h175v-43q0 -89 45 -137.5t129 -48.5t129 48.5t45 137.5v43h175v-43q0 -154 -91 -238t-258 -84z" />
    <glyph glyph-name="Gdotaccent" unicode="&#x120;" 
d="M702 -20q-636 0 -636 732q0 346 164.5 537t463.5 191q149 0 261 -46.5t165 -131.5l-149 -148q-47 68 -116.5 105t-148.5 37q-202 0 -314 -140t-112 -394q0 -558 446 -558q83 0 174 20v336h-290v190h480v-670q-187 -60 -388 -60zM675 1580q-55 0 -94.5 39t-39.5 95t39 95
t95 39t95 -39t39 -95t-39.5 -95t-94.5 -39z" />
    <glyph glyph-name="gdotaccent" unicode="&#x121;" 
d="M182 -478l-10 194l340 10q158 4 232 87t76 249v130h-20q-10 -100 -84.5 -156t-196.5 -56q-209 0 -316 137t-107 403q0 276 107.5 418t315.5 142q124 0 200.5 -56t90.5 -156h13l17 192h192v-966q0 -284 -129 -418.5t-411 -143.5zM820 566q0 164 -64.5 249t-189.5 85
q-128 0 -194 -96.5t-66 -283.5q0 -178 66 -269t194 -91q125 0 189.5 85t64.5 249v72zM578 1238q-56 0 -95 39t-39 95t39 95t95 39t95 -39t39 -95t-39 -95t-95 -39z" />
    <glyph glyph-name="uni0122" unicode="&#x122;" 
d="M702 -20q-636 0 -636 732q0 346 164.5 537t463.5 191q149 0 261 -46.5t165 -131.5l-149 -148q-47 68 -116.5 105t-148.5 37q-202 0 -314 -140t-112 -394q0 -558 446 -558q83 0 174 20v336h-290v190h480v-670q-187 -60 -388 -60zM510 -480l77 340h222l-117 -340h-182z" />
    <glyph glyph-name="uni0123" unicode="&#x123;" 
d="M182 -478l-10 194l340 10q158 4 232 87t76 249v130h-20q-10 -100 -84.5 -156t-196.5 -56q-209 0 -316 137t-107 403q0 276 107.5 418t315.5 142q124 0 200.5 -56t90.5 -156h13l17 192h192v-966q0 -284 -129 -418.5t-411 -143.5zM820 566q0 164 -64.5 249t-189.5 85
q-128 0 -194 -96.5t-66 -283.5q0 -178 66 -269t194 -91q125 0 189.5 85t64.5 249v72zM482 1208l90 380h172l-50 -380h-212z" />
    <glyph glyph-name="Hcircumflex" unicode="&#x124;" 
d="M860 0v612h-520v-612h-200v1420h200v-618h520v618h200v-1420h-200zM259 1580l260 260h172l260 -260h-222l-124 144l-124 -144h-222z" />
    <glyph glyph-name="hcircumflex" unicode="&#x125;" 
d="M820 0v690q0 100 -50 155t-140 55q-250 0 -250 -304v-596h-212v1500h212v-632h20q18 212 280 212q168 0 260 -102t92 -288v-690h-212zM-67 1660l260 260h172l260 -260h-222l-124 144l-124 -144h-222z" />
    <glyph glyph-name="Hbar" unicode="&#x126;" 
d="M42 1002v190h98v228h200v-228h520v228h200v-228h98v-190h-98v-1002h-200v612h-520v-612h-200v1002h-98zM340 802h520v200h-520v-200z" />
    <glyph glyph-name="hbar" unicode="&#x127;" 
d="M22 1218v174h146v108h212v-108h358v-174h-358v-350h20q18 212 280 212q168 0 260 -102t92 -288v-690h-212v690q0 100 -50 155t-140 55q-250 0 -250 -304v-596h-212v1218h-146z" />
    <glyph glyph-name="Itilde" unicode="&#x128;" 
d="M168 0v190h331v1040h-331v190h864v-190h-333v-1040h333v-190h-864zM225 1566v50q0 250 210 250q70 0 188 -49q17 -7 41 -17t35.5 -15t25.5 -10t24 -7t20 -2q54 0 54 64v60h172v-50q0 -240 -188 -240q-62 0 -193 55q-107 45 -141 45q-74 0 -74 -74v-60h-174z" />
    <glyph glyph-name="itilde" unicode="&#x129;" 
d="M160 0v174h404v712h-344v174h556v-886h326v-174h-942zM300 1256v40q0 250 210 250q58 0 148 -44q112 -56 146 -56q54 0 54 64v90h172v-80q0 -240 -188 -240q-63 0 -163 50q-7 4 -25.5 13.5t-28 14t-25 11t-28 9t-24.5 2.5q-74 0 -74 -74v-50h-174z" />
    <glyph glyph-name="Imacron" unicode="&#x12a;" 
d="M168 0v190h331v1040h-331v190h864v-190h-333v-1040h333v-190h-864zM213 1580v188h774v-188h-774z" />
    <glyph glyph-name="imacron" unicode="&#x12b;" 
d="M160 0v174h404v712h-344v174h556v-886h326v-174h-942zM220 1248v188h860v-188h-860z" />
    <glyph glyph-name="Ibreve" unicode="&#x12c;" 
d="M168 0v190h331v1040h-331v190h864v-190h-333v-1040h333v-190h-864zM600 1570q-178 0 -276 76t-98 214h175q0 -73 52 -113.5t147 -40.5t147 40.5t52 113.5h175q0 -138 -98 -214t-276 -76z" />
    <glyph glyph-name="ibreve" unicode="&#x12d;" 
d="M160 0v174h404v712h-344v174h556v-886h326v-174h-942zM650 1238q-167 0 -258 84t-91 238v43h175v-43q0 -89 45 -137.5t129 -48.5t129 48.5t45 137.5v43h175v-43q0 -154 -91 -238t-258 -84z" />
    <glyph glyph-name="Iogonek" unicode="&#x12e;" 
d="M636 -424q-115 0 -177.5 55.5t-62.5 156.5q0 74 29.5 124t84.5 68v20h-342v190h331v1040h-331v190h864v-190h-333v-1040h333v-190h-262q-107 0 -165.5 -44t-58.5 -124q0 -42 30.5 -65t85.5 -23q35 0 82 11l-18 -170q-47 -9 -90 -9z" />
    <glyph glyph-name="iogonek" unicode="&#x12f;" 
d="M670 -424q-115 0 -177.5 55.5t-62.5 156.5q0 74 29.5 124t84.5 68v20h-384v174h404v712h-344v174h556v-886h326v-174h-298q-107 0 -165.5 -44t-58.5 -124q0 -42 30.5 -65t85.5 -23q35 0 82 11l-18 -170q-46 -9 -90 -9zM663 1228q-61 0 -104.5 43t-43.5 105t43.5 105
t104.5 43t104.5 -43t43.5 -105t-43.5 -105t-104.5 -43z" />
    <glyph glyph-name="Idotaccent" unicode="&#x130;" 
d="M168 0v190h331v1040h-331v190h864v-190h-333v-1040h333v-190h-864zM600 1580q-56 0 -95 39t-39 95t39 95t95 39t95 -39t39 -95t-39 -95t-95 -39z" />
    <glyph glyph-name="dotlessi" unicode="&#x131;" 
d="M160 0v174h404v712h-344v174h556v-886h326v-174h-942z" />
    <glyph glyph-name="IJ" unicode="&#x132;" 
d="M634 -20q-408 0 -408 376h200q0 -196 213 -196q243 0 243 276v794h-192v190h392v-984q0 -456 -448 -456zM55 497v190h176v543h-176v190h524v-190h-158v-543h178v-190h-544z" />
    <glyph glyph-name="ij" unicode="&#x133;" 
d="M252 -480l-10 188l200 18q161 14 233.5 93.5t72.5 242.5v998h212v-966q0 -281 -127 -411.5t-411 -150.5zM244 0v1060h212v-1060h-212zM348 1228q-62 0 -105 43t-43 105t43 105t105 43t105 -43t43 -105t-43 -105t-105 -43zM852 1228q-62 0 -105 43t-43 105t43 105t105 43
t105 -43t43 -105t-43 -105t-105 -43z" />
    <glyph glyph-name="Jcircumflex" unicode="&#x134;" 
d="M574 -20q-233 0 -360.5 130t-127.5 366h200q0 -150 76.5 -233t216.5 -83q136 0 209.5 82t73.5 234v754h-372v190h572v-944q0 -236 -129 -366t-359 -130zM449 1580l260 260h172l260 -260h-222l-124 144l-124 -144h-222z" />
    <glyph glyph-name="jcircumflex" unicode="&#x135;" 
d="M180 -480l-10 188l200 18q161 14 233.5 93.5t72.5 242.5v824h-412v174h624v-966q0 -281 -127 -411.5t-411 -150.5zM456 1248l240 380h172l240 -380h-212l-114 226l-114 -226h-212z" />
    <glyph glyph-name="uni0136" unicode="&#x136;" 
d="M150 0v1420h200v-768q134 12 239.5 81t169.5 176.5t96.5 237t32.5 273.5h206q0 -222 -74.5 -420t-211.5 -334l354 -666h-242l-281 541q-134 -71 -289 -86v-455h-200zM435 -480l77 340h222l-117 -340h-182z" />
    <glyph glyph-name="uni0137" unicode="&#x137;" 
d="M160 0v1500h212v-908h58q198 0 292.5 105.5t129.5 362.5h220q-49 -390 -244 -547l312 -513h-262l-245 419q-73 -17 -153 -17h-108v-402h-212zM435 -480l77 340h222l-117 -340h-182z" />
    <glyph glyph-name="kgreenlandic" unicode="&#x138;" 
d="M160 0v1060h212v-468h58q198 0 292.5 105.5t129.5 362.5h220q-49 -390 -244 -547l312 -513h-262l-245 419q-73 -17 -153 -17h-108v-402h-212z" />
    <glyph glyph-name="Lacute" unicode="&#x139;" 
d="M160 0v1420h200v-1230h740v-190h-940zM129 1580l220 250h282l-270 -250h-232z" />
    <glyph glyph-name="lacute" unicode="&#x13a;" 
d="M758 -20q-184 0 -266 99.5t-82 320.5v926h-312v174h524v-1090q0 -67 8 -109t31.5 -73.5t66 -44.5t110.5 -13q83 0 212 38l24 -186q-151 -42 -316 -42zM385 1660l220 250h282l-270 -250h-232z" />
    <glyph glyph-name="uni013B" unicode="&#x13b;" 
d="M160 0v1420h200v-1230h740v-190h-940zM435 -480l77 340h222l-117 -340h-182z" />
    <glyph glyph-name="uni013C" unicode="&#x13c;" 
d="M758 -20q-184 0 -266 99.5t-82 320.5v926h-312v174h524v-1090q0 -67 8 -109t31.5 -73.5t66 -44.5t110.5 -13q83 0 212 38l24 -186q-151 -42 -316 -42zM495 -480l77 340h222l-117 -340h-182z" />
    <glyph glyph-name="Lcaron" unicode="&#x13d;" 
d="M160 0v1420h200v-1230h740v-190h-940zM762 1188l50 380h212l-90 -380h-172z" />
    <glyph glyph-name="lcaron" unicode="&#x13e;" 
d="M758 -20q-184 0 -266 99.5t-82 320.5v926h-312v174h524v-1090q0 -67 8 -109t31.5 -73.5t66 -44.5t110.5 -13q83 0 212 38l24 -186q-151 -42 -316 -42zM772 1188l50 380h212l-90 -380h-172z" />
    <glyph glyph-name="Ldot" unicode="&#x13f;" 
d="M160 0v1420h200v-1230h740v-190h-940zM800 782q-62 0 -105 43t-43 105t43 105t105 43t105 -43t43 -105t-43 -105t-105 -43z" />
    <glyph glyph-name="ldot" unicode="&#x140;" 
d="M758 -20q-184 0 -266 99.5t-82 320.5v926h-312v174h524v-1090q0 -67 8 -109t31.5 -73.5t66 -44.5t110.5 -13q83 0 212 38l24 -186q-151 -42 -316 -42zM916 862q-62 0 -105 43t-43 105t43 105t105 43t105 -43t43 -105t-43 -105t-105 -43z" />
    <glyph glyph-name="Lslash" unicode="&#x141;" 
d="M58 455v185l202 105v675h200v-571l404 211v-185l-404 -211v-474h640v-190h-840v560z" />
    <glyph glyph-name="lslash" unicode="&#x142;" 
d="M128 455v185l282 147v539h-312v174h524v-603l312 163v-185l-312 -163v-302q0 -67 8 -109t31.5 -73.5t66 -44.5t110.5 -13q83 0 212 38l24 -186q-151 -42 -316 -42q-184 0 -266 99.5t-82 320.5v202z" />
    <glyph glyph-name="Nacute" unicode="&#x143;" 
d="M800 0l-440 1080h-20v-1080h-192v1420h252l440 -1080h20v1080h192v-1420h-252zM469 1580l220 250h282l-270 -250h-232z" />
    <glyph glyph-name="nacute" unicode="&#x144;" 
d="M820 0v690q0 96 -50 148t-140 52q-250 0 -250 -294v-596h-212v1060h192l17 -192h23q18 212 280 212q168 0 260 -102t92 -288v-690h-212zM489 1248l170 380h212l-190 -380h-192z" />
    <glyph glyph-name="uni0145" unicode="&#x145;" 
d="M800 0l-440 1080h-20v-1080h-192v1420h252l440 -1080h20v1080h192v-1420h-252zM415 -480l77 340h222l-117 -340h-182z" />
    <glyph glyph-name="uni0146" unicode="&#x146;" 
d="M820 0v690q0 96 -50 148t-140 52q-250 0 -250 -294v-596h-212v1060h192l17 -192h23q18 212 280 212q168 0 260 -102t92 -288v-690h-212zM415 -480l77 340h222l-117 -340h-182z" />
    <glyph glyph-name="Ncaron" unicode="&#x147;" 
d="M800 0l-440 1080h-20v-1080h-192v1420h252l440 -1080h20v1080h192v-1420h-252zM514 1580l-260 260h222l124 -144l124 144h222l-260 -260h-172z" />
    <glyph glyph-name="ncaron" unicode="&#x148;" 
d="M820 0v690q0 96 -50 148t-140 52q-250 0 -250 -294v-596h-212v1060h192l17 -192h23q18 212 280 212q168 0 260 -102t92 -288v-690h-212zM504 1210l-240 380h212l114 -226l114 226h212l-240 -380h-172z" />
    <glyph glyph-name="napostrophe" unicode="&#x149;" 
d="M820 0v690q0 96 -50 148t-140 52q-250 0 -250 -294v-596h-212v1060h192l17 -192h23q18 212 280 212q168 0 260 -102t92 -288v-690h-212zM0 1248l70 380h232l-140 -380h-162z" />
    <glyph glyph-name="Eng" unicode="&#x14a;" 
d="M593 -480l-10 168l120 18q156 24 156 206v88h-59l-440 1080h-20v-1080h-192v1420h252l440 -1080h20v1080h192v-1516q0 -163 -86 -260.5t-243 -111.5z" />
    <glyph glyph-name="eng" unicode="&#x14b;" 
d="M464 -480l-10 188l130 18q124 15 180 94t56 242v628q0 100 -50 155t-140 55q-250 0 -250 -304v-596h-212v1060h192l17 -192h23q18 212 280 212q168 0 260 -102t92 -288v-596q0 -281 -110 -410t-358 -152z" />
    <glyph glyph-name="Omacron" unicode="&#x14c;" 
d="M600 -20q-524 0 -524 720q0 740 524 740t524 -740q0 -720 -524 -720zM600 164q314 0 314 536q0 556 -314 556t-314 -556q0 -536 314 -536zM213 1580v188h774v-188h-774z" />
    <glyph glyph-name="omacron" unicode="&#x14d;" 
d="M600 -20q-221 0 -342.5 144t-121.5 406t121.5 406t342.5 144t342.5 -144t121.5 -406t-121.5 -406t-342.5 -144zM600 170q117 0 180.5 93.5t63.5 266.5t-63.5 266.5t-180.5 93.5t-180.5 -93.5t-63.5 -266.5t63.5 -266.5t180.5 -93.5zM170 1248v188h860v-188h-860z" />
    <glyph glyph-name="Obreve" unicode="&#x14e;" 
d="M600 -20q-524 0 -524 720q0 740 524 740t524 -740q0 -720 -524 -720zM600 164q314 0 314 536q0 556 -314 556t-314 -556q0 -536 314 -536zM600 1570q-178 0 -276 76t-98 214h175q0 -73 52 -113.5t147 -40.5t147 40.5t52 113.5h175q0 -138 -98 -214t-276 -76z" />
    <glyph glyph-name="obreve" unicode="&#x14f;" 
d="M600 -20q-221 0 -342.5 144t-121.5 406t121.5 406t342.5 144t342.5 -144t121.5 -406t-121.5 -406t-342.5 -144zM600 170q117 0 180.5 93.5t63.5 266.5t-63.5 266.5t-180.5 93.5t-180.5 -93.5t-63.5 -266.5t63.5 -266.5t180.5 -93.5zM600 1238q-167 0 -258 84t-91 238v43
h175v-43q0 -89 45 -137.5t129 -48.5t129 48.5t45 137.5v43h175v-43q0 -154 -91 -238t-258 -84z" />
    <glyph glyph-name="Ohungarumlaut" unicode="&#x150;" 
d="M600 -20q-524 0 -524 720q0 740 524 740t524 -740q0 -720 -524 -720zM600 164q314 0 314 536q0 556 -314 556t-314 -556q0 -536 314 -536zM249 1580l160 250h282l-200 -250h-242zM659 1580l160 250h282l-200 -250h-242z" />
    <glyph glyph-name="ohungarumlaut" unicode="&#x151;" 
d="M600 -20q-221 0 -342.5 144t-121.5 406t121.5 406t342.5 144t342.5 -144t121.5 -406t-121.5 -406t-342.5 -144zM600 170q117 0 180.5 93.5t63.5 266.5t-63.5 266.5t-180.5 93.5t-180.5 -93.5t-63.5 -266.5t63.5 -266.5t180.5 -93.5zM289 1248l150 380h222l-170 -380h-202
zM669 1248l150 380h222l-170 -380h-202z" />
    <glyph glyph-name="OE" unicode="&#x152;" 
d="M520 -20q-212 0 -328 188.5t-116 531.5q0 352 116.5 546t327.5 194q37 0 93.5 -10t86.5 -10h400v-180h-320v-439h260v-180h-260v-441h320v-180h-400q-20 0 -79.5 -10t-100.5 -10zM530 164q40 0 70 6v1064q-35 22 -80 22q-112 0 -173 -145.5t-61 -410.5q0 -256 64 -396
t180 -140z" />
    <glyph glyph-name="oe" unicode="&#x153;" 
d="M364 -20q-344 0 -344 550t344 550q179 0 252 -188q82 188 253 188q145 0 225 -133t80 -375q0 -76 -6 -136h-459q20 -135 91.5 -207.5t185.5 -72.5q57 0 120 13l26 -171q-87 -18 -170 -18q-235 0 -338 208q-72 -208 -260 -208zM364 170q144 0 144 360t-144 360
q-162 0 -162 -360t162 -360zM703 588h289q0 161 -34.5 233.5t-111.5 72.5q-71 0 -105 -73t-38 -233z" />
    <glyph glyph-name="Racute" unicode="&#x154;" 
d="M140 0v1420h488q221 0 341.5 -112.5t120.5 -317.5q0 -152 -62 -257t-179 -154l293 -579h-240l-257 540h-17h-288v-540h-200zM340 730h288q119 0 185.5 63t66.5 177q0 124 -66 192t-186 68h-288v-500zM429 1580l220 250h282l-270 -250h-232z" />
    <glyph glyph-name="racute" unicode="&#x155;" 
d="M528 456v-282h260v-174h-708v174h236v712h-196v174h368l36 -272h24q18 292 292 292q164 0 238 -94t74 -304h-210q0 115 -34.5 166.5t-111.5 51.5q-133 0 -200.5 -114t-67.5 -330zM499 1248l170 380h212l-190 -380h-192z" />
    <glyph glyph-name="uni0156" unicode="&#x156;" 
d="M140 0v1420h488q221 0 341.5 -112.5t120.5 -317.5q0 -152 -62 -257t-179 -154l293 -579h-240l-257 540h-17h-288v-540h-200zM340 730h288q119 0 185.5 63t66.5 177q0 124 -66 192t-186 68h-288v-500zM425 -480l77 340h222l-117 -340h-182z" />
    <glyph glyph-name="uni0157" unicode="&#x157;" 
d="M528 456v-282h260v-174h-708v174h236v712h-196v174h368l36 -272h24q18 292 292 292q164 0 238 -94t74 -304h-210q0 115 -34.5 166.5t-111.5 51.5q-133 0 -200.5 -114t-67.5 -330zM245 -480l77 340h222l-117 -340h-182z" />
    <glyph glyph-name="Rcaron" unicode="&#x158;" 
d="M140 0v1420h488q221 0 341.5 -112.5t120.5 -317.5q0 -152 -62 -257t-179 -154l293 -579h-240l-257 540h-17h-288v-540h-200zM340 730h288q119 0 185.5 63t66.5 177q0 124 -66 192t-186 68h-288v-500zM474 1580l-260 260h222l124 -144l124 144h222l-260 -260h-172z" />
    <glyph glyph-name="rcaron" unicode="&#x159;" 
d="M528 456v-282h260v-174h-708v174h236v712h-196v174h368l36 -272h24q18 292 292 292q164 0 238 -94t74 -304h-210q0 115 -34.5 166.5t-111.5 51.5q-133 0 -200.5 -114t-67.5 -330zM514 1210l-240 380h212l114 -226l114 226h212l-240 -380h-172z" />
    <glyph glyph-name="Sacute" unicode="&#x15a;" 
d="M551 -20q-242 0 -422 78l26 202q222 -96 412 -96q276 0 276 198q0 127 -130 186l-246 112q-150 68 -225 162t-75 228q0 186 112 288t317 102q143 0 253 -42.5t212 -136.5l-140 -142q-89 72 -165.5 104.5t-158.5 32.5q-104 0 -160 -50t-56 -146q0 -67 35.5 -111t110.5 -79
l208 -98q165 -78 243.5 -172t78.5 -234q0 -386 -506 -386zM489 1580l220 250h282l-270 -250h-232z" />
    <glyph glyph-name="sacute" unicode="&#x15b;" 
d="M518 -20q-234 0 -362 30l24 192q204 -32 338 -32q160 0 233 31.5t73 100.5q0 46 -24.5 70t-79.5 38l-244 62q-164 41 -234 101.5t-70 176.5q0 174 133.5 252t430.5 78q146 0 280 -20l-22 -184q-151 14 -264 14q-179 0 -258.5 -30.5t-79.5 -99.5q0 -44 30 -65t104 -39
l196 -48q171 -42 246.5 -110t75.5 -192q0 -171 -125 -248.5t-401 -77.5zM529 1248l170 380h212l-190 -380h-192z" />
    <glyph glyph-name="Scircumflex" unicode="&#x15c;" 
d="M551 -20q-242 0 -422 78l26 202q222 -96 412 -96q276 0 276 198q0 127 -130 186l-246 112q-150 68 -225 162t-75 228q0 186 112 288t317 102q143 0 253 -42.5t212 -136.5l-140 -142q-89 72 -165.5 104.5t-158.5 32.5q-104 0 -160 -50t-56 -146q0 -67 35.5 -111t110.5 -79
l208 -98q165 -78 243.5 -172t78.5 -234q0 -386 -506 -386zM279 1580l260 260h172l260 -260h-222l-124 144l-124 -144h-222z" />
    <glyph glyph-name="scircumflex" unicode="&#x15d;" 
d="M518 -20q-234 0 -362 30l24 192q204 -32 338 -32q160 0 233 31.5t73 100.5q0 46 -24.5 70t-79.5 38l-244 62q-164 41 -234 101.5t-70 176.5q0 174 133.5 252t430.5 78q146 0 280 -20l-22 -184q-151 14 -264 14q-179 0 -258.5 -30.5t-79.5 -99.5q0 -44 30 -65t104 -39
l196 -48q171 -42 246.5 -110t75.5 -192q0 -171 -125 -248.5t-401 -77.5zM304 1248l240 380h172l240 -380h-212l-114 226l-114 -226h-212z" />
    <glyph glyph-name="Scedilla" unicode="&#x15e;" 
d="M449 -480v150q188 0 188 72q0 68 -162 68l60 170q-232 3 -406 78l26 202q222 -96 412 -96q276 0 276 198q0 127 -130 186l-246 112q-150 68 -225 162t-75 228q0 186 112 288t317 102q143 0 253 -42.5t212 -136.5l-140 -142q-89 72 -165.5 104.5t-158.5 32.5
q-104 0 -160 -50t-56 -146q0 -67 35.5 -111t110.5 -79l208 -98q165 -78 243.5 -172t78.5 -234q0 -334 -379 -379l-23 -87q172 -36 172 -167q0 -213 -378 -213z" />
    <glyph glyph-name="scedilla" unicode="&#x15f;" 
d="M429 -480v150q188 0 188 72q0 68 -162 68l60 170q-232 0 -359 30l24 192q204 -32 338 -32q160 0 233 31.5t73 100.5q0 46 -24.5 70t-79.5 38l-244 62q-164 41 -234 101.5t-70 176.5q0 174 133.5 252t430.5 78q146 0 280 -20l-22 -184q-151 14 -264 14
q-179 0 -258.5 -30.5t-79.5 -99.5q0 -44 30 -65t104 -39l196 -48q171 -42 246.5 -110t75.5 -192q0 -148 -93 -225.5t-293 -94.5l-23 -86q172 -36 172 -167q0 -213 -378 -213z" />
    <glyph glyph-name="Scaron" unicode="&#x160;" 
d="M551 -20q-242 0 -422 78l26 202q222 -96 412 -96q276 0 276 198q0 127 -130 186l-246 112q-150 68 -225 162t-75 228q0 186 112 288t317 102q143 0 253 -42.5t212 -136.5l-140 -142q-89 72 -165.5 104.5t-158.5 32.5q-104 0 -160 -50t-56 -146q0 -67 35.5 -111t110.5 -79
l208 -98q165 -78 243.5 -172t78.5 -234q0 -386 -506 -386zM534 1580l-260 260h222l124 -144l124 144h222l-260 -260h-172z" />
    <glyph glyph-name="scaron" unicode="&#x161;" 
d="M518 -20q-234 0 -362 30l24 192q204 -32 338 -32q160 0 233 31.5t73 100.5q0 46 -24.5 70t-79.5 38l-244 62q-164 41 -234 101.5t-70 176.5q0 174 133.5 252t430.5 78q146 0 280 -20l-22 -184q-151 14 -264 14q-179 0 -258.5 -30.5t-79.5 -99.5q0 -44 30 -65t104 -39
l196 -48q171 -42 246.5 -110t75.5 -192q0 -171 -125 -248.5t-401 -77.5zM544 1210l-240 380h212l114 -226l114 226h212l-240 -380h-172z" />
    <glyph glyph-name="uni0162" unicode="&#x162;" 
d="M500 0v1230h-420v190h1040v-190h-420v-1230h-97l62 -5l-25 -95q172 -36 172 -167q0 -213 -378 -213v150q188 0 188 72q0 68 -162 68l67 190h-27z" />
    <glyph glyph-name="uni0163" unicode="&#x163;" 
d="M792 -20q-21 0 -61 2l-21 -82q172 -36 172 -167q0 -213 -378 -213v150q188 0 188 72q0 68 -162 68l67 191q-136 35 -198.5 131.5t-62.5 267.5v486h-266v174h266v320h212v-320h482v-174h-482v-476q0 -127 62 -183.5t202 -56.5q74 0 234 20l24 -186q-141 -24 -278 -24z" />
    <glyph glyph-name="Tcaron" unicode="&#x164;" 
d="M500 0v1230h-420v190h1040v-190h-420v-1230h-200zM514 1580l-260 260h222l124 -144l124 144h222l-260 -260h-172z" />
    <glyph glyph-name="tcaron" unicode="&#x165;" 
d="M792 -20q-241 0 -348.5 99.5t-107.5 320.5v486h-266v174h266v320h212v-320h482v-174h-482v-476q0 -127 62 -183.5t202 -56.5q74 0 234 20l24 -186q-141 -24 -278 -24zM712 1228l50 380h212l-90 -380h-172z" />
    <glyph glyph-name="Tbar" unicode="&#x166;" 
d="M192 587v190h308v453h-420v190h1040v-190h-420v-453h308v-190h-308v-587h-200v587h-308z" />
    <glyph glyph-name="tbar" unicode="&#x167;" 
d="M70 496v174h266v216h-266v174h266v320h212v-320h482v-174h-482v-216h482v-174h-482v-86q0 -127 62 -183.5t202 -56.5q74 0 234 20l24 -186q-141 -24 -278 -24q-241 0 -348.5 99.5t-107.5 320.5v96h-266z" />
    <glyph glyph-name="Utilde" unicode="&#x168;" 
d="M596 -20q-456 0 -456 476v964h200v-964q0 -144 63 -215t197 -71q260 0 260 286v964h200v-964q0 -237 -117.5 -356.5t-346.5 -119.5zM225 1566v50q0 250 210 250q70 0 188 -49q17 -7 41 -17t35.5 -15t25.5 -10t24 -7t20 -2q54 0 54 64v60h172v-50q0 -240 -188 -240
q-62 0 -193 55q-107 45 -141 45q-74 0 -74 -74v-60h-174z" />
    <glyph glyph-name="utilde" unicode="&#x169;" 
d="M496 -20q-167 0 -258.5 99t-91.5 281v700h212v-700q0 -91 52 -140.5t146 -49.5q118 0 176 75.5t58 244.5v570h212v-868l146 -22v-170l-340 -10l-15 214h-19q-25 -108 -98 -166t-180 -58zM230 1256v40q0 250 210 250q58 0 148 -44q112 -56 146 -56q54 0 54 64v90h172v-80
q0 -240 -188 -240q-63 0 -163 50q-7 4 -25.5 13.5t-28 14t-25 11t-28 9t-24.5 2.5q-74 0 -74 -74v-50h-174z" />
    <glyph glyph-name="Umacron" unicode="&#x16a;" 
d="M596 -20q-456 0 -456 476v964h200v-964q0 -144 63 -215t197 -71q260 0 260 286v964h200v-964q0 -237 -117.5 -356.5t-346.5 -119.5zM213 1580v188h774v-188h-774z" />
    <glyph glyph-name="umacron" unicode="&#x16b;" 
d="M496 -20q-167 0 -258.5 99t-91.5 281v700h212v-700q0 -91 52 -140.5t146 -49.5q118 0 176 75.5t58 244.5v570h212v-868l146 -22v-170l-340 -10l-15 214h-19q-25 -108 -98 -166t-180 -58zM150 1248v188h860v-188h-860z" />
    <glyph glyph-name="Ubreve" unicode="&#x16c;" 
d="M596 -20q-456 0 -456 476v964h200v-964q0 -144 63 -215t197 -71q260 0 260 286v964h200v-964q0 -237 -117.5 -356.5t-346.5 -119.5zM600 1570q-178 0 -276 76t-98 214h175q0 -73 52 -113.5t147 -40.5t147 40.5t52 113.5h175q0 -138 -98 -214t-276 -76z" />
    <glyph glyph-name="ubreve" unicode="&#x16d;" 
d="M496 -20q-167 0 -258.5 99t-91.5 281v700h212v-700q0 -91 52 -140.5t146 -49.5q118 0 176 75.5t58 244.5v570h212v-868l146 -22v-170l-340 -10l-15 214h-19q-25 -108 -98 -166t-180 -58zM580 1238q-167 0 -258 84t-91 238v43h175v-43q0 -89 45 -137.5t129 -48.5t129 48.5
t45 137.5v43h175v-43q0 -154 -91 -238t-258 -84z" />
    <glyph glyph-name="Uring" unicode="&#x16e;" 
d="M596 -20q-456 0 -456 476v964h200v-964q0 -144 63 -215t197 -71q260 0 260 286v964h200v-964q0 -237 -117.5 -356.5t-346.5 -119.5zM600 1488q-113 0 -175.5 54t-62.5 152t62.5 152t175.5 54t175.5 -54t62.5 -152t-62.5 -152t-175.5 -54zM600 1604q46 0 71 23t25 67
t-25 67.5t-71 23.5t-71 -23.5t-25 -67.5t25 -67t71 -23z" />
    <glyph glyph-name="uring" unicode="&#x16f;" 
d="M496 -20q-167 0 -258.5 99t-91.5 281v700h212v-700q0 -91 52 -140.5t146 -49.5q118 0 176 75.5t58 244.5v570h212v-868l146 -22v-170l-340 -10l-15 214h-19q-25 -108 -98 -166t-180 -58zM580 1198q-113 0 -175.5 56.5t-62.5 159.5t62.5 159.5t175.5 56.5t175.5 -56.5
t62.5 -159.5t-62.5 -159.5t-175.5 -56.5zM580 1314q46 0 71 26t25 74t-25 74t-71 26t-71 -26t-25 -74t25 -74t71 -26z" />
    <glyph glyph-name="Uhungarumlaut" unicode="&#x170;" 
d="M596 -20q-456 0 -456 476v964h200v-964q0 -144 63 -215t197 -71q260 0 260 286v964h200v-964q0 -237 -117.5 -356.5t-346.5 -119.5zM249 1580l160 250h282l-200 -250h-242zM659 1580l160 250h282l-200 -250h-242z" />
    <glyph glyph-name="uhungarumlaut" unicode="&#x171;" 
d="M496 -20q-167 0 -258.5 99t-91.5 281v700h212v-700q0 -91 52 -140.5t146 -49.5q118 0 176 75.5t58 244.5v570h212v-868l146 -22v-170l-340 -10l-15 214h-19q-25 -108 -98 -166t-180 -58zM269 1248l150 380h222l-170 -380h-202zM649 1248l150 380h222l-170 -380h-202z" />
    <glyph glyph-name="Uogonek" unicode="&#x172;" 
d="M668 -424q-115 0 -177.5 50t-62.5 142q0 73 30 123.5t84 68.5v22q-402 27 -402 474v964h200v-964q0 -144 63 -215t197 -71q260 0 260 286v964h200v-964q0 -375 -290 -455q-35 -11 -57.5 -19.5t-50.5 -23.5t-44.5 -31t-28 -40.5t-11.5 -54.5q0 -34 27 -61t89 -27
q37 0 82 11l-18 -170q-51 -9 -90 -9z" />
    <glyph glyph-name="uogonek" unicode="&#x173;" 
d="M1010 -424q-115 0 -177.5 55.5t-62.5 156.5q0 68 29.5 114.5t84.5 62.5v27l-76 -2l-15 214h-19q-25 -108 -98 -166t-180 -58q-167 0 -258.5 99t-91.5 281v700h212v-700q0 -91 52 -140.5t146 -49.5q118 0 176 75.5t58 244.5v570h212v-868l146 -22v-170l-35 -1
q-92 -6 -142.5 -49.5t-50.5 -117.5q0 -42 30.5 -65t85.5 -23q35 0 82 11l-18 -170q-46 -9 -90 -9z" />
    <glyph glyph-name="Wcircumflex" unicode="&#x174;" 
d="M180 0l-160 1420h210l120 -1260h20l131 900h200l129 -900h20l120 1260h210l-160 -1420h-309l-105 862h-12l-105 -862h-309zM259 1580l260 260h172l260 -260h-222l-124 144l-124 -144h-222z" />
    <glyph glyph-name="wcircumflex" unicode="&#x175;" 
d="M720 0l-124 842h-12l-124 -842h-270l-120 1060h200l80 -900h18l125 900h194l125 -900h18l90 900h210l-150 -1060h-260zM264 1248l240 380h172l240 -380h-212l-114 226l-114 -226h-212z" />
    <glyph glyph-name="Ycircumflex" unicode="&#x176;" 
d="M500 0v503l-475 917h220l346 -710h18l346 710h220l-475 -917v-503h-200zM259 1580l260 260h172l260 -260h-222l-124 144l-124 -144h-222z" />
    <glyph glyph-name="ycircumflex" unicode="&#x177;" 
d="M75 -480l-10 190l166 20q128 15 210.5 77.5t138.5 192.5h-103l-422 1060h220l346 -900h15l259 900h220l-306 -966q-89 -283 -214 -406.5t-340 -147.5zM289 1248l240 380h172l240 -380h-212l-114 226l-114 -226h-212z" />
    <glyph glyph-name="Ydieresis" unicode="&#x178;" 
d="M500 0v503l-475 917h220l346 -710h18l346 710h220l-475 -917v-503h-200zM392 1580q-56 0 -95 39t-39 95t39 95t95 39t95 -39t39 -95t-39 -95t-95 -39zM808 1580q-56 0 -95 39t-39 95t39 95t95 39t95 -39t39 -95t-39 -95t-95 -39z" />
    <glyph glyph-name="Zacute" unicode="&#x179;" 
d="M150 0v190l664 1040h-664v190h900v-190l-669 -1040h689v-190h-920zM469 1580l220 250h282l-270 -250h-232z" />
    <glyph glyph-name="zacute" unicode="&#x17a;" 
d="M160 0v176l609 708h-609v176h856v-176l-606 -708h626v-176h-876zM499 1248l170 380h212l-190 -380h-192z" />
    <glyph glyph-name="Zdotaccent" unicode="&#x17b;" 
d="M150 0v190l664 1040h-664v190h900v-190l-669 -1040h689v-190h-920zM600 1580q-56 0 -95 39t-39 95t39 95t95 39t95 -39t39 -95t-39 -95t-95 -39z" />
    <glyph glyph-name="zdotaccent" unicode="&#x17c;" 
d="M160 0v176l609 708h-609v176h856v-176l-606 -708h626v-176h-876zM598 1238q-56 0 -95 39t-39 95t39 95t95 39t95 -39t39 -95t-39 -95t-95 -39z" />
    <glyph glyph-name="Zcaron" unicode="&#x17d;" 
d="M150 0v190l664 1040h-664v190h900v-190l-669 -1040h689v-190h-920zM514 1580l-260 260h222l124 -144l124 144h222l-260 -260h-172z" />
    <glyph glyph-name="zcaron" unicode="&#x17e;" 
d="M160 0v176l609 708h-609v176h856v-176l-606 -708h626v-176h-876zM514 1210l-240 380h212l114 -226l114 226h212l-240 -380h-172z" />
    <glyph glyph-name="longs" unicode="&#x17f;" 
d="M462 0v644h-394v176h394v150q0 550 472 550q120 0 230 -30l-42 -184q-113 24 -194 24q-254 0 -254 -350v-980h-212z" />
    <glyph glyph-name="uni0186" unicode="&#x186;" 
d="M506 -20q-280 0 -459 171l144 141q88 -73 158 -100.5t168 -27.5q193 0 301.5 143.5t108.5 397.5q0 265 -121.5 408t-354.5 143q-148 0 -289 -60l-46 176q174 68 369 68q319 0 484 -186.5t165 -540.5q0 -349 -159.5 -541t-468.5 -192z" />
    <glyph glyph-name="uni018E" unicode="&#x18e;" 
d="M1040 0h-940v190h740v426h-560v190h560v424h-740v190h940v-1420z" />
    <glyph glyph-name="uni018F" unicode="&#x18f;" 
d="M600 -20q-524 0 -524 700q0 69 4 118h830q-34 458 -410 458q-163 0 -304 -39l-28 177q156 46 332 46q624 0 624 -740q0 -720 -524 -720zM911 608h-623q21 -444 312 -444q286 0 311 444z" />
    <glyph glyph-name="uni0190" unicode="&#x190;" 
d="M690 1440q325 0 435 -179l-148 -147q-44 69 -118 105.5t-168 36.5q-154 0 -228.5 -54t-74.5 -144q0 -107 105 -159t345 -59l-22 -188h-150q-150 0 -240 -62.5t-90 -174.5q0 -118 88.5 -184.5t244.5 -66.5q122 0 199 11.5t186 46.5l46 -174q-96 -39 -187 -53.5t-239 -14.5
q-251 0 -398.5 112.5t-147.5 301.5q0 83 33 151t89 112t127.5 69t151.5 29v11q-345 55 -345 327q0 163 124 255t382 92z" />
    <glyph glyph-name="florin" unicode="&#x192;" 
d="M98 -477l-10 188l108 15q119 17 172.5 95.5t53.5 240.5v502h-334v174h334v152q0 550 502 550q114 0 220 -20l-22 -184q-118 14 -204 14q-284 0 -284 -350v-162h434v-174h-434v-470q0 -279 -107.5 -406.5t-350.5 -155.5z" />
    <glyph glyph-name="uni0194" unicode="&#x194;" 
d="M600 -462q-150 0 -233 66.5t-83 189.5q0 140 144 267l-383 1359h214l332 -1250h18l332 1250h214l-383 -1359q144 -127 144 -267q0 -123 -83 -189.5t-233 -66.5zM484 -162q0 -57 29.5 -88.5t86.5 -31.5t86.5 31.5t29.5 88.5q0 36 -25 77.5t-91 113.5q-66 -72 -91 -113.5
t-25 -77.5z" />
    <glyph glyph-name="uni0196" unicode="&#x196;" 
d="M758 -20q-184 0 -266 99.5t-82 320.5v926h-312v174h524v-1090q0 -67 8 -109t31.5 -73.5t66 -44.5t110.5 -13q83 0 212 38l24 -186q-151 -42 -316 -42z" />
    <glyph glyph-name="uni019A" unicode="&#x19a;" 
d="M98 647v190h312v489h-312v174h524v-663h312v-190h-312v-237q0 -67 8 -109t31.5 -73.5t66 -44.5t110.5 -13q83 0 212 38l24 -186q-151 -42 -316 -42q-184 0 -266 99.5t-82 320.5v247h-312z" />
    <glyph glyph-name="uni019B" unicode="&#x19b;" 
d="M138 897l-40 175l364 118q-25 65 -61.5 92.5t-87.5 27.5q-27 0 -62 -8l-24 186q51 12 106 12q129 0 205 -55.5t117 -192.5l309 100l40 -175l-299 -97l212 -740q26 -92 67 -131t104 -39q27 0 62 8l24 -186q-51 -12 -106 -12q-135 0 -213 60.5t-121 210.5l-171 596l-36 -11
q33 -136 -9 -245l-224 -591h-227l418 1009z" />
    <glyph glyph-name="uni019D" unicode="&#x19d;" 
d="M-68 -476l-10 171l70 11q156 24 156 206v1508h252l440 -1080h20v1080h192v-1420h-252l-440 1080h-20v-896h1v-280q0 -164 -85.5 -260t-243.5 -112z" />
    <glyph glyph-name="Ohorn" unicode="&#x1a0;" 
d="M600 -20q-524 0 -524 720q0 740 524 740q148 0 254 -59q202 36 202 272h192q0 -321 -246 -412q122 -185 122 -541q0 -720 -524 -720zM600 164q314 0 314 536q0 556 -314 556t-314 -556q0 -536 314 -536z" />
    <glyph glyph-name="ohorn" unicode="&#x1a1;" 
d="M600 -20q-221 0 -342.5 144t-121.5 406t121.5 406t342.5 144q76 0 141 -18l47 8q187 31 187 273h210q0 -315 -240 -410q119 -144 119 -403q0 -262 -121.5 -406t-342.5 -144zM600 170q117 0 180.5 93.5t63.5 266.5t-63.5 266.5t-180.5 93.5t-180.5 -93.5t-63.5 -266.5
t63.5 -266.5t180.5 -93.5z" />
    <glyph glyph-name="uni01A9" unicode="&#x1a9;" 
d="M150 0v176l441 537l-441 517v190h900v-190h-629l426 -517l-449 -537h672v-176h-920z" />
    <glyph glyph-name="Uhorn" unicode="&#x1af;" 
d="M596 -20q-456 0 -456 476v964h200v-964q0 -144 63 -215t197 -71q260 0 260 286v964l61 10q185 30 185 223h192q0 -287 -238 -366v-831q0 -237 -117.5 -356.5t-346.5 -119.5z" />
    <glyph glyph-name="uhorn" unicode="&#x1b0;" 
d="M496 -20q-167 0 -258.5 99t-91.5 281v700h212v-700q0 -91 52 -140.5t146 -49.5q118 0 176 75.5t58 244.5v570h1l40 10q93 23 135 88t42 185h220q0 -151 -54.5 -246.5t-171.5 -150.5v-754l146 -22v-170l-340 -10l-15 214h-19q-25 -108 -98 -166t-180 -58z" />
    <glyph glyph-name="uni01B1" unicode="&#x1b1;" 
d="M104 1420h426v-186q-244 -91 -244 -594q0 -227 82 -351.5t232 -124.5t232 124.5t82 351.5q0 512 -220 594v186h402v-186h-222v-20q250 -79 250 -574q0 -315 -137 -487.5t-387 -172.5t-387 172.5t-137 487.5q0 487 274 577v17h-246v186z" />
    <glyph glyph-name="uni01B2" unicode="&#x1b2;" 
d="M628 1420h128q168 0 236 -67t68 -233v-664q0 -237 -117.5 -356.5t-346.5 -119.5q-456 0 -456 476v964h200v-964q0 -144 63 -215t197 -71q260 0 260 286v614q0 88 -32 124t-112 36h-88v190z" />
    <glyph glyph-name="uni01B7" unicode="&#x1b7;" 
d="M556 -20q-296 0 -482 171l144 141q91 -71 165 -99.5t178 -28.5q147 0 230 64t83 177q0 127 -104.5 197t-295.5 70h-135l-20 124l458 438h-614v186h853v-201l-418 -395q232 -13 358 -121t126 -294q0 -196 -142 -312.5t-384 -116.5z" />
    <glyph glyph-name="uni01CD" unicode="&#x1cd;" 
d="M45 0l410 1420h290l410 -1420h-210l-93 346h-504l-93 -346h-210zM399 536h402l-192 712h-18zM514 1580l-260 260h222l124 -144l124 144h222l-260 -260h-172z" />
    <glyph glyph-name="uni01CE" unicode="&#x1ce;" 
d="M818 -10l-10 234h-21q-11 -120 -101.5 -182t-241.5 -62q-166 0 -257 80t-91 226q0 168 125 258t355 90q118 0 200 -17v49q0 104 -73.5 154.5t-222.5 54.5l-254 7l20 188l214 -3q518 -7 518 -433v-442l180 -22v-170zM494 1210l-240 380h212l114 -226l114 226h212
l-240 -380h-172zM776 454q-68 10 -204 10q-276 0 -276 -168q0 -70 47.5 -108t134.5 -38q140 0 219 69t79 161v74z" />
    <glyph glyph-name="uni01DD" unicode="&#x1dd;" 
d="M586 -20q-216 0 -333 131t-117 377q0 73 6 136h716q-28 132 -126 201t-258 69q-121 0 -260 -38l-26 176q148 48 310 48q272 0 419 -143t147 -409q0 -260 -125 -404t-353 -144zM866 462h-538q0 -142 67.5 -219t188.5 -77q123 0 196 77t86 219z" />
    <glyph glyph-name="uni01E4" unicode="&#x1e4;" 
d="M702 -20q-636 0 -636 732q0 346 164.5 537t463.5 191q149 0 261 -46.5t165 -131.5l-149 -148q-47 68 -116.5 105t-148.5 37q-202 0 -314 -140t-112 -394q0 -558 446 -558q75 0 154 18v188h-240v190h240v150h190v-150h130v-190h-130v-330q-177 -60 -368 -60z" />
    <glyph glyph-name="uni01E5" unicode="&#x1e5;" 
d="M44 -193v108h756q18 60 20 147v130h-20q-10 -100 -84.5 -156t-196.5 -56q-209 0 -316 137t-107 403q0 276 107.5 418t315.5 142q124 0 200.5 -56t90.5 -156h13l17 192h192v-966q0 -98 -15 -179h139v-108h-170q-54 -135 -175 -202t-319 -73l-310 -10l-10 194l340 10
q151 4 226 81h-694zM820 566q0 164 -64.5 249t-189.5 85q-128 0 -194 -96.5t-66 -283.5q0 -178 66 -269t194 -91q125 0 189.5 85t64.5 249v72z" />
    <glyph glyph-name="Gcaron" unicode="&#x1e6;" 
d="M702 -20q-636 0 -636 732q0 346 164.5 537t463.5 191q149 0 261 -46.5t165 -131.5l-149 -148q-47 68 -116.5 105t-148.5 37q-202 0 -314 -140t-112 -394q0 -558 446 -558q83 0 174 20v336h-290v190h480v-670q-187 -60 -388 -60zM589 1580l-260 260h222l124 -144l124 144
h222l-260 -260h-172z" />
    <glyph glyph-name="gcaron" unicode="&#x1e7;" 
d="M182 -478l-10 194l340 10q158 4 232 87t76 249v130h-20q-10 -100 -84.5 -156t-196.5 -56q-209 0 -316 137t-107 403q0 276 107.5 418t315.5 142q124 0 200.5 -56t90.5 -156h13l17 192h192v-966q0 -284 -129 -418.5t-411 -143.5zM820 566q0 164 -64.5 249t-189.5 85
q-128 0 -194 -96.5t-66 -283.5q0 -178 66 -269t194 -91q125 0 189.5 85t64.5 249v72zM494 1210l-240 380h212l114 -226l114 226h212l-240 -380h-172z" />
    <glyph glyph-name="uni01EA" unicode="&#x1ea;" 
d="M658 -424q-115 0 -177.5 50t-62.5 142q0 73 30 123.5t84 68.5v23q-456 45 -456 717q0 740 524 740t524 -740q0 -583 -343 -694q-7 -2 -29.5 -10t-31 -11t-28.5 -10.5t-29 -12.5t-25 -14t-23.5 -16.5t-18.5 -19t-16 -23t-8.5 -26.5t-3.5 -31q0 -34 27 -61t89 -27
q37 0 82 11l-18 -170q-51 -9 -90 -9zM600 164q314 0 314 536q0 556 -314 556t-314 -556q0 -536 314 -536z" />
    <glyph glyph-name="uni01EB" unicode="&#x1eb;" 
d="M669 -424q-115 0 -177.5 50t-62.5 142q0 73 30 123.5t84 68.5v23q-195 18 -301 160t-106 387q0 262 121.5 406t342.5 144t342.5 -144t121.5 -406q0 -205 -75 -338.5t-215 -183.5q-94 -35 -126 -56q-69 -46 -69 -120q0 -34 27 -61t89 -27q37 0 82 11l-18 -170
q-51 -9 -90 -9zM600 170q117 0 180.5 93.5t63.5 266.5t-63.5 266.5t-180.5 93.5t-180.5 -93.5t-63.5 -266.5t63.5 -266.5t180.5 -93.5z" />
    <glyph glyph-name="uni01F0" unicode="&#x1f0;" 
d="M180 -480l-10 188l200 18q161 14 233.5 93.5t72.5 242.5v824h-412v174h624v-966q0 -281 -127 -411.5t-411 -150.5zM696 1210l-240 380h212l114 -226l114 226h212l-240 -380h-172z" />
    <glyph glyph-name="Aringacute" unicode="&#x1fa;" 
d="M45 0l410 1420h290l410 -1420h-210l-93 346h-504l-93 -346h-210zM399 1820l220 250h282l-199 -184q136 -43 136 -192q0 -98 -62.5 -152t-175.5 -54t-175.5 54t-62.5 152q0 76 38 126h-1zM399 536h402l-192 712h-18zM600 1604q46 0 71 23t25 67t-25 67.5t-71 23.5
t-71 -23.5t-25 -67.5t25 -67t71 -23z" />
    <glyph glyph-name="aringacute" unicode="&#x1fb;" 
d="M818 -10l-10 234h-21q-11 -120 -101.5 -182t-241.5 -62q-166 0 -257 80t-91 226q0 168 125 258t355 90q118 0 200 -17v49q0 104 -73.5 154.5t-222.5 54.5l-254 7l20 188l214 -3q518 -7 518 -433v-442l180 -22v-170zM580 1198q-113 0 -175.5 56.5t-62.5 159.5
q0 80 38 132.5t110 72.5l129 289h212l-147 -294q65 -22 99.5 -73.5t34.5 -126.5q0 -103 -62.5 -159.5t-175.5 -56.5zM776 454q-68 10 -204 10q-276 0 -276 -168q0 -70 47.5 -108t134.5 -38q140 0 219 69t79 161v74zM580 1314q46 0 71 26t25 74t-25 74t-71 26t-71 -26
t-25 -74t25 -74t71 -26z" />
    <glyph glyph-name="AEacute" unicode="&#x1fc;" 
d="M42 0l400 1420h658v-190h-320v-424h260v-190h-260v-426h320v-190h-500v241h-300l-68 -241h-190zM349 416h251v832h-17zM509 1580l220 250h282l-270 -250h-232z" />
    <glyph glyph-name="aeacute" unicode="&#x1fd;" 
d="M299 -20q-125 0 -201.5 84t-76.5 222q0 157 101.5 252.5t268.5 95.5q69 0 130 -11v43q0 99 -78 157t-218 62l-94 3l20 182l94 -3q262 -9 368 -186q80 199 257 199q145 0 225 -133t80 -375q0 -76 -6 -136h-458q20 -128 91.5 -197t184.5 -69q57 0 120 13l26 -185
q-87 -18 -170 -18q-128 0 -218.5 62t-137.5 182h-17q-21 -120 -91 -182t-200 -62zM521 380v84q-35 10 -134 10q-79 0 -127.5 -49t-48.5 -129q0 -66 39 -106t103 -40q80 0 124 60.5t44 169.5zM499 1248l170 380h212l-190 -380h-192zM704 588h279q0 161 -31 233.5t-100 72.5
q-72 0 -108 -73.5t-40 -232.5z" />
    <glyph glyph-name="Oslashacute" unicode="&#x1fe;" 
d="M201 -134l-135 75l133 231q-123 180 -123 528q0 740 524 740q169 0 282 -76l97 168l135 -75l-118 -206q128 -185 128 -551q0 -720 -524 -720q-172 0 -289 78zM600 164q314 0 314 536q0 206 -43 334l-458 -799q73 -71 187 -71zM324 391l458 797q-73 68 -182 68
q-314 0 -314 -556q0 -186 38 -309zM469 1580l220 250h282l-270 -250h-232z" />
    <glyph glyph-name="oslashacute" unicode="&#x1ff;" 
d="M301 -134l-105 75l87 156q-147 142 -147 433q0 262 121.5 406t342.5 144q116 0 207 -41l89 159l115 -65l-95 -169q148 -143 148 -434q0 -262 -121.5 -406t-342.5 -144q-117 0 -211 43zM600 170q117 0 180.5 93.5t63.5 266.5q0 139 -42 229l-315 -560q50 -29 113 -29z
M397 303l312 560q-46 27 -109 27q-117 0 -180.5 -93.5t-63.5 -266.5q0 -139 41 -227zM499 1248l170 380h212l-190 -380h-192z" />
    <glyph glyph-name="uni0218" unicode="&#x218;" 
d="M551 -20q-242 0 -422 78l26 202q222 -96 412 -96q276 0 276 198q0 127 -130 186l-246 112q-150 68 -225 162t-75 228q0 186 112 288t317 102q143 0 253 -42.5t212 -136.5l-140 -142q-89 72 -165.5 104.5t-158.5 32.5q-104 0 -160 -50t-56 -146q0 -67 35.5 -111t110.5 -79
l208 -98q165 -78 243.5 -172t78.5 -234q0 -386 -506 -386zM425 -480l77 340h222l-117 -340h-182z" />
    <glyph glyph-name="uni0219" unicode="&#x219;" 
d="M518 -20q-234 0 -362 30l24 192q204 -32 338 -32q160 0 233 31.5t73 100.5q0 46 -24.5 70t-79.5 38l-244 62q-164 41 -234 101.5t-70 176.5q0 174 133.5 252t430.5 78q146 0 280 -20l-22 -184q-151 14 -264 14q-179 0 -258.5 -30.5t-79.5 -99.5q0 -44 30 -65t104 -39
l196 -48q171 -42 246.5 -110t75.5 -192q0 -171 -125 -248.5t-401 -77.5zM405 -480l77 340h222l-117 -340h-182z" />
    <glyph glyph-name="uni021A" unicode="&#x21a;" 
d="M500 0v1230h-420v190h1040v-190h-420v-1230h-200zM410 -480l77 340h222l-117 -340h-182z" />
    <glyph glyph-name="uni021B" unicode="&#x21b;" 
d="M792 -20q-241 0 -348.5 99.5t-107.5 320.5v486h-266v174h266v320h212v-320h482v-174h-482v-476q0 -127 62 -183.5t202 -56.5q74 0 234 20l24 -186q-141 -24 -278 -24zM480 -480l77 340h222l-117 -340h-182z" />
    <glyph glyph-name="uni021E" unicode="&#x21e;" 
d="M860 0v612h-520v-612h-200v1420h200v-618h520v618h200v-1420h-200zM514 1580l-260 260h222l124 -144l124 144h222l-260 -260h-172z" />
    <glyph glyph-name="uni021F" unicode="&#x21f;" 
d="M820 0v690q0 100 -50 155t-140 55q-250 0 -250 -304v-596h-212v1500h212v-632h20q18 212 280 212q168 0 260 -102t92 -288v-690h-212zM188 1660l-260 260h222l124 -144l124 144h222l-260 -260h-172z" />
    <glyph glyph-name="uni0232" unicode="&#x232;" 
d="M500 0v503l-475 917h220l346 -710h18l346 710h220l-475 -917v-503h-200zM213 1580v188h774v-188h-774z" />
    <glyph glyph-name="uni0233" unicode="&#x233;" 
d="M75 -480l-10 190l166 20q128 15 210.5 77.5t138.5 192.5h-103l-422 1060h220l346 -900h15l259 900h220l-306 -966q-89 -283 -214 -406.5t-340 -147.5zM185 1248v188h860v-188h-860z" />
    <glyph glyph-name="uni0237" unicode="&#x237;" 
d="M180 -480l-10 188l200 18q161 14 233.5 93.5t72.5 242.5v824h-412v174h624v-966q0 -281 -127 -411.5t-411 -150.5z" />
    <glyph glyph-name="uni023A" unicode="&#x23a;" 
d="M513 -330l-136 24l115 652h-144l-93 -346h-210l410 1420h226l52 296l136 -24l-77 -435l363 -1257h-210l-93 346h-220zM526 536l108 619l-25 93h-18l-192 -712h127zM719 839l-53 -303h135z" />
    <glyph glyph-name="uni023B" unicode="&#x23b;" 
d="M573 -330l-136 24l56 320q-407 125 -407 698q0 347 167 537.5t471 190.5h20l49 276l136 -24l-47 -268q184 -40 257 -163l-148 -147q-55 82 -143 118l-186 -1058q53 -10 120 -10q145 0 286 60l46 -176q-174 -68 -366 -68q-66 0 -119 7zM529 218l183 1038
q-190 -5 -301 -145.5t-111 -388.5q0 -383 229 -504z" />
    <glyph glyph-name="uni023D" unicode="&#x23d;" 
d="M-20 647v190h180v583h200v-583h456v-190h-456v-457h740v-190h-940v647h-180z" />
    <glyph glyph-name="uni023E" unicode="&#x23e;" 
d="M358 -350l-121 44l263 703v833h-420v190h802l111 296l121 -44l-94 -252h100v-190h-171l-249 -665v-565h-200v30zM700 932l111 298h-111v-298z" />
    <glyph glyph-name="uni0245" unicode="&#x245;" 
d="M45 0l410 1420h290l410 -1420h-220l-326 1248h-18l-326 -1248h-220z" />
    <glyph glyph-name="uni0251" unicode="&#x251;" 
d="M498 -20q-202 0 -312 140t-110 400q0 267 113.5 413.5t320.5 146.5q245 0 270 -212h20v192h212v-868l146 -22v-170l-340 -10l-14 202h-24q-11 -104 -85.5 -158t-196.5 -54zM800 460v140q0 142 -63.5 221t-176.5 79q-131 0 -202.5 -99t-71.5 -281q0 -178 66.5 -269
t197.5 -91q118 0 184 79t66 221z" />
    <glyph glyph-name="uni0254" unicode="&#x254;" 
d="M526 -20q-124 0 -228 34t-166 89l104 160q54 -41 132.5 -67t165.5 -26q152 0 236 91t84 257q0 181 -98.5 276.5t-281.5 95.5q-123 0 -262 -41l-32 184q138 47 318 47q271 0 418.5 -143t147.5 -409q0 -260 -140 -404t-398 -144z" />
    <glyph glyph-name="uni0259" unicode="&#x259;" 
d="M586 -20q-216 0 -333 131t-117 377q0 73 6 136h716q-28 132 -126 201t-258 69q-121 0 -260 -38l-26 176q148 48 310 48q272 0 419 -143t147 -409q0 -260 -125 -404t-353 -144zM866 462h-538q0 -142 67.5 -219t188.5 -77q123 0 196 77t86 219z" />
    <glyph glyph-name="uni025B" unicode="&#x25b;" 
d="M626 -20q-460 0 -460 300q0 208 306 250v20q-276 70 -276 272q0 258 446 258q283 0 408 -58l-65 -181q-138 55 -321 55q-247 0 -247 -124q0 -140 417 -156l-24 -181h-32q-391 0 -391 -145q0 -126 247 -126q30 0 59.5 1.5t52 3.5t50 6.5t43 7t42 9t36 9t36 10t32.5 8.5
l55 -191q-177 -48 -414 -48z" />
    <glyph glyph-name="uni0262" unicode="&#x262;" 
d="M682 -15q-597 0 -597 556q0 263 165 408t464 145q140 0 248 -26t160 -73l-101 -170q-126 79 -295 79q-200 0 -310.5 -93t-110.5 -262q0 -374 401 -374q98 0 194 14v191h-250v190h462v-540q-211 -45 -430 -45z" />
    <glyph glyph-name="uni0263" unicode="&#x263;" 
d="M600 -462q-155 0 -240.5 66.5t-85.5 189.5q0 143 160 275l-354 991h226l285 -880h18l285 880h226l-354 -991q160 -132 160 -275q0 -123 -85.5 -189.5t-240.5 -66.5zM484 -162q0 -53 29.5 -81.5t86.5 -28.5t86.5 28.5t29.5 81.5q0 36 -25 77.5t-91 113.5
q-66 -72 -91 -113.5t-25 -77.5z" />
    <glyph glyph-name="uni0269" unicode="&#x269;" 
d="M764 -20q-177 0 -255.5 99.5t-78.5 320.5v484h-300v176h512v-650q0 -67 7.5 -109t29.5 -73.5t62 -44.5t103 -13q78 0 196 38l24 -186q-144 -42 -300 -42z" />
    <glyph glyph-name="uni026A" unicode="&#x26a;" 
d="M168 0v174h326v712h-326v174h864v-174h-326v-712h326v-174h-864z" />
    <glyph glyph-name="uni026B" unicode="&#x26b;" 
d="M75 589v84q0 128 53.5 186t172.5 58q49 0 109 -17v426h-312v174h524v-698q52 -25 93 -25q31 0 44.5 18t13.5 57v92h182v-84q0 -128 -48 -186t-154 -58q-61 0 -131 24v-230q0 -67 8 -109t31.5 -73.5t66 -44.5t110.5 -13q83 0 212 38l24 -186q-151 -42 -316 -42
q-184 0 -266 99.5t-82 320.5v341q-42 15 -78 15q-40 0 -57.5 -18t-17.5 -57v-92h-182z" />
    <glyph glyph-name="uni026C" unicode="&#x26c;" 
d="M310 547q-150 0 -232.5 80t-82.5 226q0 139 61.5 215t173.5 76q74 0 113 -33t50 -101h17v316h-312v174h524v-763h312v-190h-312v-137q0 -67 8 -109t31.5 -73.5t66 -44.5t110.5 -13q83 0 212 38l24 -186q-151 -42 -316 -42q-184 0 -266 99.5t-82 320.5v147h-100zM410 737
v85q0 66 -30.5 99t-79.5 33q-40 0 -62.5 -28t-22.5 -78q0 -53 25 -82t70 -29h100z" />
    <glyph glyph-name="uni0272" unicode="&#x272;" 
d="M820 0v690q0 100 -50 155t-140 55q-250 0 -250 -304v-502q0 -283 -110.5 -415.5t-357.5 -146.5l-17 -1l-10 188l47 7q126 19 181 96.5t55 239.5v998h192l17 -192h23q18 212 280 212q168 0 260 -102t92 -288v-690h-212z" />
    <glyph glyph-name="uni0283" unicode="&#x283;" 
d="M118 -477l-10 188l108 15q119 17 172.5 95.5t53.5 240.5v908q0 550 502 550q114 0 220 -20l-22 -184q-118 14 -204 14q-284 0 -284 -350v-886q0 -279 -93.5 -407.5t-304.5 -149.5z" />
    <glyph glyph-name="uni028A" unicode="&#x28a;" 
d="M104 1059h426v-176q-101 -25 -157.5 -120t-56.5 -239q0 -165 75 -257t209 -92t209 92t75 257q0 145 -50.5 240.5t-139.5 118.5v176h402v-176h-222v-23q109 -42 169.5 -150.5t60.5 -260.5q0 -219 -133 -341.5t-371 -122.5t-371 122.5t-133 341.5q0 150 67 259t187 154v21
h-246v176z" />
    <glyph glyph-name="uni028B" unicode="&#x28b;" 
d="M600 -20q-217 0 -329.5 109t-114.5 321v650h212v-650q0 -118 59 -179t173 -61t173 61t59 179v320q0 77 -25 108.5t-87 31.5h-68v190h108q157 0 220 -62.5t64 -217.5v-370q0 -212 -112.5 -321t-331.5 -109z" />
    <glyph glyph-name="uni028C" unicode="&#x28c;" 
d="M95 0l360 1060h290l360 -1060h-220l-276 888h-18l-276 -888h-220z" />
    <glyph glyph-name="uni0292" unicode="&#x292;" 
d="M541 -460q-289 0 -462 179l140 148q83 -74 157 -105.5t176 -31.5q137 0 214 70t77 191q0 135 -87 208.5t-245 73.5h-172l-20 124l451 480h-597v174h823v-201l-398 -425q222 -11 342.5 -122t120.5 -306q0 -205 -138 -331t-382 -126z" />
    <glyph glyph-name="uni0294" unicode="&#x294;" 
d="M462 0v382q0 131 51 239t161 233q67 76 94.5 131t27.5 127q0 104 -61 161t-171 57q-82 0 -162.5 -46.5t-137.5 -125.5l-138 143q64 100 183.5 159.5t256.5 59.5q214 0 332 -104.5t118 -293.5q0 -110 -42 -192t-140 -192q-160 -181 -160 -370v-368h-212z" />
    <glyph glyph-name="uni0295" unicode="&#x295;" 
d="M526 0v368q0 189 -160 370q-98 110 -140 192t-42 192q0 189 118 293.5t332 104.5q137 0 256.5 -59.5t183.5 -159.5l-138 -143q-57 79 -137.5 125.5t-162.5 46.5q-110 0 -171 -57t-61 -161q0 -72 27.5 -127t94.5 -131q110 -125 161 -233t51 -239v-382h-212z" />
    <glyph glyph-name="uni029F" unicode="&#x29f;" 
d="M159 0v1079h212v-905h731v-174h-943z" />
    <glyph glyph-name="uni02A7" unicode="&#x2a7;" 
d="M512 -20q-166 0 -241 71t-75 229v606h-186v174h186v320h212v-320h354q0 380 332 380q78 0 140 -15l-22 -184q-39 9 -84 9q-73 0 -113.5 -47.5t-40.5 -132.5v-1056q0 -237 -118 -352t-380 -133l-88 -6l-10 188l118 12q140 14 203 75.5t63 183.5v904h-354v-596
q0 -63 29.5 -91.5t94.5 -28.5q27 0 84 10l24 -186q-67 -14 -128 -14z" />
    <glyph glyph-name="uni02B7" unicode="&#x2b7;" 
d="M672 790l-64 449h-28l-64 -449h-225l-61 631h189l18 -444h32l77 444h96l77 -444h32l40 444h180l-81 -631h-218z" />
    <glyph glyph-name="uni02B8" unicode="&#x2b8;" 
d="M278 504v165h62q154 0 228 121h-93l-223 631h195l161 -476h19l145 476h196l-193 -575q-27 -81 -60.5 -140t-82.5 -106.5t-118 -71.5t-158 -24h-78z" />
    <glyph glyph-name="uni02BB" unicode="&#x2bb;" 
d="M392 780l270 690h162l-150 -690h-282z" />
    <glyph glyph-name="uni02BC" unicode="&#x2bc;" 
d="M559 670l-150 132l60 65q116 125 116 251q0 117 -144 117h-45v185h75q157 0 238 -76.5t81 -225.5q0 -197 -175 -387z" />
    <glyph glyph-name="uni02C0" unicode="&#x2c0;" 
d="M476 790v100q0 55 17 95t42 65t76 64q56 43 73.5 75t17.5 80q0 59 -38.5 91t-109.5 32q-125 0 -220 -82l-97 132q54 60 147 93t208 33q152 0 236 -70t84 -198q0 -50 -9.5 -88t-33.5 -72t-48 -58.5t-69 -63.5q-50 -43 -70 -77.5t-20 -92.5v-58h-186z" />
    <glyph glyph-name="circumflex" unicode="&#x2c6;" 
d="M274 1248l240 380h172l240 -380h-212l-114 226l-114 -226h-212z" />
    <glyph glyph-name="caron" unicode="&#x2c7;" 
d="M514 1210l-240 380h212l114 -226l114 226h212l-240 -380h-172z" />
    <glyph glyph-name="uni02C9" unicode="&#x2c9;" 
d="M170 1248v188h860v-188h-860z" />
    <glyph glyph-name="uni02D0" unicode="&#x2d0;" 
d="M400 0l200 360l200 -360h-400zM600 700l-200 360h400z" />
    <glyph glyph-name="breve" unicode="&#x2d8;" 
d="M600 1238q-167 0 -258 84t-91 238v43h175v-43q0 -89 45 -137.5t129 -48.5t129 48.5t45 137.5v43h175v-43q0 -154 -91 -238t-258 -84z" />
    <glyph glyph-name="dotaccent" unicode="&#x2d9;" 
d="M600 1238q-56 0 -95 39t-39 95t39 95t95 39t95 -39t39 -95t-39 -95t-95 -39z" />
    <glyph glyph-name="ring" unicode="&#x2da;" 
d="M600 1198q-113 0 -175.5 56.5t-62.5 159.5t62.5 159.5t175.5 56.5t175.5 -56.5t62.5 -159.5t-62.5 -159.5t-175.5 -56.5zM600 1314q46 0 71 26t25 74t-25 74t-71 26t-71 -26t-25 -74t25 -74t71 -26z" />
    <glyph glyph-name="ogonek" unicode="&#x2db;" 
d="M622 -424q-115 0 -177.5 50t-62.5 142q0 73 35 123.5t99 68.5v70l240 2v-32q-107 0 -165.5 -44t-58.5 -124q0 -42 30.5 -65t85.5 -23q35 0 82 11l-18 -170q-45 -9 -90 -9z" />
    <glyph glyph-name="tilde" unicode="&#x2dc;" 
d="M240 1256v40q0 250 210 250q58 0 148 -44q112 -56 146 -56q54 0 54 64v90h172v-80q0 -240 -188 -240q-63 0 -163 50q-7 4 -25.5 13.5t-28 14t-25 11t-28 9t-24.5 2.5q-74 0 -74 -74v-50h-174z" />
    <glyph glyph-name="hungarumlaut" unicode="&#x2dd;" 
d="M249 1248l150 380h222l-170 -380h-202zM629 1248l150 380h222l-170 -380h-202z" />
    <glyph glyph-name="gravecomb" unicode="&#x300;" horiz-adv-x="0" 
d="M569 1248l-190 380h212l170 -380h-192z" />
    <glyph glyph-name="acutecomb" unicode="&#x301;" horiz-adv-x="0" 
d="M439 1248l170 380h212l-190 -380h-192z" />
    <glyph glyph-name="uni0302" unicode="&#x302;" horiz-adv-x="0" 
d="M274 1248l240 380h172l240 -380h-212l-114 226l-114 -226h-212z" />
    <glyph glyph-name="tildecomb" unicode="&#x303;" horiz-adv-x="0" 
d="M240 1256v40q0 250 210 250q58 0 148 -44q112 -56 146 -56q54 0 54 64v90h172v-80q0 -240 -188 -240q-63 0 -163 50q-7 4 -25.5 13.5t-28 14t-25 11t-28 9t-24.5 2.5q-74 0 -74 -74v-50h-174z" />
    <glyph glyph-name="uni0304" unicode="&#x304;" horiz-adv-x="0" 
d="M170 1248v188h860v-188h-860z" />
    <glyph glyph-name="uni0306" unicode="&#x306;" horiz-adv-x="0" 
d="M600 1238q-167 0 -258 84t-91 238v43h175v-43q0 -89 45 -137.5t129 -48.5t129 48.5t45 137.5v43h175v-43q0 -154 -91 -238t-258 -84z" />
    <glyph glyph-name="uni0307" unicode="&#x307;" horiz-adv-x="0" 
d="M600 1238q-56 0 -95 39t-39 95t39 95t95 39t95 -39t39 -95t-39 -95t-95 -39z" />
    <glyph glyph-name="uni0308" unicode="&#x308;" horiz-adv-x="0" 
d="M390 1238q-56 0 -95 39t-39 95t39 95t95 39t95 -39t39 -95t-39 -95t-95 -39zM810 1238q-56 0 -95 39t-39 95t39 95t95 39t95 -39t39 -95t-39 -95t-95 -39z" />
    <glyph glyph-name="hookabovecomb" unicode="&#x309;" horiz-adv-x="0" 
d="M502 1248v36q0 35 16.5 66t37 49t37 41t16.5 45q0 25 -17 40.5t-45 15.5q-73 0 -124 -43l-67 119q31 34 89 54.5t123 20.5q94 0 150.5 -53t56.5 -140q0 -35 -12 -63.5t-29.5 -47.5t-35 -37t-29.5 -42t-12 -52v-9h-155z" />
    <glyph glyph-name="uni030A" unicode="&#x30a;" horiz-adv-x="0" 
d="M600 1198q-113 0 -175.5 56.5t-62.5 159.5t62.5 159.5t175.5 56.5t175.5 -56.5t62.5 -159.5t-62.5 -159.5t-175.5 -56.5zM600 1314q46 0 71 26t25 74t-25 74t-71 26t-71 -26t-25 -74t25 -74t71 -26z" />
    <glyph glyph-name="uni030B" unicode="&#x30b;" horiz-adv-x="0" 
d="M249 1248l150 380h222l-170 -380h-202zM629 1248l150 380h222l-170 -380h-202z" />
    <glyph glyph-name="uni030C" unicode="&#x30c;" horiz-adv-x="0" 
d="M514 1210l-240 380h212l114 -226l114 226h212l-240 -380h-172z" />
    <glyph glyph-name="uni0312" unicode="&#x312;" horiz-adv-x="0" 
d="M492 1208l90 380h172l-50 -380h-212z" />
    <glyph glyph-name="uni0313" unicode="&#x313;" horiz-adv-x="0" 
d="M492 1208l50 380h212l-90 -380h-172z" />
    <glyph glyph-name="uni0315" unicode="&#x315;" horiz-adv-x="0" 
d="M492 1208l50 380h212l-90 -380h-172z" />
    <glyph glyph-name="uni031B" unicode="&#x31b;" horiz-adv-x="0" 
d="M441 895l-50 165l60 10q187 31 187 273h210q0 -380 -347 -438z" />
    <glyph glyph-name="dotbelowcomb" unicode="&#x323;" horiz-adv-x="0" 
d="M600 -420q-56 0 -95 39t-39 95t39 95t95 39t95 -39t39 -95t-39 -95t-95 -39z" />
    <glyph glyph-name="uni0325" unicode="&#x325;" horiz-adv-x="0" 
d="M600 -500q-113 0 -175.5 56.5t-62.5 159.5t62.5 159.5t175.5 56.5t175.5 -56.5t62.5 -159.5t-62.5 -159.5t-175.5 -56.5zM600 -384q46 0 71 26t25 74t-25 74t-71 26t-71 -26t-25 -74t25 -74t71 -26z" />
    <glyph glyph-name="uni0326" unicode="&#x326;" horiz-adv-x="0" 
d="M415 -480l77 340h222l-117 -340h-182z" />
    <glyph glyph-name="uni0327" unicode="&#x327;" horiz-adv-x="0" 
d="M414 -480v150q188 0 188 72q0 68 -162 68l69 196l136 -11l-25 -95q172 -36 172 -167q0 -213 -378 -213z" />
    <glyph glyph-name="uni0328" unicode="&#x328;" horiz-adv-x="0" 
d="M622 -424q-115 0 -177.5 50t-62.5 142q0 73 35 123.5t99 68.5v70l240 2v-32q-107 0 -165.5 -44t-58.5 -124q0 -42 30.5 -65t85.5 -23q35 0 82 11l-18 -170q-45 -9 -90 -9z" />
    <glyph glyph-name="uni0331" unicode="&#x331;" horiz-adv-x="0" 
d="M170 -396v188h860v-188h-860z" />
    <glyph glyph-name="uni0332" unicode="&#x332;" horiz-adv-x="0" 
d="M-40 -396v188h1280v-188h-1280z" />
    <glyph glyph-name="uni0340" unicode="&#x340;" horiz-adv-x="0" 
d="M569 1248l-190 380h212l170 -380h-192z" />
    <glyph glyph-name="uni0341" unicode="&#x341;" horiz-adv-x="0" 
d="M439 1248l170 380h212l-190 -380h-192z" />
    <glyph glyph-name="uni0342" unicode="&#x342;" horiz-adv-x="0" 
d="M240 1256v40q0 250 210 250q58 0 148 -44q112 -56 146 -56q54 0 54 64v90h172v-80q0 -240 -188 -240q-63 0 -163 50q-7 4 -25.5 13.5t-28 14t-25 11t-28 9t-24.5 2.5q-74 0 -74 -74v-50h-174z" />
    <glyph glyph-name="uni0374" unicode="&#x374;" 
d="M559 670l-150 132l60 65q116 125 116 251q0 117 -144 117h-45v185h75q157 0 238 -76.5t81 -225.5q0 -197 -175 -387z" />
    <glyph glyph-name="uni0375" unicode="&#x375;" 
d="M412 -436l80 690h232l-120 -690h-192z" />
    <glyph glyph-name="uni037E" unicode="&#x37e;" 
d="M412 -436l80 690h232l-120 -690h-192zM600 784q-62 0 -105 43t-43 105t43 105t105 43t105 -43t43 -105t-43 -105t-105 -43z" />
    <glyph glyph-name="tonos" unicode="&#x384;" 
d="M439 1248l170 380h212l-190 -380h-192z" />
    <glyph glyph-name="dieresistonos" unicode="&#x385;" 
d="M458 1248l130 380h212l-150 -380h-192zM270 1238q-56 0 -95 39t-39 95t39 95t95 39t95 -39t39 -95t-39 -95t-95 -39zM940 1238q-56 0 -95 39t-39 95t39 95t95 39t95 -39t39 -95t-39 -95t-95 -39z" />
    <glyph glyph-name="Alphatonos" unicode="&#x386;" 
d="M245 0l310 1420h290l310 -1420h-210l-65 346h-360l-65 -346h-210zM556 536h288l-135 712h-18zM-1 1040l90 380h212l-110 -380h-192z" />
    <glyph glyph-name="anoteleia" unicode="&#x387;" 
d="M600 784q-62 0 -105 43t-43 105t43 105t105 43t105 -43t43 -105t-43 -105t-105 -43z" />
    <glyph glyph-name="Epsilontonos" unicode="&#x388;" 
d="M360 0v1420h740v-190h-540v-424h360v-190h-360v-426h540v-190h-740zM-1 1040l90 380h212l-110 -380h-192z" />
    <glyph glyph-name="Etatonos" unicode="&#x389;" 
d="M860 0v612h-320v-612h-200v1420h200v-618h320v618h200v-1420h-200zM-1 1040l90 380h212l-110 -380h-192z" />
    <glyph glyph-name="Iotatonos" unicode="&#x38a;" 
d="M368 0v190h231v1040h-231v190h664v-190h-233v-1040h233v-190h-664zM-1 1040l90 380h212l-110 -380h-192z" />
    <glyph glyph-name="Omicrontonos" unicode="&#x38c;" 
d="M700 -20q-424 0 -424 720q0 740 424 740t424 -740q0 -720 -424 -720zM700 164q214 0 214 536q0 556 -214 556t-214 -556q0 -536 214 -536zM-1 1040l90 380h212l-110 -380h-192z" />
    <glyph glyph-name="Upsilontonos" unicode="&#x38e;" 
d="M653 0v513l-317 907h220l186 -710h18l196 710h220l-323 -908v-512h-200zM-1 1040l90 380h212l-110 -380h-192z" />
    <glyph glyph-name="Omegatonos" unicode="&#x38f;" 
d="M304 0v186h236v17q-264 59 -264 557q0 680 424 680t424 -680q0 -506 -240 -554v-20h212v-186h-342v186q160 79 160 574q0 496 -214 496t-214 -496q0 -486 184 -574v-186h-366zM-1 1040l90 380h212l-110 -380h-192z" />
    <glyph glyph-name="iotadieresistonos" unicode="&#x390;" 
d="M764 -20q-177 0 -255.5 99.5t-78.5 320.5v484h-300v176h512v-650q0 -67 7.5 -109t29.5 -73.5t62 -44.5t103 -13q78 0 196 38l24 -186q-144 -42 -300 -42zM416 1248l130 380h212l-150 -380h-192zM228 1238q-56 0 -95 39t-39 95t39 95t95 39t95 -39t39 -95t-39 -95t-95 -39
zM898 1238q-56 0 -95 39t-39 95t39 95t95 39t95 -39t39 -95t-39 -95t-95 -39z" />
    <glyph glyph-name="Alpha" unicode="&#x391;" 
d="M45 0l410 1420h290l410 -1420h-210l-93 346h-504l-93 -346h-210zM399 536h402l-192 712h-18z" />
    <glyph glyph-name="Beta" unicode="&#x392;" 
d="M160 0v1420h422q216 0 334 -94t118 -266q0 -129 -88 -207t-252 -95v-12q211 -3 325.5 -96t114.5 -260q0 -186 -112.5 -288t-317.5 -102h-544zM360 190h286q132 0 205 60.5t73 169.5q0 112 -76.5 173.5t-215.5 61.5h-272v-465zM360 845h226q114 0 176 50.5t62 144.5
q0 91 -65.5 140.5t-186.5 49.5h-212v-385z" />
    <glyph glyph-name="Gamma" unicode="&#x393;" 
d="M180 0v1420h910v-190h-710v-1230h-200z" />
    <glyph glyph-name="uni0394" unicode="&#x394;" 
d="M45 0l410 1420h290l410 -1420h-1110zM306 190h588l-285 1058h-18z" />
    <glyph glyph-name="Epsilon" unicode="&#x395;" 
d="M160 0v1420h940v-190h-740v-424h560v-190h-560v-426h740v-190h-940z" />
    <glyph glyph-name="Zeta" unicode="&#x396;" 
d="M150 0v190l664 1040h-664v190h900v-190l-669 -1040h689v-190h-920z" />
    <glyph glyph-name="Eta" unicode="&#x397;" 
d="M860 0v612h-520v-612h-200v1420h200v-618h520v618h200v-1420h-200z" />
    <glyph glyph-name="Theta" unicode="&#x398;" 
d="M600 -20q-524 0 -524 720q0 740 524 740t524 -740q0 -720 -524 -720zM600 164q288 0 312 452h-624q24 -452 312 -452zM289 804h622q-28 452 -311 452t-311 -452z" />
    <glyph glyph-name="Iota" unicode="&#x399;" 
d="M168 0v190h331v1040h-331v190h864v-190h-333v-1040h333v-190h-864z" />
    <glyph glyph-name="Kappa" unicode="&#x39a;" 
d="M150 0v1420h200v-768q134 12 239.5 81t169.5 176.5t96.5 237t32.5 273.5h206q0 -222 -74.5 -420t-211.5 -334l354 -666h-242l-281 541q-134 -71 -289 -86v-455h-200z" />
    <glyph glyph-name="Lambda" unicode="&#x39b;" 
d="M45 0l410 1420h290l410 -1420h-220l-326 1248h-18l-326 -1248h-220z" />
    <glyph glyph-name="Mu" unicode="&#x39c;" 
d="M128 0v1420h302l162 -610h16l162 610h302v-1420h-192v1168h-26l-162 -588h-184l-162 588h-26v-1168h-192z" />
    <glyph glyph-name="Nu" unicode="&#x39d;" 
d="M800 0l-440 1080h-20v-1080h-192v1420h252l440 -1080h20v1080h192v-1420h-252z" />
    <glyph glyph-name="Xi" unicode="&#x39e;" 
d="M100 0v190h1000v-190h-1000zM100 1230v190h1000v-190h-1000zM190 616v190h820v-190h-820z" />
    <glyph glyph-name="Omicron" unicode="&#x39f;" 
d="M600 -20q-524 0 -524 720q0 740 524 740t524 -740q0 -720 -524 -720zM600 164q314 0 314 536q0 556 -314 556t-314 -556q0 -536 314 -536z" />
    <glyph glyph-name="Pi" unicode="&#x3a0;" 
d="M860 0v1230h-520v-1230h-200v1420h920v-1420h-200z" />
    <glyph glyph-name="Rho" unicode="&#x3a1;" 
d="M160 0v1420h418q267 0 404.5 -119t137.5 -351q0 -251 -137.5 -380.5t-404.5 -129.5h-218v-440h-200zM360 630h218q163 0 247.5 81t84.5 239q0 138 -84 209t-248 71h-218v-600z" />
    <glyph glyph-name="Sigma" unicode="&#x3a3;" 
d="M150 0v176l441 537l-441 517v190h900v-190h-629l426 -517l-449 -537h672v-176h-920z" />
    <glyph glyph-name="Tau" unicode="&#x3a4;" 
d="M500 0v1230h-420v190h1040v-190h-420v-1230h-200z" />
    <glyph glyph-name="Upsilon" unicode="&#x3a5;" 
d="M500 0v503l-475 917h220l346 -710h18l346 710h220l-475 -917v-503h-200z" />
    <glyph glyph-name="Phi" unicode="&#x3a6;" 
d="M514 -20v164q-448 44 -448 566q0 541 448 586v164h170v-164q450 -45 450 -586q0 -524 -450 -566v-164h-170zM674 1130v-820q260 42 260 400q0 377 -260 420zM524 310v820q-258 -45 -258 -420q0 -356 258 -400z" />
    <glyph glyph-name="Chi" unicode="&#x3a7;" 
d="M905 0l-305 533l-305 -533h-230l435 703l-435 717h230l305 -544l305 544h230l-435 -717l435 -703h-230z" />
    <glyph glyph-name="Psi" unicode="&#x3a8;" 
d="M499 504v916h200v-916q225 50 225 346v570h200v-570q0 -487 -425 -535v-315h-200v316q-423 48 -423 534v570h200v-570q0 -295 223 -346z" />
    <glyph glyph-name="uni03A9" unicode="&#x3a9;" 
d="M104 0v186h246v17q-274 58 -274 557q0 680 524 680t524 -680q0 -506 -250 -554v-20h222v-186h-402v186q220 79 220 574q0 496 -314 496t-314 -496q0 -486 244 -574v-186h-426z" />
    <glyph glyph-name="Iotadieresis" unicode="&#x3aa;" 
d="M168 0v190h331v1040h-331v190h864v-190h-333v-1040h333v-190h-864zM392 1580q-56 0 -95 39t-39 95t39 95t95 39t95 -39t39 -95t-39 -95t-95 -39zM808 1580q-56 0 -95 39t-39 95t39 95t95 39t95 -39t39 -95t-39 -95t-95 -39z" />
    <glyph glyph-name="Upsilondieresis" unicode="&#x3ab;" 
d="M500 0v503l-475 917h220l346 -710h18l346 710h220l-475 -917v-503h-200zM392 1580q-56 0 -95 39t-39 95t39 95t95 39t95 -39t39 -95t-39 -95t-95 -39zM808 1580q-56 0 -95 39t-39 95t39 95t95 39t95 -39t39 -95t-39 -95t-95 -39z" />
    <glyph glyph-name="alphatonos" unicode="&#x3ac;" 
d="M498 -20q-202 0 -312 140t-110 400q0 267 113.5 413.5t320.5 146.5q245 0 270 -212h20v192h212v-868l146 -22v-170l-340 -10l-14 202h-24q-11 -104 -85.5 -158t-196.5 -54zM800 460v140q0 142 -63.5 221t-176.5 79q-131 0 -202.5 -99t-71.5 -281q0 -178 66.5 -269
t197.5 -91q118 0 184 79t66 221zM479 1248l170 380h212l-190 -380h-192z" />
    <glyph glyph-name="epsilontonos" unicode="&#x3ad;" 
d="M626 -20q-460 0 -460 300q0 208 306 250v20q-276 70 -276 272q0 258 446 258q283 0 408 -58l-65 -181q-138 55 -321 55q-247 0 -247 -124q0 -140 417 -156l-24 -181h-32q-391 0 -391 -145q0 -126 247 -126q30 0 59.5 1.5t52 3.5t50 6.5t43 7t42 9t36 9t36 10t32.5 8.5
l55 -191q-177 -48 -414 -48zM539 1248l170 380h212l-190 -380h-192z" />
    <glyph glyph-name="etatonos" unicode="&#x3ae;" 
d="M820 -460v1150q0 100 -50 155t-140 55q-250 0 -250 -304v-596h-212v1060h192l17 -192h23q18 212 280 212q168 0 260 -102t92 -288v-1150h-212zM489 1248l170 380h212l-190 -380h-192z" />
    <glyph glyph-name="iotatonos" unicode="&#x3af;" 
d="M764 -20q-177 0 -255.5 99.5t-78.5 320.5v484h-300v176h512v-650q0 -67 7.5 -109t29.5 -73.5t62 -44.5t103 -13q78 0 196 38l24 -186q-144 -42 -300 -42zM435 1248l170 380h212l-190 -380h-192z" />
    <glyph glyph-name="upsilondieresistonos" unicode="&#x3b0;" 
d="M640 -20q-405 0 -405 430v320q0 77 -25 108.5t-87 31.5h-118v190h158q157 0 220.5 -62.5t63.5 -217.5v-370q0 -240 193 -240q192 0 192 240v650h212v-650q0 -430 -404 -430zM480 1248l130 380h212l-150 -380h-192zM292 1238q-56 0 -95 39t-39 95t39 95t95 39t95 -39
t39 -95t-39 -95t-95 -39zM962 1238q-56 0 -95 39t-39 95t39 95t95 39t95 -39t39 -95t-39 -95t-95 -39z" />
    <glyph glyph-name="alpha" unicode="&#x3b1;" 
d="M498 -20q-202 0 -312 140t-110 400q0 267 113.5 413.5t320.5 146.5q245 0 270 -212h20v192h212v-868l146 -22v-170l-340 -10l-14 202h-24q-11 -104 -85.5 -158t-196.5 -54zM800 460v140q0 142 -63.5 221t-176.5 79q-131 0 -202.5 -99t-71.5 -281q0 -178 66.5 -269
t197.5 -91q118 0 184 79t66 221z" />
    <glyph glyph-name="beta" unicode="&#x3b2;" 
d="M654 -20q-114 0 -182 51t-80 145h-20v-636h-212v1403q0 245 117 371t345 126q203 0 307.5 -91t104.5 -269q0 -126 -72.5 -203t-207.5 -97v-14q153 -4 236.5 -99t83.5 -267q0 -200 -110 -310t-310 -110zM372 470q0 -300 244 -300q113 0 175.5 65.5t62.5 184.5
q0 122 -63.5 188.5t-178.5 66.5h-104v190h98q99 0 153.5 53.5t54.5 151.5q0 89 -49 134.5t-143 45.5q-123 0 -186.5 -78.5t-63.5 -231.5v-470z" />
    <glyph glyph-name="gamma" unicode="&#x3b3;" 
d="M276 -460q10 187 10 470q0 292 -22.5 458t-76.5 270t-161 187l122 175q131 -95 202 -204t105 -274t41 -436q422 103 422 874h212q0 -976 -632 -1070q0 -270 -10 -450h-212z" />
    <glyph glyph-name="delta" unicode="&#x3b4;" 
d="M603 -20q-225 0 -351 112.5t-126 313.5q0 176 88.5 278t251.5 112v22q-139 46 -202.5 113.5t-63.5 169.5q0 162 113.5 250.5t320.5 88.5q220 0 400 -107l-102 -163q-127 80 -298 80q-117 0 -169.5 -30.5t-52.5 -98.5q0 -58 46 -94t158 -67q96 -26 164.5 -54t129 -70
t97 -95.5t57 -129.5t20.5 -175q0 -215 -127 -335.5t-354 -120.5zM605 164q125 0 195 77t70 215q0 131 -75 210.5t-199 79.5q-116 0 -186 -85t-70 -225q0 -128 70 -200t195 -72z" />
    <glyph glyph-name="epsilon" unicode="&#x3b5;" 
d="M626 -20q-460 0 -460 300q0 208 306 250v20q-276 70 -276 272q0 258 446 258q283 0 408 -58l-65 -181q-138 55 -321 55q-247 0 -247 -124q0 -140 417 -156l-24 -181h-32q-391 0 -391 -145q0 -126 247 -126q30 0 59.5 1.5t52 3.5t50 6.5t43 7t42 9t36 9t36 10t32.5 8.5
l55 -191q-177 -48 -414 -48z" />
    <glyph glyph-name="zeta" unicode="&#x3b6;" 
d="M767 -480l-95 180q200 58 200 174q0 50 -36.5 78t-103.5 28q-266 0 -411 135.5t-145 386.5q0 465 626 785v27h-570v186h844v-186q-363 -231 -526.5 -421t-163.5 -381q0 -166 104 -254t296 -88q141 0 218.5 -77.5t77.5 -218.5q0 -273 -315 -354z" />
    <glyph glyph-name="eta" unicode="&#x3b7;" 
d="M820 -460v1150q0 100 -50 155t-140 55q-250 0 -250 -304v-596h-212v1060h192l17 -192h23q18 212 280 212q168 0 260 -102t92 -288v-1150h-212z" />
    <glyph glyph-name="theta" unicode="&#x3b8;" 
d="M600 -20q-244 0 -354 173t-110 557t110 557t354 173t354 -173t110 -557t-110 -557t-354 -173zM600 164q127 0 190 108.5t72 345.5h-524q9 -237 72 -345.5t190 -108.5zM338 808h524q-10 234 -73 341t-189 107t-189 -107t-73 -341z" />
    <glyph glyph-name="iota" unicode="&#x3b9;" 
d="M764 -20q-177 0 -255.5 99.5t-78.5 320.5v484h-300v176h512v-650q0 -67 7.5 -109t29.5 -73.5t62 -44.5t103 -13q78 0 196 38l24 -186q-144 -42 -300 -42z" />
    <glyph glyph-name="kappa" unicode="&#x3ba;" 
d="M158 0v1060h212v-869h22q31 230 166 400l386 489l173 -119l-325 -408l358 -553h-237l-254 388l-309 -388h-192z" />
    <glyph glyph-name="lambda" unicode="&#x3bb;" 
d="M1068 -20q-135 0 -213 60.5t-121 210.5l-171 596l-36 -11q33 -136 -9 -245l-224 -591h-227l437 1054l-25 86q-26 92 -66 131t-100 39q-27 0 -62 -8l-24 186q51 12 106 12q132 0 208.5 -58t117.5 -202l258 -900q26 -92 67 -131t104 -39q27 0 62 8l24 -186
q-51 -12 -106 -12z" />
    <glyph glyph-name="uni03BC" unicode="&#x3bc;" 
d="M561 -20q-162 0 -205 224h-19l36 -664h-222v1520h212v-630q0 -115 52 -177.5t146 -62.5q118 0 176 70.5t58 229.5v570h212v-868l146 -22v-170l-340 -10l-15 214h-19q-42 -224 -218 -224z" />
    <glyph glyph-name="nu" unicode="&#x3bd;" 
d="M444 0l-113 390q-27 91 -47 151t-49 125t-59.5 106.5t-73.5 77t-96 55.5l122 175q146 -54 229.5 -180t138.5 -340l96 -380h12l290 880h226l-384 -1060h-292z" />
    <glyph glyph-name="xi" unicode="&#x3be;" 
d="M614 -20q-458 0 -458 340q0 161 95.5 253t310.5 124v18q-201 15 -288.5 89.5t-87.5 217.5q0 115 63 181t193 90v21h-300v186h904v-186h-222q-428 -15 -428 -252q0 -267 598 -267l-14 -190h-32q-582 0 -582 -265q0 -170 315 -170h95q141 0 218.5 -77.5t77.5 -218.5
q0 -273 -315 -354l-75 180q180 62 180 174q0 50 -36.5 78t-103.5 28h-108z" />
    <glyph glyph-name="omicron" unicode="&#x3bf;" 
d="M600 -20q-221 0 -342.5 144t-121.5 406t121.5 406t342.5 144t342.5 -144t121.5 -406t-121.5 -406t-342.5 -144zM600 170q117 0 180.5 93.5t63.5 266.5t-63.5 266.5t-180.5 93.5t-180.5 -93.5t-63.5 -266.5t63.5 -266.5t180.5 -93.5z" />
    <glyph glyph-name="pi" unicode="&#x3c0;" 
d="M968 -20q-147 0 -212.5 78t-65.5 252v560h-250v-870h-212v870h-168v190h1040v-190h-198v-550q0 -83 25 -116.5t101 -33.5q20 0 62 8l24 -186q-67 -12 -146 -12z" />
    <glyph glyph-name="rho" unicode="&#x3c1;" 
d="M672 -20q-119 0 -190.5 54.5t-81.5 159.5h-20v-654h-212v1045q0 244 118.5 369.5t349.5 125.5t349.5 -142t118.5 -418q0 -260 -112.5 -400t-319.5 -140zM380 486q0 -165 58.5 -245.5t179.5 -80.5q137 0 206.5 91t69.5 269q0 188 -65.5 284t-192.5 96q-126 0 -191 -82
t-65 -242v-90z" />
    <glyph glyph-name="uni03C2" unicode="&#x3c2;" 
d="M697 -480l-95 180q98 28 152 73.5t54 100.5q0 49 -31 77t-86 29h-89q-223 0 -344.5 143t-121.5 409q0 260 140 404t398 144q155 0 265.5 -57.5t157.5 -162.5l-163 -123q-45 73 -115 113t-153 40q-147 0 -228.5 -91t-81.5 -257q0 -181 77.5 -276.5t222.5 -95.5h90
q130 -2 201 -79.5t71 -216.5q0 -130 -84 -222.5t-237 -131.5z" />
    <glyph glyph-name="sigma" unicode="&#x3c3;" 
d="M565 -20q-226 0 -342.5 134.5t-116.5 395.5q0 262 120.5 406t338.5 144h605v-190h-381v-24q97 -16 161 -123.5t64 -252.5q0 -241 -114 -365.5t-335 -124.5zM565 170q113 0 171 86.5t58 253.5q0 172 -59.5 266t-169.5 94q-115 0 -177 -93.5t-62 -266.5q0 -167 60.5 -253.5
t178.5 -86.5z" />
    <glyph glyph-name="tau" unicode="&#x3c4;" 
d="M744 -20q-177 0 -255.5 99.5t-78.5 320.5v470h-300v190h940v-190h-428v-460q0 -67 7.5 -109t29.5 -73.5t62 -44.5t103 -13q78 0 196 38l24 -186q-144 -42 -300 -42z" />
    <glyph glyph-name="upsilon" unicode="&#x3c5;" 
d="M640 -20q-405 0 -405 430v320q0 77 -25 108.5t-87 31.5h-118v190h158q157 0 220.5 -62.5t63.5 -217.5v-370q0 -240 193 -240q192 0 192 240v650h212v-650q0 -430 -404 -430z" />
    <glyph glyph-name="phi" unicode="&#x3c6;" 
d="M494 -440l23 424q-431 42 -431 546t430 546l-22 424h212l-22 -424q430 -42 430 -546t-431 -546l23 -424h-212zM519 147v766q-233 -46 -233 -383t233 -383zM681 913v-766q233 46 233 383t-233 383z" />
    <glyph glyph-name="chi" unicode="&#x3c7;" 
d="M1023 -440q-133 0 -210.5 61t-134.5 210l-104 268l-248 -519h-240l410 722l-162 418q-35 92 -80 131t-111 39q-27 0 -62 -8l-24 186q51 12 106 12q131 0 206 -58.5t130 -201.5l114 -294l261 534h240l-424 -735l157 -405q36 -93 81.5 -131.5t114.5 -38.5q27 0 62 8
l24 -186q-51 -12 -106 -12z" />
    <glyph glyph-name="psi" unicode="&#x3c8;" 
d="M499 -440l15 425q-408 45 -408 545v530h202v-530q0 -314 211 -362l-15 1332h192l-15 -1332q211 48 211 362v530h202v-530q0 -500 -408 -545l15 -425h-202z" />
    <glyph glyph-name="omega" unicode="&#x3c9;" 
d="M827 -20q-103 0 -157.5 81.5t-71.5 262.5h-8q-17 -181 -74 -262.5t-165 -81.5q-119 0 -182 88.5t-63 251.5v740h212v-740q0 -77 24 -118.5t69 -41.5q47 0 70 47t23 153v500h180v-500q0 -106 23 -153t70 -47q45 0 69 41.5t24 118.5v740h212v-740q0 -164 -65.5 -252
t-189.5 -88z" />
    <glyph glyph-name="iotadieresis" unicode="&#x3ca;" 
d="M764 -20q-177 0 -255.5 99.5t-78.5 320.5v484h-300v176h512v-650q0 -67 7.5 -109t29.5 -73.5t62 -44.5t103 -13q78 0 196 38l24 -186q-144 -42 -300 -42zM328 1238q-56 0 -95 39t-39 95t39 95t95 39t95 -39t39 -95t-39 -95t-95 -39zM748 1238q-56 0 -95 39t-39 95t39 95
t95 39t95 -39t39 -95t-39 -95t-95 -39z" />
    <glyph glyph-name="upsilondieresis" unicode="&#x3cb;" 
d="M640 -20q-405 0 -405 430v320q0 77 -25 108.5t-87 31.5h-118v190h158q157 0 220.5 -62.5t63.5 -217.5v-370q0 -240 193 -240q192 0 192 240v650h212v-650q0 -430 -404 -430zM392 1238q-56 0 -95 39t-39 95t39 95t95 39t95 -39t39 -95t-39 -95t-95 -39zM812 1238
q-56 0 -95 39t-39 95t39 95t95 39t95 -39t39 -95t-39 -95t-95 -39z" />
    <glyph glyph-name="omicrontonos" unicode="&#x3cc;" 
d="M600 -20q-221 0 -342.5 144t-121.5 406t121.5 406t342.5 144t342.5 -144t121.5 -406t-121.5 -406t-342.5 -144zM600 170q117 0 180.5 93.5t63.5 266.5t-63.5 266.5t-180.5 93.5t-180.5 -93.5t-63.5 -266.5t63.5 -266.5t180.5 -93.5zM499 1248l170 380h212l-190 -380h-192
z" />
    <glyph glyph-name="upsilontonos" unicode="&#x3cd;" 
d="M640 -20q-405 0 -405 430v320q0 77 -25 108.5t-87 31.5h-118v190h158q157 0 220.5 -62.5t63.5 -217.5v-370q0 -240 193 -240q192 0 192 240v650h212v-650q0 -430 -404 -430zM499 1248l170 380h212l-190 -380h-192z" />
    <glyph glyph-name="omegatonos" unicode="&#x3ce;" 
d="M827 -20q-103 0 -157.5 81.5t-71.5 262.5h-8q-17 -181 -74 -262.5t-165 -81.5q-119 0 -182 88.5t-63 251.5v740h212v-740q0 -77 24 -118.5t69 -41.5q47 0 70 47t23 153v500h180v-500q0 -106 23 -153t70 -47q45 0 69 41.5t24 118.5v740h212v-740q0 -164 -65.5 -252
t-189.5 -88zM499 1248l170 380h212l-190 -380h-192z" />
    <glyph glyph-name="uni03CF" unicode="&#x3cf;" 
d="M150 0v1420h200v-768q134 12 239.5 81t169.5 176.5t96.5 237t32.5 273.5h206q0 -218 -71.5 -413.5t-205.5 -330.5l289 -443q32 -50 44 -89t12 -97v-442h-200v422q0 36 -12 67t-44 79l-251 377q-139 -80 -305 -95v-455h-200z" />
    <glyph glyph-name="uni03D7" unicode="&#x3d7;" 
d="M350 0h-192v1060h212v-869h22q31 230 166 400l386 489l173 -119l-322 -403l249 -323q33 -43 47 -84.5t14 -100.5v-445h-212v407q0 91 -40 142l-188 240z" />
    <glyph glyph-name="uni0400" unicode="&#x400;" 
d="M160 0v1420h940v-190h-740v-424h560v-190h-560v-426h740v-190h-940zM539 1580l-270 250h282l220 -250h-232z" />
    <glyph glyph-name="uni0401" unicode="&#x401;" 
d="M160 0v1420h940v-190h-740v-424h560v-190h-560v-426h740v-190h-940zM422 1580q-56 0 -95 39t-39 95t39 95t95 39t95 -39t39 -95t-39 -95t-95 -39zM838 1580q-56 0 -95 39t-39 95t39 95t95 39t95 -39t39 -95t-39 -95t-95 -39z" />
    <glyph glyph-name="uni0402" unicode="&#x402;" 
d="M612 0v190q270 0 270 255q0 249 -252 249h-190v-694h-200v1230h-250v190h820v-190h-370v-346h190q452 0 452 -439q0 -445 -470 -445z" />
    <glyph glyph-name="uni0403" unicode="&#x403;" 
d="M180 0v1420h910v-190h-710v-1230h-200zM489 1580l220 250h282l-270 -250h-232z" />
    <glyph glyph-name="uni0404" unicode="&#x404;" 
d="M758 -20q-662 0 -662 732q0 347 167 537.5t471 190.5q147 0 256 -47t159 -132l-148 -147q-45 68 -114.5 105t-150.5 37q-179 0 -293.5 -113.5t-137.5 -320.5h557v-190h-558q38 -468 488 -468q145 0 286 60l46 -176q-174 -68 -366 -68z" />
    <glyph glyph-name="uni0405" unicode="&#x405;" 
d="M551 -20q-242 0 -422 78l26 202q222 -96 412 -96q276 0 276 198q0 127 -130 186l-246 112q-150 68 -225 162t-75 228q0 186 112 288t317 102q143 0 253 -42.5t212 -136.5l-140 -142q-89 72 -165.5 104.5t-158.5 32.5q-104 0 -160 -50t-56 -146q0 -67 35.5 -111t110.5 -79
l208 -98q165 -78 243.5 -172t78.5 -234q0 -386 -506 -386z" />
    <glyph glyph-name="uni0406" unicode="&#x406;" 
d="M168 0v190h331v1040h-331v190h864v-190h-333v-1040h333v-190h-864z" />
    <glyph glyph-name="uni0407" unicode="&#x407;" 
d="M168 0v190h331v1040h-331v190h864v-190h-333v-1040h333v-190h-864zM392 1580q-56 0 -95 39t-39 95t39 95t95 39t95 -39t39 -95t-39 -95t-95 -39zM808 1580q-56 0 -95 39t-39 95t39 95t95 39t95 -39t39 -95t-39 -95t-95 -39z" />
    <glyph glyph-name="uni0408" unicode="&#x408;" 
d="M574 -20q-233 0 -360.5 130t-127.5 366h200q0 -150 76.5 -233t216.5 -83q136 0 209.5 82t73.5 234v754h-372v190h572v-944q0 -236 -129 -366t-359 -130z" />
    <glyph glyph-name="uni0409" unicode="&#x409;" 
d="M53 0v190q96 0 131.5 54.5t35.5 200.5v975h525v-504h119q118 0 189 -125.5t71 -332.5t-71 -332.5t-189 -125.5h-299v1230h-185v-778q0 -177 -30.5 -273t-100 -137.5t-196.5 -41.5zM745 190h61q58 0 93 73.5t35 194.5t-35 194.5t-93 73.5h-61v-536z" />
    <glyph glyph-name="uni040A" unicode="&#x40a;" 
d="M128 0v1420h200v-618h216v618h200v-504h110q122 0 196 -125.5t74 -332.5t-74 -332.5t-196 -125.5h-310v612h-216v-612h-200zM744 190h52q62 0 100 73.5t38 194.5t-38 194.5t-100 73.5h-52v-536z" />
    <glyph glyph-name="uni040B" unicode="&#x40b;" 
d="M862 0v390q0 152 -50 221t-162 69h-210v-680h-200v1230h-220v190h820v-190h-400v-360h210q217 0 314.5 -113.5t97.5 -366.5v-390h-200z" />
    <glyph glyph-name="uni040C" unicode="&#x40c;" 
d="M140 0v1420h200v-615h201q94 0 132.5 37t58.5 132l38 184q31 154 85.5 210.5t182.5 56.5h73v-190h-48q-44 0 -62.5 -22t-33.5 -82l-53 -213q-24 -99 -74 -146.5t-162 -47.5h-55v-28h55q119 0 175 -48.5t80 -145.5l53 -213q15 -60 33.5 -82t62.5 -22h48v-190h-82
q-128 0 -182.5 56.5t-85.5 210.5l-38 184q-19 94 -60 131.5t-141 37.5h-201v-615h-200zM469 1580l220 250h282l-270 -250h-232z" />
    <glyph glyph-name="uni040D" unicode="&#x40d;" 
d="M148 0v1420h192v-1070h20l480 1070h212v-1420h-192v1070h-20l-480 -1070h-212zM509 1580l-270 250h282l220 -250h-232z" />
    <glyph glyph-name="uni040E" unicode="&#x40e;" 
d="M193 0v190q126 0 208.5 19.5t137.5 64.5l-453 1146h220l351 -910h16l273 910h220l-349 -1060q-53 -141 -127.5 -217.5t-190.5 -109.5t-306 -33zM640 1570q-164 0 -254 76t-90 214h195q0 -85 37 -119.5t112 -34.5t112 34.5t37 119.5h195q0 -138 -90 -214t-254 -76z" />
    <glyph glyph-name="uni040F" unicode="&#x40f;" 
d="M500 -290v290h-360v1420h200v-1230h520v1230h200v-1420h-360v-290h-200z" />
    <glyph glyph-name="uni0410" unicode="&#x410;" 
d="M45 0l410 1420h290l410 -1420h-210l-93 346h-504l-93 -346h-210zM399 536h402l-192 712h-18z" />
    <glyph glyph-name="uni0411" unicode="&#x411;" 
d="M160 0v1420h856v-190h-656v-364h330q205 0 317.5 -110.5t112.5 -312.5q0 -211 -112.5 -327t-317.5 -116h-530zM360 190h302q118 0 183 66t65 187q0 111 -65 172t-183 61h-302v-486z" />
    <glyph glyph-name="uni0412" unicode="&#x412;" 
d="M160 0v1420h422q216 0 334 -94t118 -266q0 -129 -88 -207t-252 -95v-12q211 -3 325.5 -96t114.5 -260q0 -186 -112.5 -288t-317.5 -102h-544zM360 190h286q132 0 205 60.5t73 169.5q0 112 -76.5 173.5t-215.5 61.5h-272v-465zM360 845h226q114 0 176 50.5t62 144.5
q0 91 -65.5 140.5t-186.5 49.5h-212v-385z" />
    <glyph glyph-name="uni0413" unicode="&#x413;" 
d="M180 0v1420h910v-190h-710v-1230h-200z" />
    <glyph glyph-name="uni0414" unicode="&#x414;" 
d="M30 -290v480h92q52 87 83.5 291.5t31.5 387.5v551h807v-1230h126v-480h-200v290h-740v-290h-200zM844 190v1040h-422v-355q0 -180 -27.5 -380.5t-78.5 -304.5h528z" />
    <glyph glyph-name="uni0415" unicode="&#x415;" 
d="M160 0v1420h940v-190h-740v-424h560v-190h-560v-426h740v-190h-940z" />
    <glyph glyph-name="uni0416" unicode="&#x416;" 
d="M27 -5v190h23q21 0 35 16t14 48v296q0 63 41.5 99.5t112.5 41.5l26 2v44l-26 2q-71 5 -112.5 41.5t-41.5 99.5v296q0 32 -14 48t-35 16h-23v190h90q87 0 130.5 -47.5t43.5 -149.5v-332q0 -59 11.5 -75t66.5 -16h146v615h170v-615h146q55 0 66.5 16t11.5 75v332
q0 102 43.5 149.5t130.5 47.5h90v-190h-23q-21 0 -35 -16t-14 -48v-296q0 -63 -41.5 -99.5t-112.5 -41.5l-36 -2v-44l36 -2q71 -5 112.5 -41.5t41.5 -99.5v-296q0 -32 14 -48t35 -16h23v-190h-90q-87 0 -130.5 47.5t-43.5 149.5v332q0 59 -11.5 75t-66.5 16h-146v-615h-170
v615h-146q-55 0 -66.5 -16t-11.5 -75v-332q0 -102 -43.5 -149.5t-130.5 -47.5h-90z" />
    <glyph glyph-name="uni0417" unicode="&#x417;" 
d="M566 -20q-308 0 -502 171l144 141q97 -71 175 -99.5t188 -28.5q137 0 215 66.5t78 184.5q0 112 -90 174.5t-240 62.5h-150l-22 188q240 7 345 59t105 159q0 89 -84 143t-258 54q-85 0 -257 -40l-25 184q134 41 285 41q277 0 410 -92t133 -255q0 -126 -81.5 -205
t-263.5 -121v-12q80 -4 151.5 -29t127.5 -69t89 -112t33 -151q0 -189 -137 -301.5t-369 -112.5z" />
    <glyph glyph-name="uni0418" unicode="&#x418;" 
d="M148 0v1420h192v-1070h20l480 1070h212v-1420h-192v1070h-20l-480 -1070h-212z" />
    <glyph glyph-name="uni0419" unicode="&#x419;" 
d="M148 0v1420h192v-1070h20l480 1070h212v-1420h-192v1070h-20l-480 -1070h-212zM600 1570q-164 0 -254 76t-90 214h195q0 -85 37 -119.5t112 -34.5t112 34.5t37 119.5h195q0 -138 -90 -214t-254 -76z" />
    <glyph glyph-name="uni041A" unicode="&#x41a;" 
d="M140 0v1420h200v-615h201q94 0 132.5 37t58.5 132l38 184q31 154 85.5 210.5t182.5 56.5h73v-190h-48q-44 0 -62.5 -22t-33.5 -82l-53 -213q-24 -99 -74 -146.5t-162 -47.5h-55v-28h55q119 0 175 -48.5t80 -145.5l53 -213q15 -60 33.5 -82t62.5 -22h48v-190h-82
q-128 0 -182.5 56.5t-85.5 210.5l-38 184q-19 94 -60 131.5t-141 37.5h-201v-615h-200z" />
    <glyph glyph-name="uni041B" unicode="&#x41b;" 
d="M37 1v190q44 0 77.5 10.5t56.5 27t38.5 48t24.5 61t13.5 79.5t5.5 90.5t1 106.5v806h806v-1420h-200v1230h-421v-609q0 -71 -1.5 -122.5t-6.5 -109.5t-14 -99.5t-23.5 -84.5t-36 -72t-51.5 -56t-68.5 -42.5t-89 -24.5t-111.5 -9z" />
    <glyph glyph-name="uni041C" unicode="&#x41c;" 
d="M128 0v1420h302l162 -610h16l162 610h302v-1420h-192v1168h-26l-162 -588h-184l-162 588h-26v-1168h-192z" />
    <glyph glyph-name="uni041D" unicode="&#x41d;" 
d="M860 0v612h-520v-612h-200v1420h200v-618h520v618h200v-1420h-200z" />
    <glyph glyph-name="uni041E" unicode="&#x41e;" 
d="M600 -20q-524 0 -524 720q0 740 524 740t524 -740q0 -720 -524 -720zM600 164q314 0 314 536q0 556 -314 556t-314 -556q0 -536 314 -536z" />
    <glyph glyph-name="uni041F" unicode="&#x41f;" 
d="M860 0v1230h-520v-1230h-200v1420h920v-1420h-200z" />
    <glyph glyph-name="uni0420" unicode="&#x420;" 
d="M160 0v1420h418q267 0 404.5 -119t137.5 -351q0 -251 -137.5 -380.5t-404.5 -129.5h-218v-440h-200zM360 630h218q163 0 247.5 81t84.5 239q0 138 -84 209t-248 71h-218v-600z" />
    <glyph glyph-name="uni0421" unicode="&#x421;" 
d="M748 -20q-662 0 -662 732q0 347 167 537.5t471 190.5q147 0 256 -47t159 -132l-148 -147q-45 68 -114.5 105t-150.5 37q-196 0 -311 -140.5t-115 -393.5q0 -558 482 -558q145 0 286 60l46 -176q-174 -68 -366 -68z" />
    <glyph glyph-name="uni0422" unicode="&#x422;" 
d="M500 0v1230h-420v190h1040v-190h-420v-1230h-200z" />
    <glyph glyph-name="uni0423" unicode="&#x423;" 
d="M193 0v190q126 0 208.5 19.5t137.5 64.5l-453 1146h220l351 -910h16l273 910h220l-349 -1060q-53 -141 -127.5 -217.5t-190.5 -109.5t-306 -33z" />
    <glyph glyph-name="uni0424" unicode="&#x424;" 
d="M514 -20v164q-448 44 -448 566q0 541 448 586v164h170v-164q450 -45 450 -586q0 -524 -450 -566v-164h-170zM674 1130v-820q260 42 260 400q0 377 -260 420zM524 310v820q-258 -45 -258 -420q0 -356 258 -400z" />
    <glyph glyph-name="uni0425" unicode="&#x425;" 
d="M905 0l-305 533l-305 -533h-230l435 703l-435 717h230l305 -544l305 544h230l-435 -717l435 -703h-230z" />
    <glyph glyph-name="uni0426" unicode="&#x426;" 
d="M140 0v1420h200v-1230h510v1230h200v-1230h110v-480h-200v290h-820z" />
    <glyph glyph-name="uni0427" unicode="&#x427;" 
d="M530 545q-232 0 -336 113.5t-104 366.5v395h200v-395q0 -152 57 -221t183 -69h280v685h200v-1420h-200v545h-280z" />
    <glyph glyph-name="uni0428" unicode="&#x428;" 
d="M128 0v1420h200v-1240h187v1240h170v-1240h187v1240h200v-1420h-944z" />
    <glyph glyph-name="uni0429" unicode="&#x429;" 
d="M128 0v1420h200v-1240h187v1240h170v-1240h187v1240h200v-1240h88v-470h-200v290h-832z" />
    <glyph glyph-name="uni042A" unicode="&#x42a;" 
d="M240 0v1230h-250v190h450v-504h254q194 0 312 -125.5t118 -332.5t-118 -332.5t-312 -125.5h-454zM440 190h196q126 0 202 73.5t76 194.5t-76 194.5t-202 73.5h-196v-536z" />
    <glyph glyph-name="uni042B" unicode="&#x42b;" 
d="M128 0v1420h200v-504h126q136 0 218 -125.5t82 -332.5t-82 -332.5t-218 -125.5h-326zM882 0v1420h190v-1420h-190zM328 190h68q76 0 122 73.5t46 194.5t-46 194.5t-122 73.5h-68v-536z" />
    <glyph glyph-name="uni042C" unicode="&#x42c;" 
d="M140 0v1420h200v-504h344q194 0 312 -125.5t118 -332.5t-118 -332.5t-312 -125.5h-544zM340 190h286q126 0 202 73.5t76 194.5t-76 194.5t-202 73.5h-286v-536z" />
    <glyph glyph-name="uni042D" unicode="&#x42d;" 
d="M476 -20q-281 0 -459 171l144 141q88 -73 158 -100.5t168 -27.5q179 0 285.5 123.5t122.5 344.5h-562v190h557q-25 210 -144 322t-325 112q-147 0 -289 -50l-46 176q175 58 369 58q319 0 484 -186.5t165 -540.5q0 -349 -159.5 -541t-468.5 -192z" />
    <glyph glyph-name="uni042E" unicode="&#x42e;" 
d="M775 -20q-173 0 -256 150.5t-92 481.5h-157v-612h-190v1420h190v-618h157q10 334 93.5 486t254.5 152q184 0 266.5 -175.5t82.5 -564.5q0 -379 -82.5 -549.5t-266.5 -170.5zM765 164q84 0 121.5 127t37.5 409q0 293 -37.5 424.5t-121.5 131.5t-121.5 -131.5t-37.5 -424.5
q0 -282 37.5 -409t121.5 -127z" />
    <glyph glyph-name="uni042F" unicode="&#x42f;" 
d="M72 -5v190h33q45 0 73.5 22t46.5 88l36 130q29 105 80.5 142t133.5 37h23l-1 25q-385 18 -385 367q0 201 125 312.5t347 111.5h478v-1420h-200v530h-191q-82 0 -127 -14.5t-64 -40t-32 -74.5l-51 -204q-25 -102 -86 -152t-191 -50h-48zM862 720v510h-278q-122 0 -192 -64
t-70 -186q0 -121 71 -190.5t191 -69.5h278z" />
    <glyph glyph-name="uni0430" unicode="&#x430;" 
d="M818 -10l-10 234h-21q-11 -120 -101.5 -182t-241.5 -62q-166 0 -257 80t-91 226q0 168 125 258t355 90q118 0 200 -17v49q0 104 -73.5 154.5t-222.5 54.5l-254 7l20 188l214 -3q518 -7 518 -433v-442l180 -22v-170zM776 454q-68 10 -204 10q-276 0 -276 -168
q0 -70 47.5 -108t134.5 -38q140 0 219 69t79 161v74z" />
    <glyph glyph-name="uni0431" unicode="&#x431;" 
d="M616 -20q-249 0 -366.5 132.5t-117.5 413.5v178q0 299 128.5 454.5t412.5 203.5l369 63l10 -190l-324 -55q-217 -37 -300 -118.5t-83 -255.5v-98h23q31 110 123 171t225 61q180 0 279 -123t99 -347q0 -233 -125 -361.5t-353 -128.5zM626 164q120 0 187 78t67 218t-67 218
t-187 78q-130 0 -203 -78.5t-73 -217.5t73 -217.5t203 -78.5z" />
    <glyph glyph-name="uni0432" unicode="&#x432;" 
d="M178 0v1060h534q163 0 252.5 -70.5t89.5 -199.5q0 -105 -75.5 -164.5t-214.5 -65.5v-19q158 -3 244 -73.5t86 -197.5q0 -129 -84 -199.5t-236 -70.5h-596zM390 190h326q74 0 115 36.5t41 103.5t-44.5 103.5t-125.5 36.5h-312v-280zM390 630h286q74 0 115 31.5t41 88.5
t-44.5 88.5t-125.5 31.5h-272v-240z" />
    <glyph glyph-name="uni0433" unicode="&#x433;" 
d="M266 0v1060h754v-190h-542v-870h-212z" />
    <glyph glyph-name="uni0434" unicode="&#x434;" 
d="M40 -270v460h101q98 160 98 484v386h765v-870h126v-460h-200v270h-690v-270h-200zM792 190v680h-368v-189q0 -319 -82 -491h450z" />
    <glyph glyph-name="uni0435" unicode="&#x435;" 
d="M702 -20q-272 0 -419 143t-147 409q0 260 125 404t353 144q216 0 333 -131t117 -377q0 -73 -6 -136h-716q28 -132 126 -201t258 -69q123 0 260 28l26 -186q-147 -28 -310 -28zM334 598h538q0 142 -67.5 219t-188.5 77q-123 0 -196 -77t-86 -219z" />
    <glyph glyph-name="uni0436" unicode="&#x436;" 
d="M37 -10v190h43q25 0 42 15t17 44v134q0 62 40.5 98.5t104.5 42.5l38 3v26l-38 3q-64 6 -104.5 42.5t-40.5 98.5v134q0 29 -17 44t-42 15h-43v190h73q106 0 159.5 -46.5t53.5 -145.5v-170v-3q0 -57 10.5 -72.5t60.5 -15.5h115v443h180v-443h117q50 0 60.5 15.5t10.5 72.5
v3v170q0 99 53.5 145.5t159.5 46.5h73v-190h-43q-25 0 -42 -15t-17 -44v-134q0 -62 -40.5 -98.5t-104.5 -42.5l-38 -3v-26l38 -3q64 -6 104.5 -42.5t40.5 -98.5v-134q0 -29 17 -44t42 -15h43v-190h-73q-106 0 -159.5 46.5t-53.5 145.5v170v3q0 57 -10.5 72.5t-60.5 15.5
h-117v-443h-180v443h-115q-50 0 -60.5 -15.5t-10.5 -72.5v-3v-170q0 -99 -53.5 -145.5t-159.5 -46.5h-73z" />
    <glyph glyph-name="uni0437" unicode="&#x437;" 
d="M556 -20q-301 0 -441 130l102 148q67 -49 156.5 -71.5t174.5 -22.5q268 0 268 151q0 79 -83 116.5t-279 37.5h-42l-11 164h56q133 0 204.5 15t92.5 38.5t21 65.5q0 144 -287 144q-33 0 -66 -2t-55 -4.5t-67.5 -7.5t-74.5 -8l-25 180q14 2 47 6.5t47.5 6.5t44 5t51.5 4.5
t54 2.5t66 1q230 0 357.5 -67.5t127.5 -205.5q0 -86 -70 -153t-195 -84v-20q306 -45 306 -260q0 -141 -130.5 -225.5t-349.5 -84.5z" />
    <glyph glyph-name="uni0438" unicode="&#x438;" 
d="M168 0v1060h212v-770h20l415 770h217v-1060h-212v770h-20l-415 -770h-217z" />
    <glyph glyph-name="uni0439" unicode="&#x439;" 
d="M168 0v1060h212v-770h20l415 770h217v-1060h-212v770h-20l-415 -770h-217zM600 1238q-178 0 -262.5 90t-84.5 275h188q0 -116 36.5 -167.5t122.5 -51.5q87 0 123 52t36 167h188q0 -186 -85 -275.5t-262 -89.5z" />
    <glyph glyph-name="uni043A" unicode="&#x43a;" 
d="M158 0v1060h212v-435h151q61 0 87.5 18t44.5 64l69 171q46 114 100 150.5t173 36.5h58v-190h-43q-38 0 -56.5 -10.5t-32.5 -43.5l-70 -164q-25 -58 -73 -85.5t-128 -27.5h-1v-28h11q162 0 211 -113l70 -164q14 -33 32.5 -43.5t56.5 -10.5h33v-190h-58q-121 0 -179.5 37
t-103.5 150l-69 171q-18 46 -44.5 64t-87.5 18h-151v-435h-212z" />
    <glyph glyph-name="uni043B" unicode="&#x43b;" 
d="M63 0v190q120 0 164.5 64.5t44.5 239.5v566h766v-1060h-212v870h-369v-369q0 -197 -36.5 -303.5t-120 -152t-237.5 -45.5z" />
    <glyph glyph-name="uni043C" unicode="&#x43c;" 
d="M128 0v1060h292l172 -610h16l172 610h292v-1060h-202v808h-26l-162 -588h-164l-162 588h-26v-808h-202z" />
    <glyph glyph-name="uni043D" unicode="&#x43d;" 
d="M820 0v443h-440v-443h-212v1060h212v-443h440v443h212v-1060h-212z" />
    <glyph glyph-name="uni043E" unicode="&#x43e;" 
d="M600 -20q-221 0 -342.5 144t-121.5 406t121.5 406t342.5 144t342.5 -144t121.5 -406t-121.5 -406t-342.5 -144zM600 170q117 0 180.5 93.5t63.5 266.5t-63.5 266.5t-180.5 93.5t-180.5 -93.5t-63.5 -266.5t63.5 -266.5t180.5 -93.5z" />
    <glyph glyph-name="uni043F" unicode="&#x43f;" 
d="M820 0v870h-440v-870h-212v1060h864v-1060h-212z" />
    <glyph glyph-name="uni0440" unicode="&#x440;" 
d="M168 -460v1520h192l17 -192h13q14 100 90.5 156t200.5 56q208 0 315.5 -142t107.5 -418q0 -266 -107 -403t-316 -137q-122 0 -196.5 56t-84.5 156h-20v-652h-212zM380 494q0 -164 64.5 -249t189.5 -85q128 0 194 91t66 269q0 187 -66 283.5t-194 96.5q-125 0 -189.5 -85
t-64.5 -249v-72z" />
    <glyph glyph-name="uni0441" unicode="&#x441;" 
d="M702 -20q-271 0 -418.5 143t-147.5 409q0 260 140 404t398 144q155 0 265.5 -57.5t157.5 -162.5l-163 -123q-45 73 -115 113t-153 40q-150 0 -233 -91t-83 -257q0 -181 97.5 -276.5t278.5 -95.5q139 0 292 26l24 -186q-138 -30 -340 -30z" />
    <glyph glyph-name="uni0442" unicode="&#x442;" 
d="M494 0v870h-404v190h1020v-190h-404v-870h-212z" />
    <glyph glyph-name="uni0443" unicode="&#x443;" 
d="M75 -480l-10 190l166 20q128 15 210.5 77.5t138.5 192.5h-103l-422 1060h220l346 -900h15l259 900h220l-306 -966q-89 -283 -214 -406.5t-340 -147.5z" />
    <glyph glyph-name="uni0444" unicode="&#x444;" 
d="M908 -20q-81 0 -130.5 44.5t-56.5 129.5h-20v-594h-202v594h-20q-7 -85 -56.5 -129.5t-130.5 -44.5q-130 0 -188.5 128t-58.5 412q0 295 59 427.5t190 132.5q167 0 185 -202h20v622h202v-622h20q18 202 185 202q131 0 190 -132.5t59 -427.5q0 -284 -58.5 -412
t-188.5 -128zM686 340q0 -180 128 -180q69 0 100 85t31 275q0 200 -30.5 290t-98.5 90q-130 0 -130 -304v-256zM514 596q0 304 -130 304q-68 0 -98.5 -90t-30.5 -290q0 -190 31 -275t100 -85q128 0 128 180v256z" />
    <glyph glyph-name="uni0445" unicode="&#x445;" 
d="M106 0l379 524l-379 536h240l254 -371l254 371h240l-384 -528l384 -532h-240l-259 368l-249 -368h-240z" />
    <glyph glyph-name="uni0446" unicode="&#x446;" 
d="M140 0v1060h212v-870h430v870h212v-870h136v-460h-200v270h-790z" />
    <glyph glyph-name="uni0447" unicode="&#x447;" 
d="M530 380q-412 0 -412 430v250h212v-250q0 -256 220 -256h260v506h212v-1060h-212v380h-280z" />
    <glyph glyph-name="uni0448" unicode="&#x448;" 
d="M112 0v1060h212v-880h185v880h180v-880h187v880h212v-1060h-976z" />
    <glyph glyph-name="uni0449" unicode="&#x449;" 
d="M112 0v1060h212v-880h180v880h170v-880h182v880h212v-880h90v-450h-200v270h-846z" />
    <glyph glyph-name="uni044A" unicode="&#x44a;" 
d="M248 0v870h-248v190h460v-344h264q182 0 281 -93.5t99 -264.5t-99 -264.5t-281 -93.5h-476zM460 190h236q90 0 139 44t49 124t-49 124t-139 44h-236v-336z" />
    <glyph glyph-name="uni044B" unicode="&#x44b;" 
d="M112 0v1060h212v-344h93q158 0 244 -93.5t86 -264.5t-86 -264.5t-244 -93.5h-305zM876 0v1060h212v-1060h-212zM324 170h65q80 0 124 49t44 139t-44 139t-124 49h-65v-376z" />
    <glyph glyph-name="uni044C" unicode="&#x44c;" 
d="M188 0v1060h212v-344h344q172 0 266 -93.5t94 -264.5t-94 -264.5t-266 -93.5h-556zM400 190h316q80 0 124 44t44 124t-44 124t-124 44h-316v-336z" />
    <glyph glyph-name="uni044D" unicode="&#x44d;" 
d="M526 -20q-124 0 -228 34t-166 89l104 160q54 -41 132.5 -67t165.5 -26q134 0 216 71.5t99 204.5h-433v174h428q-27 132 -127 201t-263 69q-120 0 -252 -21l18 194q113 17 258 17q281 0 433.5 -143t152.5 -409q0 -260 -140 -404t-398 -144z" />
    <glyph glyph-name="uni044E" unicode="&#x44e;" 
d="M775 -20q-161 0 -239 109.5t-88 350.5h-141v-440h-197v1060h197v-446h141q11 244 89.5 355t237.5 111q184 0 266.5 -132.5t82.5 -427.5q0 -284 -82.5 -412t-266.5 -128zM765 164q78 0 113.5 84.5t35.5 271.5q0 198 -35.5 287t-113.5 89t-113.5 -89t-35.5 -287
q0 -187 35.5 -271.5t113.5 -84.5z" />
    <glyph glyph-name="uni044F" unicode="&#x44f;" 
d="M477 450q-154 0 -238 76t-84 215q0 152 105 235.5t297 83.5h470v-1060h-212v360h-103q-63 0 -99 -10t-51 -25t-32 -47l-43 -81q-30 -57 -54 -90.5t-58 -61t-78.5 -39t-107.5 -11.5h-63v190h33q38 0 61 16t48 53l50 74q33 48 77 70.5t115 22.5h20v29h-53zM815 550v320
h-258q-87 0 -134.5 -43t-47.5 -122q0 -74 47.5 -114.5t134.5 -40.5h258z" />
    <glyph glyph-name="uni0450" unicode="&#x450;" 
d="M702 -20q-272 0 -419 143t-147 409q0 260 125 404t353 144q216 0 333 -131t117 -377q0 -73 -6 -136h-716q28 -132 126 -201t258 -69q123 0 260 28l26 -186q-147 -28 -310 -28zM334 598h538q0 142 -67.5 219t-188.5 77q-123 0 -196 -77t-86 -219zM534 1248l-190 380h212
l170 -380h-192z" />
    <glyph glyph-name="uni0451" unicode="&#x451;" 
d="M702 -20q-272 0 -419 143t-147 409q0 260 125 404t353 144q216 0 333 -131t117 -377q0 -73 -6 -136h-716q28 -132 126 -201t258 -69q123 0 260 28l26 -186q-147 -28 -310 -28zM334 598h538q0 142 -67.5 219t-188.5 77q-123 0 -196 -77t-86 -219zM402 1238q-56 0 -95 39
t-39 95t39 95t95 39t95 -39t39 -95t-39 -95t-95 -39zM822 1238q-56 0 -95 39t-39 95t39 95t95 39t95 -39t39 -95t-39 -95t-95 -39z" />
    <glyph glyph-name="uni0452" unicode="&#x452;" 
d="M208 0v1146h-208v174h208v180h212v-180h350v-174h-350v-398h20q16 212 260 212q158 0 245 -102t87 -288v-546q0 -247 -96.5 -362t-311.5 -130l-110 -12l-10 188l140 18q92 8 134 72t42 194v578q0 100 -44.5 155t-125.5 55q-230 0 -230 -304v-476h-212z" />
    <glyph glyph-name="uni0453" unicode="&#x453;" 
d="M266 0v1060h754v-190h-542v-870h-212zM589 1248l170 380h212l-190 -380h-192z" />
    <glyph glyph-name="uni0454" unicode="&#x454;" 
d="M682 -20q-262 0 -404 143t-142 409q0 260 140 404t398 144q155 0 265.5 -57.5t157.5 -162.5l-163 -123q-45 73 -115 113t-153 40q-133 0 -214 -70t-101 -200h433v-174h-430q23 -135 113.5 -205.5t238.5 -70.5q150 0 312 26l24 -186q-145 -30 -360 -30z" />
    <glyph glyph-name="uni0455" unicode="&#x455;" 
d="M518 -20q-234 0 -362 30l24 192q204 -32 338 -32q160 0 233 31.5t73 100.5q0 46 -24.5 70t-79.5 38l-244 62q-164 41 -234 101.5t-70 176.5q0 174 133.5 252t430.5 78q146 0 280 -20l-22 -184q-151 14 -264 14q-179 0 -258.5 -30.5t-79.5 -99.5q0 -44 30 -65t104 -39
l196 -48q171 -42 246.5 -110t75.5 -192q0 -171 -125 -248.5t-401 -77.5z" />
    <glyph glyph-name="uni0456" unicode="&#x456;" 
d="M160 0v174h404v712h-344v174h556v-886h326v-174h-942zM663 1228q-61 0 -104.5 43t-43.5 105t43.5 105t104.5 43t104.5 -43t43.5 -105t-43.5 -105t-104.5 -43z" />
    <glyph glyph-name="uni0457" unicode="&#x457;" 
d="M160 0v174h404v712h-344v174h556v-886h326v-174h-942zM442 1238q-56 0 -95 39t-39 95t39 95t95 39t95 -39t39 -95t-39 -95t-95 -39zM862 1238q-56 0 -95 39t-39 95t39 95t95 39t95 -39t39 -95t-39 -95t-95 -39z" />
    <glyph glyph-name="uni0458" unicode="&#x458;" 
d="M180 -480l-10 188l200 18q161 15 233.5 94t72.5 242v824h-412v174h624v-966q0 -281 -126.5 -410t-411.5 -152zM760 1228q-62 0 -105 43t-43 105t43 105t105 43t105 -43t43 -105t-43 -105t-105 -43z" />
    <glyph glyph-name="uni0459" unicode="&#x459;" 
d="M63 0v190q79 0 108 32.5t29 121.5v716h563v-344h78q158 0 244 -93.5t86 -264.5t-86 -264.5t-244 -93.5h-270v886h-186v-535q0 -202 -68.5 -276.5t-253.5 -74.5zM763 190h60q71 0 109.5 44t38.5 124t-38.5 124t-109.5 44h-60v-336z" />
    <glyph glyph-name="uni045A" unicode="&#x45a;" 
d="M88 0v1060h212v-374h241v374h192v-374h108q158 0 244 -85.5t86 -242.5q0 -171 -86 -264.5t-244 -93.5h-300v512h-241v-512h-212zM733 190h90q71 0 109.5 44t38.5 124q0 73 -38.5 113.5t-109.5 40.5h-90v-322z" />
    <glyph glyph-name="uni045B" unicode="&#x45b;" 
d="M820 0v570q0 100 -44.5 155t-125.5 55q-230 0 -230 -304v-476h-212v1146h-208v174h208v180h212v-180h350v-174h-350v-398h20q16 212 260 212q158 0 245 -102t87 -288v-570h-212z" />
    <glyph glyph-name="uni045C" unicode="&#x45c;" 
d="M158 0v1060h212v-435h151q61 0 87.5 18t44.5 64l69 171q46 114 100 150.5t173 36.5h58v-190h-43q-38 0 -56.5 -10.5t-32.5 -43.5l-70 -164q-25 -58 -73 -85.5t-128 -27.5h-1v-28h11q162 0 211 -113l70 -164q14 -33 32.5 -43.5t56.5 -10.5h33v-190h-58q-121 0 -179.5 37
t-103.5 150l-69 171q-18 46 -44.5 64t-87.5 18h-151v-435h-212zM479 1248l170 380h212l-190 -380h-192z" />
    <glyph glyph-name="uni045D" unicode="&#x45d;" 
d="M168 0v1060h212v-770h20l415 770h217v-1060h-212v770h-20l-415 -770h-217zM524 1248l-190 380h212l170 -380h-192z" />
    <glyph glyph-name="uni045E" unicode="&#x45e;" 
d="M75 -480l-10 190l166 20q128 15 210.5 77.5t138.5 192.5h-103l-422 1060h220l346 -900h15l259 900h220l-306 -966q-89 -283 -214 -406.5t-340 -147.5zM615 1238q-178 0 -262.5 90t-84.5 275h188q0 -116 36.5 -167.5t122.5 -51.5q87 0 123 52t36 167h188
q0 -186 -85 -275.5t-262 -89.5z" />
    <glyph glyph-name="uni045F" unicode="&#x45f;" 
d="M506 -270v270h-333v1060h212v-886h430v886h212v-1060h-321v-270h-200z" />
    <glyph glyph-name="uni0490" unicode="&#x490;" 
d="M180 0v1420h730v310h200v-500h-730v-1230h-200z" />
    <glyph glyph-name="uni0491" unicode="&#x491;" 
d="M266 0v1060h574v260h200v-450h-562v-870h-212z" />
    <glyph glyph-name="uni0492" unicode="&#x492;" 
d="M-4 585v190h184v645h910v-190h-710v-455h328v-190h-328v-585h-200v585h-184z" />
    <glyph glyph-name="uni0493" unicode="&#x493;" 
d="M56 423v174h210v463h754v-190h-542v-273h260v-174h-260v-423h-212v423h-210z" />
    <glyph glyph-name="uni0496" unicode="&#x496;" 
d="M27 -5v190h23q21 0 35 16t14 48v296q0 63 41.5 99.5t112.5 41.5l34 2v44l-34 2q-71 5 -112.5 41.5t-41.5 99.5v296q0 32 -14 48t-35 16h-23v190h90q87 0 130.5 -47.5t43.5 -149.5v-332q0 -59 8.5 -75t49.5 -16h126v615h170v-615h126q41 0 49.5 16t8.5 75v332
q0 102 43.5 149.5t130.5 47.5h90v-190h-23q-21 0 -35 -16t-14 -48v-296q0 -63 -41.5 -99.5t-112.5 -41.5l-44 -3v-42l44 -3q71 -5 112.5 -41.5t41.5 -99.5v-291q0 -32 14 -48t35 -16h130v-480h-190v285h-7q-87 0 -130.5 47.5t-43.5 149.5v332q0 59 -8.5 75t-49.5 16h-126
v-615h-170v615h-126q-41 0 -49.5 -16t-8.5 -75v-332q0 -102 -43.5 -149.5t-130.5 -47.5h-90z" />
    <glyph glyph-name="uni0497" unicode="&#x497;" 
d="M47 -5v190h63q21 0 35 16t14 48v124q0 62 46.5 98.5t118.5 42.5l38 3v26l-38 3q-72 6 -118.5 42.5t-46.5 98.5v124q0 32 -14 48t-35 16h-63v190h73q224 0 224 -197v-160v-2q0 -26 1.5 -37t7.5 -24.5t21 -17.5t39.5 -7t66.5 -3v443h160v-443q42 0 66.5 3t39.5 7t21 17.5
t7.5 24.5t1.5 37v2v160q0 197 224 197h73v-190h-63q-21 0 -35 -16t-14 -48v-124q0 -62 -46.5 -98.5t-118.5 -42.5l-38 -3v-26l38 -3q72 -6 118.5 -42.5t46.5 -98.5v-119q0 -32 14 -48t35 -16h156v-460h-200v266q-190 14 -190 196v160v2q0 26 -1.5 37t-7.5 24.5t-21 17.5
t-39.5 7t-66.5 3v-443h-160v443q-42 0 -66.5 -3t-39.5 -7t-21 -17.5t-7.5 -24.5t-1.5 -37v-2v-160q0 -197 -224 -197h-73z" />
    <glyph glyph-name="uni049A" unicode="&#x49a;" 
d="M140 0v1420h200v-615h201q94 0 132.5 37t58.5 132l38 184q31 154 85.5 210.5t182.5 56.5h73v-190h-48q-44 0 -62.5 -22t-33.5 -82l-53 -213q-24 -99 -74 -146.5t-162 -47.5h-55v-28h55q119 0 175 -48.5t80 -145.5l53 -213q15 -60 33.5 -82t62.5 -22h78v-475h-190v291
q-82 15 -123 73t-67 188l-38 184q-19 94 -60 131.5t-141 37.5h-201v-615h-200z" />
    <glyph glyph-name="uni049B" unicode="&#x49b;" 
d="M158 0v1060h212v-435h151q61 0 87.5 18t44.5 64l69 171q46 114 100 150.5t173 36.5h58v-190h-43q-38 0 -56.5 -10.5t-32.5 -43.5l-70 -164q-25 -58 -73 -85.5t-128 -27.5h-1v-28h11q162 0 211 -113l70 -164q14 -33 32.5 -43.5t56.5 -10.5h126v-455h-200v266
q-93 6 -143 45.5t-91 140.5l-69 171q-18 46 -44.5 64t-87.5 18h-151v-435h-212z" />
    <glyph glyph-name="uni04A2" unicode="&#x4a2;" 
d="M970 -290v290h-110v612h-520v-612h-200v1420h200v-618h520v618h200v-1230h100v-480h-190z" />
    <glyph glyph-name="uni04A3" unicode="&#x4a3;" 
d="M966 -270v270h-146v443h-440v-443h-212v1060h212v-443h440v443h212v-870h134v-460h-200z" />
    <glyph glyph-name="uni04AE" unicode="&#x4ae;" 
d="M500 0v503l-475 917h220l346 -710h18l346 710h220l-475 -917v-503h-200z" />
    <glyph glyph-name="uni04AF" unicode="&#x4af;" 
d="M494 -460v473l-414 1047h226l294 -814l294 814h226l-414 -1047v-473h-212z" />
    <glyph glyph-name="uni04B0" unicode="&#x4b0;" 
d="M257 295v190h243v18l-475 917h220l346 -710h18l346 710h220l-475 -917v-18h246v-190h-246v-295h-200v295h-243z" />
    <glyph glyph-name="uni04B1" unicode="&#x4b1;" 
d="M215 -174v174h279v13l-414 1047h226l294 -814l294 814h226l-414 -1047v-13h280v-174h-280v-286h-212v286h-279z" />
    <glyph glyph-name="uni04B2" unicode="&#x4b2;" 
d="M970 -290v290h-65l-305 533l-305 -533h-230l435 703l-435 717h230l305 -544l305 544h230l-435 -717l317 -513h143v-480h-190z" />
    <glyph glyph-name="uni04B3" unicode="&#x4b3;" 
d="M956 -270v270h-102l-259 368l-249 -368h-240l379 524l-379 536h240l254 -371l254 371h240l-384 -528l247 -342h199v-460h-200z" />
    <glyph glyph-name="uni04B6" unicode="&#x4b6;" 
d="M950 -290v290h-140v545h-280q-232 0 -336 113.5t-104 366.5v395h200v-395q0 -152 57 -221t183 -69h280v685h200v-1230h130v-480h-190z" />
    <glyph glyph-name="uni04B7" unicode="&#x4b7;" 
d="M946 -270v270h-136v380h-280q-412 0 -412 430v250h212v-250q0 -256 220 -256h260v506h212v-870h124v-460h-200z" />
    <glyph glyph-name="uni04BA" unicode="&#x4ba;" 
d="M860 0v395q0 152 -57 221t-183 69h-280v-685h-200v1420h200v-545h280q232 0 336 -113.5t104 -366.5v-395h-200z" />
    <glyph glyph-name="uni04BB" unicode="&#x4bb;" 
d="M820 0v690q0 100 -50 155t-140 55q-250 0 -250 -304v-596h-212v1500h212v-632h20q18 212 280 212q168 0 260 -102t92 -288v-690h-212z" />
    <glyph glyph-name="uni04C0" unicode="&#x4c0;" 
d="M168 0v190h331v1040h-331v190h864v-190h-333v-1040h333v-190h-864z" />
    <glyph glyph-name="uni04CF" unicode="&#x4cf;" 
d="M160 0v174h404v712h-344v174h556v-886h326v-174h-942z" />
    <glyph glyph-name="uni04D8" unicode="&#x4d8;" 
d="M600 -20q-524 0 -524 700q0 69 4 118h830q-34 458 -410 458q-163 0 -304 -39l-28 177q156 46 332 46q624 0 624 -740q0 -720 -524 -720zM911 608h-623q21 -444 312 -444q286 0 311 444z" />
    <glyph glyph-name="uni04D9" unicode="&#x4d9;" 
d="M586 -20q-216 0 -333 131t-117 377q0 73 6 136h716q-28 132 -126 201t-258 69q-121 0 -260 -38l-26 176q148 48 310 48q272 0 419 -143t147 -409q0 -260 -125 -404t-353 -144zM866 462h-538q0 -142 67.5 -219t188.5 -77q123 0 196 77t86 219z" />
    <glyph glyph-name="uni04E2" unicode="&#x4e2;" 
d="M148 0v1420h192v-1070h20l480 1070h212v-1420h-192v1070h-20l-480 -1070h-212zM213 1580v188h774v-188h-774z" />
    <glyph glyph-name="uni04E3" unicode="&#x4e3;" 
d="M168 0v1060h212v-770h20l415 770h217v-1060h-212v770h-20l-415 -770h-217zM170 1248v188h860v-188h-860z" />
    <glyph glyph-name="uni04E8" unicode="&#x4e8;" 
d="M600 -20q-524 0 -524 720q0 740 524 740t524 -740q0 -720 -524 -720zM289 802h622q-27 454 -311 454t-311 -454zM600 164q287 0 312 448h-624q25 -448 312 -448z" />
    <glyph glyph-name="uni04E9" unicode="&#x4e9;" 
d="M600 -20q-221 0 -342.5 144t-121.5 406t121.5 406t342.5 144t342.5 -144t121.5 -406t-121.5 -406t-342.5 -144zM600 170q102 0 164 72t76 207h-480q14 -135 76 -207t164 -72zM360 611h480q-14 135 -76 207t-164 72t-164 -72t-76 -207z" />
    <glyph glyph-name="uni04EE" unicode="&#x4ee;" 
d="M193 0v190q126 0 208.5 19.5t137.5 64.5l-453 1146h220l351 -910h16l273 910h220l-349 -1060q-53 -141 -127.5 -217.5t-190.5 -109.5t-306 -33zM253 1580v188h774v-188h-774z" />
    <glyph glyph-name="uni04EF" unicode="&#x4ef;" 
d="M75 -480l-10 190l166 20q128 15 210.5 77.5t138.5 192.5h-103l-422 1060h220l346 -900h15l259 900h220l-306 -966q-89 -283 -214 -406.5t-340 -147.5zM185 1248v188h860v-188h-860z" />
    <glyph glyph-name="uni0E3F" unicode="&#xe3f;" 
d="M514 -320v320h-354v1420h354v320h138v-323q184 -15 283 -107t99 -250q0 -129 -88 -207t-252 -95v-12q211 -3 325.5 -96t114.5 -260q0 -186 -112.5 -288t-317.5 -102h-52v-320h-138zM652 655v-465q129 2 200.5 62t71.5 168t-71 169.5t-201 65.5zM514 190v465h-154v-465
h154zM360 845h154v385h-154v-385zM652 850q83 14 127.5 63t44.5 127q0 75 -44.5 122t-127.5 61v-373z" />
    <glyph glyph-name="uni1D00" unicode="&#x1d00;" 
d="M46 0l423 1079h261l423 -1079h-212l-86 229h-511l-86 -229h-212zM406 393h387l-185 492h-17z" />
    <glyph glyph-name="uni1DBB" unicode="&#x1dbb;" 
d="M314 790v150l336 331h-336v150h557v-150l-325 -331h338v-150h-570z" />
    <glyph glyph-name="uni1DBF" unicode="&#x1dbf;" 
d="M600 770q-163 0 -252.5 104.5t-89.5 294.5t89.5 294.5t252.5 104.5t252.5 -104.5t89.5 -294.5t-89.5 -294.5t-252.5 -104.5zM600 920q68 0 108 54t48 153h-312q8 -99 48 -153t108 -54zM444 1211h312q-8 99 -48 153t-108 54t-108 -54t-48 -153z" />
    <glyph glyph-name="uni1E24" unicode="&#x1e24;" 
d="M860 0v612h-520v-612h-200v1420h200v-618h520v618h200v-1420h-200zM600 -420q-56 0 -95 39t-39 95t39 95t95 39t95 -39t39 -95t-39 -95t-95 -39z" />
    <glyph glyph-name="uni1E25" unicode="&#x1e25;" 
d="M820 0v690q0 100 -50 155t-140 55q-250 0 -250 -304v-596h-212v1500h212v-632h20q18 212 280 212q168 0 260 -102t92 -288v-690h-212zM600 -420q-56 0 -95 39t-39 95t39 95t95 39t95 -39t39 -95t-39 -95t-95 -39z" />
    <glyph glyph-name="uni1E30" unicode="&#x1e30;" 
d="M150 0v1420h200v-768q134 12 239.5 81t169.5 176.5t96.5 237t32.5 273.5h206q0 -222 -74.5 -420t-211.5 -334l354 -666h-242l-281 541q-134 -71 -289 -86v-455h-200zM489 1580l220 250h282l-270 -250h-232z" />
    <glyph glyph-name="uni1E32" unicode="&#x1e32;" 
d="M150 0v1420h200v-768q134 12 239.5 81t169.5 176.5t96.5 237t32.5 273.5h206q0 -222 -74.5 -420t-211.5 -334l354 -666h-242l-281 541q-134 -71 -289 -86v-455h-200zM620 -420q-56 0 -95 39t-39 95t39 95t95 39t95 -39t39 -95t-39 -95t-95 -39z" />
    <glyph glyph-name="uni1E33" unicode="&#x1e33;" 
d="M160 0v1500h212v-908h58q198 0 292.5 105.5t129.5 362.5h220q-49 -390 -244 -547l312 -513h-262l-245 419q-73 -17 -153 -17h-108v-402h-212zM620 -420q-56 0 -95 39t-39 95t39 95t95 39t95 -39t39 -95t-39 -95t-95 -39z" />
    <glyph glyph-name="uni1E34" unicode="&#x1e34;" 
d="M150 0v1420h200v-768q134 12 239.5 81t169.5 176.5t96.5 237t32.5 273.5h206q0 -222 -74.5 -420t-211.5 -334l354 -666h-242l-281 541q-134 -71 -289 -86v-455h-200zM190 -396v188h860v-188h-860z" />
    <glyph glyph-name="uni1E35" unicode="&#x1e35;" 
d="M160 0v1500h212v-908h58q198 0 292.5 105.5t129.5 362.5h220q-49 -390 -244 -547l312 -513h-262l-245 419q-73 -17 -153 -17h-108v-402h-212zM190 -396v188h860v-188h-860z" />
    <glyph glyph-name="uni1E36" unicode="&#x1e36;" 
d="M160 0v1420h200v-1230h740v-190h-940zM620 -420q-56 0 -95 39t-39 95t39 95t95 39t95 -39t39 -95t-39 -95t-95 -39z" />
    <glyph glyph-name="uni1E37" unicode="&#x1e37;" 
d="M758 -20q-184 0 -266 99.5t-82 320.5v926h-312v174h524v-1090q0 -67 8 -109t31.5 -73.5t66 -44.5t110.5 -13q83 0 212 38l24 -186q-151 -42 -316 -42zM680 -420q-56 0 -95 39t-39 95t39 95t95 39t95 -39t39 -95t-39 -95t-95 -39z" />
    <glyph glyph-name="uni1E3A" unicode="&#x1e3a;" 
d="M160 0v1420h200v-1230h740v-190h-940zM190 -396v188h860v-188h-860z" />
    <glyph glyph-name="uni1E3B" unicode="&#x1e3b;" 
d="M758 -20q-184 0 -266 99.5t-82 320.5v926h-312v174h524v-1090q0 -67 8 -109t31.5 -73.5t66 -44.5t110.5 -13q83 0 212 38l24 -186q-151 -42 -316 -42zM250 -396v188h860v-188h-860z" />
    <glyph glyph-name="uni1E48" unicode="&#x1e48;" 
d="M800 0l-440 1080h-20v-1080h-192v1420h252l440 -1080h20v1080h192v-1420h-252zM170 -396v188h860v-188h-860z" />
    <glyph glyph-name="uni1E49" unicode="&#x1e49;" 
d="M820 0v690q0 96 -50 148t-140 52q-250 0 -250 -294v-596h-212v1060h192l17 -192h23q18 212 280 212q168 0 260 -102t92 -288v-690h-212zM170 -396v188h860v-188h-860z" />
    <glyph glyph-name="uni1E50" unicode="&#x1e50;" 
d="M600 -20q-524 0 -524 720q0 740 524 740t524 -740q0 -720 -524 -720zM600 164q314 0 314 536q0 556 -314 556t-314 -556q0 -536 314 -536zM213 1580v188h774v-188h-774zM509 1880l-270 250h282l220 -250h-232z" />
    <glyph glyph-name="uni1E51" unicode="&#x1e51;" 
d="M600 -20q-221 0 -342.5 144t-121.5 406t121.5 406t342.5 144t342.5 -144t121.5 -406t-121.5 -406t-342.5 -144zM600 170q117 0 180.5 93.5t63.5 266.5t-63.5 266.5t-180.5 93.5t-180.5 -93.5t-63.5 -266.5t63.5 -266.5t180.5 -93.5zM170 1248v188h860v-188h-860z
M524 1588l-190 380h212l170 -380h-192z" />
    <glyph glyph-name="uni1E52" unicode="&#x1e52;" 
d="M600 -20q-524 0 -524 720q0 740 524 740t524 -740q0 -720 -524 -720zM600 164q314 0 314 536q0 556 -314 556t-314 -556q0 -536 314 -536zM213 1580v188h774v-188h-774zM469 1880l220 250h282l-270 -250h-232z" />
    <glyph glyph-name="uni1E53" unicode="&#x1e53;" 
d="M600 -20q-221 0 -342.5 144t-121.5 406t121.5 406t342.5 144t342.5 -144t121.5 -406t-121.5 -406t-342.5 -144zM600 170q117 0 180.5 93.5t63.5 266.5t-63.5 266.5t-180.5 93.5t-180.5 -93.5t-63.5 -266.5t63.5 -266.5t180.5 -93.5zM170 1248v188h860v-188h-860z
M499 1588l170 380h212l-190 -380h-192z" />
    <glyph glyph-name="uni1E5A" unicode="&#x1e5a;" 
d="M140 0v1420h488q221 0 341.5 -112.5t120.5 -317.5q0 -152 -62 -257t-179 -154l293 -579h-240l-257 540h-17h-288v-540h-200zM340 730h288q119 0 185.5 63t66.5 177q0 124 -66 192t-186 68h-288v-500zM610 -420q-56 0 -95 39t-39 95t39 95t95 39t95 -39t39 -95t-39 -95
t-95 -39z" />
    <glyph glyph-name="uni1E5B" unicode="&#x1e5b;" 
d="M528 456v-282h260v-174h-708v174h236v712h-196v174h368l36 -272h24q18 292 292 292q164 0 238 -94t74 -304h-210q0 115 -34.5 166.5t-111.5 51.5q-133 0 -200.5 -114t-67.5 -330zM430 -420q-56 0 -95 39t-39 95t39 95t95 39t95 -39t39 -95t-39 -95t-95 -39z" />
    <glyph glyph-name="uni1E62" unicode="&#x1e62;" 
d="M551 -20q-242 0 -422 78l26 202q222 -96 412 -96q276 0 276 198q0 127 -130 186l-246 112q-150 68 -225 162t-75 228q0 186 112 288t317 102q143 0 253 -42.5t212 -136.5l-140 -142q-89 72 -165.5 104.5t-158.5 32.5q-104 0 -160 -50t-56 -146q0 -67 35.5 -111t110.5 -79
l208 -98q165 -78 243.5 -172t78.5 -234q0 -386 -506 -386zM610 -420q-56 0 -95 39t-39 95t39 95t95 39t95 -39t39 -95t-39 -95t-95 -39z" />
    <glyph glyph-name="uni1E63" unicode="&#x1e63;" 
d="M518 -20q-234 0 -362 30l24 192q204 -32 338 -32q160 0 233 31.5t73 100.5q0 46 -24.5 70t-79.5 38l-244 62q-164 41 -234 101.5t-70 176.5q0 174 133.5 252t430.5 78q146 0 280 -20l-22 -184q-151 14 -264 14q-179 0 -258.5 -30.5t-79.5 -99.5q0 -44 30 -65t104 -39
l196 -48q171 -42 246.5 -110t75.5 -192q0 -171 -125 -248.5t-401 -77.5zM590 -420q-56 0 -95 39t-39 95t39 95t95 39t95 -39t39 -95t-39 -95t-95 -39z" />
    <glyph glyph-name="uni1E6E" unicode="&#x1e6e;" 
d="M500 0v1230h-420v190h1040v-190h-420v-1230h-200zM165 -396v188h860v-188h-860z" />
    <glyph glyph-name="Wgrave" unicode="&#x1e80;" 
d="M180 0l-160 1420h210l120 -1260h20l131 900h200l129 -900h20l120 1260h210l-160 -1420h-309l-105 862h-12l-105 -862h-309zM509 1580l-270 250h282l220 -250h-232z" />
    <glyph glyph-name="wgrave" unicode="&#x1e81;" 
d="M720 0l-124 842h-12l-124 -842h-270l-120 1060h200l80 -900h18l125 900h194l125 -900h18l90 900h210l-150 -1060h-260zM514 1248l-190 380h212l170 -380h-192z" />
    <glyph glyph-name="Wacute" unicode="&#x1e82;" 
d="M180 0l-160 1420h210l120 -1260h20l131 900h200l129 -900h20l120 1260h210l-160 -1420h-309l-105 862h-12l-105 -862h-309zM469 1580l220 250h282l-270 -250h-232z" />
    <glyph glyph-name="wacute" unicode="&#x1e83;" 
d="M720 0l-124 842h-12l-124 -842h-270l-120 1060h200l80 -900h18l125 900h194l125 -900h18l90 900h210l-150 -1060h-260zM489 1248l170 380h212l-190 -380h-192z" />
    <glyph glyph-name="Wdieresis" unicode="&#x1e84;" 
d="M180 0l-160 1420h210l120 -1260h20l131 900h200l129 -900h20l120 1260h210l-160 -1420h-309l-105 862h-12l-105 -862h-309zM392 1580q-56 0 -95 39t-39 95t39 95t95 39t95 -39t39 -95t-39 -95t-95 -39zM808 1580q-56 0 -95 39t-39 95t39 95t95 39t95 -39t39 -95t-39 -95
t-95 -39z" />
    <glyph glyph-name="wdieresis" unicode="&#x1e85;" 
d="M720 0l-124 842h-12l-124 -842h-270l-120 1060h200l80 -900h18l125 900h194l125 -900h18l90 900h210l-150 -1060h-260zM382 1238q-56 0 -95 39t-39 95t39 95t95 39t95 -39t39 -95t-39 -95t-95 -39zM802 1238q-56 0 -95 39t-39 95t39 95t95 39t95 -39t39 -95t-39 -95
t-95 -39z" />
    <glyph glyph-name="uni1E9E" unicode="&#x1e9e;" 
d="M140 0v930q0 268 122 389t394 121q254 0 448 -170h1l-267 -406q153 -42 236 -150.5t83 -267.5q0 -222 -130 -344t-366 -122q-120 0 -202 23l26 187q98 -18 192 -18q127 0 196.5 68t69.5 192q0 97 -58 169.5t-164 102.5l-175 50l288 446q-89 50 -178 50q-166 1 -241 -75.5
t-75 -244.5v-930h-200z" />
    <glyph glyph-name="uni1EA0" unicode="&#x1ea0;" 
d="M45 0l410 1420h290l410 -1420h-210l-93 346h-504l-93 -346h-210zM399 536h402l-192 712h-18zM600 -420q-56 0 -95 39t-39 95t39 95t95 39t95 -39t39 -95t-39 -95t-95 -39z" />
    <glyph glyph-name="uni1EA1" unicode="&#x1ea1;" 
d="M818 -10l-10 234h-21q-11 -120 -101.5 -182t-241.5 -62q-166 0 -257 80t-91 226q0 168 125 258t355 90q118 0 200 -17v49q0 104 -73.5 154.5t-222.5 54.5l-254 7l20 188l214 -3q518 -7 518 -433v-442l180 -22v-170zM776 454q-68 10 -204 10q-276 0 -276 -168
q0 -70 47.5 -108t134.5 -38q140 0 219 69t79 161v74zM600 -420q-56 0 -95 39t-39 95t39 95t95 39t95 -39t39 -95t-39 -95t-95 -39z" />
    <glyph glyph-name="uni1EA2" unicode="&#x1ea2;" 
d="M45 0l410 1420h290l410 -1420h-210l-93 346h-504l-93 -346h-210zM399 536h402l-192 712h-18zM532 1529v21q0 33 66 78q71 45 71 74q0 51 -82 51q-96 0 -164 -43l-67 119q81 75 252 75q227 0 227 -163q0 -60 -27 -99.5t-92 -77.5q-29 -17 -29 -35h-155z" />
    <glyph glyph-name="uni1EA3" unicode="&#x1ea3;" 
d="M818 -10l-10 234h-21q-11 -120 -101.5 -182t-241.5 -62q-166 0 -257 80t-91 226q0 168 125 258t355 90q118 0 200 -17v49q0 104 -73.5 154.5t-222.5 54.5l-254 7l20 188l214 -3q518 -7 518 -433v-442l180 -22v-170zM776 454q-68 10 -204 10q-276 0 -276 -168
q0 -70 47.5 -108t134.5 -38q140 0 219 69t79 161v74zM502 1248v36q0 35 16.5 66t37 49t37 41t16.5 45q0 25 -17 40.5t-45 15.5q-73 0 -124 -43l-67 119q31 34 89 54.5t123 20.5q94 0 150.5 -53t56.5 -140q0 -35 -12 -63.5t-29.5 -47.5t-35 -37t-29.5 -42t-12 -52v-9h-155z
" />
    <glyph glyph-name="uni1EA4" unicode="&#x1ea4;" 
d="M45 0l410 1420h290l410 -1420h-210l-93 346h-504l-93 -346h-210zM399 536h402l-192 712h-18zM259 1580l260 260h172l260 -260h-222l-124 144l-124 -144h-222zM820 1828l220 250h282l-270 -250h-232z" />
    <glyph glyph-name="uni1EA5" unicode="&#x1ea5;" 
d="M818 -10l-10 234h-21q-11 -120 -101.5 -182t-241.5 -62q-166 0 -257 80t-91 226q0 168 125 258t355 90q118 0 200 -17v49q0 104 -73.5 154.5t-222.5 54.5l-254 7l20 188l214 -3q518 -7 518 -433v-442l180 -22v-170zM254 1248l240 380h172l240 -380h-212l-114 226
l-114 -226h-212zM776 454q-68 10 -204 10q-276 0 -276 -168q0 -70 47.5 -108t134.5 -38q140 0 219 69t79 161v74zM836 1588l170 380h212l-190 -380h-192z" />
    <glyph glyph-name="uni1EA6" unicode="&#x1ea6;" 
d="M45 0l410 1420h290l410 -1420h-210l-93 346h-504l-93 -346h-210zM399 536h402l-192 712h-18zM259 1580l260 260h172l260 -260h-222l-124 144l-124 -144h-222zM860 1828l-270 250h282l220 -250h-232z" />
    <glyph glyph-name="uni1EA7" unicode="&#x1ea7;" 
d="M818 -10l-10 234h-21q-11 -120 -101.5 -182t-241.5 -62q-166 0 -257 80t-91 226q0 168 125 258t355 90q118 0 200 -17v49q0 104 -73.5 154.5t-222.5 54.5l-254 7l20 188l214 -3q518 -7 518 -433v-442l180 -22v-170zM254 1248l240 380h172l240 -380h-212l-114 226
l-114 -226h-212zM776 454q-68 10 -204 10q-276 0 -276 -168q0 -70 47.5 -108t134.5 -38q140 0 219 69t79 161v74zM861 1588l-190 380h212l170 -380h-192z" />
    <glyph glyph-name="uni1EA8" unicode="&#x1ea8;" 
d="M45 0l410 1420h290l410 -1420h-210l-93 346h-504l-93 -346h-210zM399 536h402l-192 712h-18zM883 1777v21q0 33 66 78q71 45 71 74q0 51 -82 51q-96 0 -164 -43l-67 119q81 75 252 75q227 0 227 -163q0 -60 -27 -99.5t-92 -77.5q-29 -17 -29 -35h-155zM259 1580l260 260
h172l260 -260h-222l-124 144l-124 -144h-222z" />
    <glyph glyph-name="uni1EA9" unicode="&#x1ea9;" 
d="M818 -10l-10 234h-21q-11 -120 -101.5 -182t-241.5 -62q-166 0 -257 80t-91 226q0 168 125 258t355 90q118 0 200 -17v49q0 104 -73.5 154.5t-222.5 54.5l-254 7l20 188l214 -3q518 -7 518 -433v-442l180 -22v-170zM254 1248l240 380h172l240 -380h-212l-114 226
l-114 -226h-212zM776 454q-68 10 -204 10q-276 0 -276 -168q0 -70 47.5 -108t134.5 -38q140 0 219 69t79 161v74zM859 1588v36q0 35 16.5 66t37 49t37 41t16.5 45q0 25 -17 40.5t-45 15.5q-73 0 -124 -43l-67 119q31 34 89 54.5t123 20.5q94 0 150.5 -53t56.5 -140
q0 -35 -12 -63.5t-29.5 -47.5t-35 -37t-29.5 -42t-12 -52v-9h-155z" />
    <glyph glyph-name="uni1EAA" unicode="&#x1eaa;" 
d="M45 0l410 1420h290l410 -1420h-210l-93 346h-504l-93 -346h-210zM225 1946v50q0 250 210 250q70 0 188 -49q17 -7 41 -17t35.5 -15t25.5 -10t24 -7t20 -2q54 0 54 64v60h172v-50q0 -240 -188 -240q-62 0 -193 55q-107 45 -141 45q-74 0 -74 -74v-60h-174zM399 536h402
l-192 712h-18zM259 1580l260 260h172l260 -260h-222l-124 144l-124 -144h-222z" />
    <glyph glyph-name="uni1EAB" unicode="&#x1eab;" 
d="M818 -10l-10 234h-21q-11 -120 -101.5 -182t-241.5 -62q-166 0 -257 80t-91 226q0 168 125 258t355 90q118 0 200 -17v49q0 104 -73.5 154.5t-222.5 54.5l-254 7l20 188l214 -3q518 -7 518 -433v-442l180 -22v-170zM230 1776v40q0 250 210 250q58 0 148 -44
q112 -56 146 -56q54 0 54 64v90h172v-80q0 -240 -188 -240q-63 0 -163 50q-7 4 -25.5 13.5t-28 14t-25 11t-28 9t-24.5 2.5q-74 0 -74 -74v-50h-174zM254 1248l240 380h172l240 -380h-212l-114 226l-114 -226h-212zM776 454q-68 10 -204 10q-276 0 -276 -168
q0 -70 47.5 -108t134.5 -38q140 0 219 69t79 161v74z" />
    <glyph glyph-name="uni1EAC" unicode="&#x1eac;" 
d="M45 0l410 1420h290l410 -1420h-210l-93 346h-504l-93 -346h-210zM399 536h402l-192 712h-18zM259 1580l260 260h172l260 -260h-222l-124 144l-124 -144h-222zM600 -420q-56 0 -95 39t-39 95t39 95t95 39t95 -39t39 -95t-39 -95t-95 -39z" />
    <glyph glyph-name="uni1EAD" unicode="&#x1ead;" 
d="M818 -10l-10 234h-21q-11 -120 -101.5 -182t-241.5 -62q-166 0 -257 80t-91 226q0 168 125 258t355 90q118 0 200 -17v49q0 104 -73.5 154.5t-222.5 54.5l-254 7l20 188l214 -3q518 -7 518 -433v-442l180 -22v-170zM254 1248l240 380h172l240 -380h-212l-114 226
l-114 -226h-212zM776 454q-68 10 -204 10q-276 0 -276 -168q0 -70 47.5 -108t134.5 -38q140 0 219 69t79 161v74zM600 -420q-56 0 -95 39t-39 95t39 95t95 39t95 -39t39 -95t-39 -95t-95 -39z" />
    <glyph glyph-name="uni1EAE" unicode="&#x1eae;" 
d="M45 0l410 1420h290l410 -1420h-210l-93 346h-504l-93 -346h-210zM399 536h402l-192 712h-18zM600 1570q-178 0 -276 76t-98 214h175q0 -73 52 -113.5t147 -40.5t147 40.5t52 113.5h175q0 -138 -98 -214t-276 -76zM469 1980l220 250h282l-270 -250h-232z" />
    <glyph glyph-name="uni1EAF" unicode="&#x1eaf;" 
d="M818 -10l-10 234h-21q-11 -120 -101.5 -182t-241.5 -62q-166 0 -257 80t-91 226q0 168 125 258t355 90q118 0 200 -17v49q0 104 -73.5 154.5t-222.5 54.5l-254 7l20 188l214 -3q518 -7 518 -433v-442l180 -22v-170zM580 1238q-167 0 -258 84t-91 238v43h175v-43
q0 -89 45 -137.5t129 -48.5t129 48.5t45 137.5v43h175v-43q0 -154 -91 -238t-258 -84zM776 454q-68 10 -204 10q-276 0 -276 -168q0 -70 47.5 -108t134.5 -38q140 0 219 69t79 161v74zM479 1728l170 380h212l-190 -380h-192z" />
    <glyph glyph-name="uni1EB0" unicode="&#x1eb0;" 
d="M45 0l410 1420h290l410 -1420h-210l-93 346h-504l-93 -346h-210zM399 536h402l-192 712h-18zM600 1570q-178 0 -276 76t-98 214h175q0 -73 52 -113.5t147 -40.5t147 40.5t52 113.5h175q0 -138 -98 -214t-276 -76zM509 1980l-270 250h282l220 -250h-232z" />
    <glyph glyph-name="uni1EB1" unicode="&#x1eb1;" 
d="M818 -10l-10 234h-21q-11 -120 -101.5 -182t-241.5 -62q-166 0 -257 80t-91 226q0 168 125 258t355 90q118 0 200 -17v49q0 104 -73.5 154.5t-222.5 54.5l-254 7l20 188l214 -3q518 -7 518 -433v-442l180 -22v-170zM580 1238q-167 0 -258 84t-91 238v43h175v-43
q0 -89 45 -137.5t129 -48.5t129 48.5t45 137.5v43h175v-43q0 -154 -91 -238t-258 -84zM776 454q-68 10 -204 10q-276 0 -276 -168q0 -70 47.5 -108t134.5 -38q140 0 219 69t79 161v74zM504 1728l-190 380h212l170 -380h-192z" />
    <glyph glyph-name="uni1EB2" unicode="&#x1eb2;" 
d="M45 0l410 1420h290l410 -1420h-210l-93 346h-504l-93 -346h-210zM399 536h402l-192 712h-18zM600 1570q-178 0 -276 76t-98 214h175q0 -73 52 -113.5t147 -40.5t147 40.5t52 113.5h175q0 -138 -98 -214t-276 -76zM532 1929v21q0 33 66 78q71 45 71 74q0 51 -82 51
q-96 0 -164 -43l-67 119q81 75 252 75q227 0 227 -163q0 -60 -27 -99.5t-92 -77.5q-29 -17 -29 -35h-155z" />
    <glyph glyph-name="uni1EB3" unicode="&#x1eb3;" 
d="M818 -10l-10 234h-21q-11 -120 -101.5 -182t-241.5 -62q-166 0 -257 80t-91 226q0 168 125 258t355 90q118 0 200 -17v49q0 104 -73.5 154.5t-222.5 54.5l-254 7l20 188l214 -3q518 -7 518 -433v-442l180 -22v-170zM580 1238q-167 0 -258 84t-91 238v43h175v-43
q0 -89 45 -137.5t129 -48.5t129 48.5t45 137.5v43h175v-43q0 -154 -91 -238t-258 -84zM776 454q-68 10 -204 10q-276 0 -276 -168q0 -70 47.5 -108t134.5 -38q140 0 219 69t79 161v74zM502 1728v36q0 35 16.5 66t37 49t37 41t16.5 45q0 25 -17 40.5t-45 15.5q-73 0 -124 -43
l-67 119q31 34 89 54.5t123 20.5q94 0 150.5 -53t56.5 -140q0 -35 -12 -63.5t-29.5 -47.5t-35 -37t-29.5 -42t-12 -52v-9h-155z" />
    <glyph glyph-name="uni1EB4" unicode="&#x1eb4;" 
d="M45 0l410 1420h290l410 -1420h-210l-93 346h-504l-93 -346h-210zM225 1966v50q0 250 210 250q70 0 188 -49q17 -7 41 -17t35.5 -15t25.5 -10t24 -7t20 -2q54 0 54 64v60h172v-50q0 -240 -188 -240q-62 0 -193 55q-107 45 -141 45q-74 0 -74 -74v-60h-174zM399 536h402
l-192 712h-18zM600 1570q-178 0 -276 76t-98 214h175q0 -73 52 -113.5t147 -40.5t147 40.5t52 113.5h175q0 -138 -98 -214t-276 -76z" />
    <glyph glyph-name="uni1EB5" unicode="&#x1eb5;" 
d="M818 -10l-10 234h-21q-11 -120 -101.5 -182t-241.5 -62q-166 0 -257 80t-91 226q0 168 125 258t355 90q118 0 200 -17v49q0 104 -73.5 154.5t-222.5 54.5l-254 7l20 188l214 -3q518 -7 518 -433v-442l180 -22v-170zM230 1736v40q0 250 210 250q58 0 148 -44
q112 -56 146 -56q54 0 54 64v90h172v-80q0 -240 -188 -240q-63 0 -163 50q-7 4 -25.5 13.5t-28 14t-25 11t-28 9t-24.5 2.5q-74 0 -74 -74v-50h-174zM580 1238q-167 0 -258 84t-91 238v43h175v-43q0 -89 45 -137.5t129 -48.5t129 48.5t45 137.5v43h175v-43q0 -154 -91 -238
t-258 -84zM776 454q-68 10 -204 10q-276 0 -276 -168q0 -70 47.5 -108t134.5 -38q140 0 219 69t79 161v74z" />
    <glyph glyph-name="uni1EB6" unicode="&#x1eb6;" 
d="M45 0l410 1420h290l410 -1420h-210l-93 346h-504l-93 -346h-210zM399 536h402l-192 712h-18zM600 1570q-178 0 -276 76t-98 214h175q0 -73 52 -113.5t147 -40.5t147 40.5t52 113.5h175q0 -138 -98 -214t-276 -76zM600 -420q-56 0 -95 39t-39 95t39 95t95 39t95 -39
t39 -95t-39 -95t-95 -39z" />
    <glyph glyph-name="uni1EB7" unicode="&#x1eb7;" 
d="M818 -10l-10 234h-21q-11 -120 -101.5 -182t-241.5 -62q-166 0 -257 80t-91 226q0 168 125 258t355 90q118 0 200 -17v49q0 104 -73.5 154.5t-222.5 54.5l-254 7l20 188l214 -3q518 -7 518 -433v-442l180 -22v-170zM580 1238q-167 0 -258 84t-91 238v43h175v-43
q0 -89 45 -137.5t129 -48.5t129 48.5t45 137.5v43h175v-43q0 -154 -91 -238t-258 -84zM776 454q-68 10 -204 10q-276 0 -276 -168q0 -70 47.5 -108t134.5 -38q140 0 219 69t79 161v74zM600 -420q-56 0 -95 39t-39 95t39 95t95 39t95 -39t39 -95t-39 -95t-95 -39z" />
    <glyph glyph-name="uni1EB8" unicode="&#x1eb8;" 
d="M160 0v1420h940v-190h-740v-424h560v-190h-560v-426h740v-190h-940zM630 -420q-56 0 -95 39t-39 95t39 95t95 39t95 -39t39 -95t-39 -95t-95 -39z" />
    <glyph glyph-name="uni1EB9" unicode="&#x1eb9;" 
d="M702 -20q-272 0 -419 143t-147 409q0 260 125 404t353 144q216 0 333 -131t117 -377q0 -73 -6 -136h-716q28 -132 126 -201t258 -69q123 0 260 28l26 -186q-147 -28 -310 -28zM334 598h538q0 142 -67.5 219t-188.5 77q-123 0 -196 -77t-86 -219zM630 -420q-56 0 -95 39
t-39 95t39 95t95 39t95 -39t39 -95t-39 -95t-95 -39z" />
    <glyph glyph-name="uni1EBA" unicode="&#x1eba;" 
d="M160 0v1420h940v-190h-740v-424h560v-190h-560v-426h740v-190h-940zM562 1529v21q0 33 66 78q71 45 71 74q0 51 -82 51q-96 0 -164 -43l-67 119q81 75 252 75q227 0 227 -163q0 -60 -27 -99.5t-92 -77.5q-29 -17 -29 -35h-155z" />
    <glyph glyph-name="uni1EBB" unicode="&#x1ebb;" 
d="M702 -20q-272 0 -419 143t-147 409q0 260 125 404t353 144q216 0 333 -131t117 -377q0 -73 -6 -136h-716q28 -132 126 -201t258 -69q123 0 260 28l26 -186q-147 -28 -310 -28zM334 598h538q0 142 -67.5 219t-188.5 77q-123 0 -196 -77t-86 -219zM532 1248v36
q0 35 16.5 66t37 49t37 41t16.5 45q0 25 -17 40.5t-45 15.5q-73 0 -124 -43l-67 119q31 34 89 54.5t123 20.5q94 0 150.5 -53t56.5 -140q0 -35 -12 -63.5t-29.5 -47.5t-35 -37t-29.5 -42t-12 -52v-9h-155z" />
    <glyph glyph-name="uni1EBC" unicode="&#x1ebc;" 
d="M160 0v1420h940v-190h-740v-424h560v-190h-560v-426h740v-190h-940zM255 1566v50q0 250 210 250q70 0 188 -49q17 -7 41 -17t35.5 -15t25.5 -10t24 -7t20 -2q54 0 54 64v60h172v-50q0 -240 -188 -240q-62 0 -193 55q-107 45 -141 45q-74 0 -74 -74v-60h-174z" />
    <glyph glyph-name="uni1EBD" unicode="&#x1ebd;" 
d="M702 -20q-272 0 -419 143t-147 409q0 260 125 404t353 144q216 0 333 -131t117 -377q0 -73 -6 -136h-716q28 -132 126 -201t258 -69q123 0 260 28l26 -186q-147 -28 -310 -28zM260 1256v40q0 250 210 250q58 0 148 -44q112 -56 146 -56q54 0 54 64v90h172v-80
q0 -240 -188 -240q-63 0 -163 50q-7 4 -25.5 13.5t-28 14t-25 11t-28 9t-24.5 2.5q-74 0 -74 -74v-50h-174zM334 598h538q0 142 -67.5 219t-188.5 77q-123 0 -196 -77t-86 -219z" />
    <glyph glyph-name="uni1EBE" unicode="&#x1ebe;" 
d="M160 0v1420h940v-190h-740v-424h560v-190h-560v-426h740v-190h-940zM289 1580l260 260h172l260 -260h-222l-124 144l-124 -144h-222zM850 1828l220 250h282l-270 -250h-232z" />
    <glyph glyph-name="uni1EBF" unicode="&#x1ebf;" 
d="M702 -20q-272 0 -419 143t-147 409q0 260 125 404t353 144q216 0 333 -131t117 -377q0 -73 -6 -136h-716q28 -132 126 -201t258 -69q123 0 260 28l26 -186q-147 -28 -310 -28zM284 1248l240 380h172l240 -380h-212l-114 226l-114 -226h-212zM334 598h538q0 142 -67.5 219
t-188.5 77q-123 0 -196 -77t-86 -219zM866 1588l170 380h212l-190 -380h-192z" />
    <glyph glyph-name="uni1EC0" unicode="&#x1ec0;" 
d="M160 0v1420h940v-190h-740v-424h560v-190h-560v-426h740v-190h-940zM289 1580l260 260h172l260 -260h-222l-124 144l-124 -144h-222zM890 1828l-270 250h282l220 -250h-232z" />
    <glyph glyph-name="uni1EC1" unicode="&#x1ec1;" 
d="M702 -20q-272 0 -419 143t-147 409q0 260 125 404t353 144q216 0 333 -131t117 -377q0 -73 -6 -136h-716q28 -132 126 -201t258 -69q123 0 260 28l26 -186q-147 -28 -310 -28zM284 1248l240 380h172l240 -380h-212l-114 226l-114 -226h-212zM334 598h538q0 142 -67.5 219
t-188.5 77q-123 0 -196 -77t-86 -219zM891 1588l-190 380h212l170 -380h-192z" />
    <glyph glyph-name="uni1EC2" unicode="&#x1ec2;" 
d="M160 0v1420h940v-190h-740v-424h560v-190h-560v-426h740v-190h-940zM913 1777v21q0 33 66 78q71 45 71 74q0 51 -82 51q-96 0 -164 -43l-67 119q81 75 252 75q227 0 227 -163q0 -60 -27 -99.5t-92 -77.5q-29 -17 -29 -35h-155zM289 1580l260 260h172l260 -260h-222
l-124 144l-124 -144h-222z" />
    <glyph glyph-name="uni1EC3" unicode="&#x1ec3;" 
d="M702 -20q-272 0 -419 143t-147 409q0 260 125 404t353 144q216 0 333 -131t117 -377q0 -73 -6 -136h-716q28 -132 126 -201t258 -69q123 0 260 28l26 -186q-147 -28 -310 -28zM284 1248l240 380h172l240 -380h-212l-114 226l-114 -226h-212zM334 598h538q0 142 -67.5 219
t-188.5 77q-123 0 -196 -77t-86 -219zM889 1588v36q0 35 16.5 66t37 49t37 41t16.5 45q0 25 -17 40.5t-45 15.5q-73 0 -124 -43l-67 119q31 34 89 54.5t123 20.5q94 0 150.5 -53t56.5 -140q0 -35 -12 -63.5t-29.5 -47.5t-35 -37t-29.5 -42t-12 -52v-9h-155z" />
    <glyph glyph-name="uni1EC4" unicode="&#x1ec4;" 
d="M160 0v1420h940v-190h-740v-424h560v-190h-560v-426h740v-190h-940zM255 1946v50q0 250 210 250q70 0 188 -49q17 -7 41 -17t35.5 -15t25.5 -10t24 -7t20 -2q54 0 54 64v60h172v-50q0 -240 -188 -240q-62 0 -193 55q-107 45 -141 45q-74 0 -74 -74v-60h-174zM289 1580
l260 260h172l260 -260h-222l-124 144l-124 -144h-222z" />
    <glyph glyph-name="uni1EC5" unicode="&#x1ec5;" 
d="M702 -20q-272 0 -419 143t-147 409q0 260 125 404t353 144q216 0 333 -131t117 -377q0 -73 -6 -136h-716q28 -132 126 -201t258 -69q123 0 260 28l26 -186q-147 -28 -310 -28zM260 1776v40q0 250 210 250q58 0 148 -44q112 -56 146 -56q54 0 54 64v90h172v-80
q0 -240 -188 -240q-63 0 -163 50q-7 4 -25.5 13.5t-28 14t-25 11t-28 9t-24.5 2.5q-74 0 -74 -74v-50h-174zM284 1248l240 380h172l240 -380h-212l-114 226l-114 -226h-212zM334 598h538q0 142 -67.5 219t-188.5 77q-123 0 -196 -77t-86 -219z" />
    <glyph glyph-name="uni1EC6" unicode="&#x1ec6;" 
d="M160 0v1420h940v-190h-740v-424h560v-190h-560v-426h740v-190h-940zM289 1580l260 260h172l260 -260h-222l-124 144l-124 -144h-222zM630 -420q-56 0 -95 39t-39 95t39 95t95 39t95 -39t39 -95t-39 -95t-95 -39z" />
    <glyph glyph-name="uni1EC7" unicode="&#x1ec7;" 
d="M702 -20q-272 0 -419 143t-147 409q0 260 125 404t353 144q216 0 333 -131t117 -377q0 -73 -6 -136h-716q28 -132 126 -201t258 -69q123 0 260 28l26 -186q-147 -28 -310 -28zM284 1248l240 380h172l240 -380h-212l-114 226l-114 -226h-212zM334 598h538q0 142 -67.5 219
t-188.5 77q-123 0 -196 -77t-86 -219zM630 -420q-56 0 -95 39t-39 95t39 95t95 39t95 -39t39 -95t-39 -95t-95 -39z" />
    <glyph glyph-name="uni1EC8" unicode="&#x1ec8;" 
d="M168 0v190h331v1040h-331v190h864v-190h-333v-1040h333v-190h-864zM532 1529v21q0 33 66 78q71 45 71 74q0 51 -82 51q-96 0 -164 -43l-67 119q81 75 252 75q227 0 227 -163q0 -60 -27 -99.5t-92 -77.5q-29 -17 -29 -35h-155z" />
    <glyph glyph-name="uni1EC9" unicode="&#x1ec9;" 
d="M160 0v174h404v712h-344v174h556v-886h326v-174h-942zM572 1248v36q0 35 16.5 66t37 49t37 41t16.5 45q0 25 -17 40.5t-45 15.5q-73 0 -124 -43l-67 119q31 34 89 54.5t123 20.5q94 0 150.5 -53t56.5 -140q0 -35 -12 -63.5t-29.5 -47.5t-35 -37t-29.5 -42t-12 -52v-9
h-155z" />
    <glyph glyph-name="uni1ECA" unicode="&#x1eca;" 
d="M168 0v190h331v1040h-331v190h864v-190h-333v-1040h333v-190h-864zM600 -420q-56 0 -95 39t-39 95t39 95t95 39t95 -39t39 -95t-39 -95t-95 -39z" />
    <glyph glyph-name="uni1ECB" unicode="&#x1ecb;" 
d="M160 0v174h404v712h-344v174h556v-886h326v-174h-942zM663 1228q-61 0 -104.5 43t-43.5 105t43.5 105t104.5 43t104.5 -43t43.5 -105t-43.5 -105t-104.5 -43zM670 -420q-56 0 -95 39t-39 95t39 95t95 39t95 -39t39 -95t-39 -95t-95 -39z" />
    <glyph glyph-name="uni1ECC" unicode="&#x1ecc;" 
d="M600 -20q-524 0 -524 720q0 740 524 740t524 -740q0 -720 -524 -720zM600 164q314 0 314 536q0 556 -314 556t-314 -556q0 -536 314 -536zM600 -420q-56 0 -95 39t-39 95t39 95t95 39t95 -39t39 -95t-39 -95t-95 -39z" />
    <glyph glyph-name="uni1ECD" unicode="&#x1ecd;" 
d="M600 -20q-221 0 -342.5 144t-121.5 406t121.5 406t342.5 144t342.5 -144t121.5 -406t-121.5 -406t-342.5 -144zM600 170q117 0 180.5 93.5t63.5 266.5t-63.5 266.5t-180.5 93.5t-180.5 -93.5t-63.5 -266.5t63.5 -266.5t180.5 -93.5zM600 -420q-56 0 -95 39t-39 95t39 95
t95 39t95 -39t39 -95t-39 -95t-95 -39z" />
    <glyph glyph-name="uni1ECE" unicode="&#x1ece;" 
d="M600 -20q-524 0 -524 720q0 740 524 740t524 -740q0 -720 -524 -720zM600 164q314 0 314 536q0 556 -314 556t-314 -556q0 -536 314 -536zM532 1529v21q0 33 66 78q71 45 71 74q0 51 -82 51q-96 0 -164 -43l-67 119q81 75 252 75q227 0 227 -163q0 -60 -27 -99.5
t-92 -77.5q-29 -17 -29 -35h-155z" />
    <glyph glyph-name="uni1ECF" unicode="&#x1ecf;" 
d="M600 -20q-221 0 -342.5 144t-121.5 406t121.5 406t342.5 144t342.5 -144t121.5 -406t-121.5 -406t-342.5 -144zM600 170q117 0 180.5 93.5t63.5 266.5t-63.5 266.5t-180.5 93.5t-180.5 -93.5t-63.5 -266.5t63.5 -266.5t180.5 -93.5zM522 1248v36q0 35 16.5 66t37 49
t37 41t16.5 45q0 25 -17 40.5t-45 15.5q-73 0 -124 -43l-67 119q31 34 89 54.5t123 20.5q94 0 150.5 -53t56.5 -140q0 -35 -12 -63.5t-29.5 -47.5t-35 -37t-29.5 -42t-12 -52v-9h-155z" />
    <glyph glyph-name="uni1ED0" unicode="&#x1ed0;" 
d="M600 -20q-524 0 -524 720q0 740 524 740t524 -740q0 -720 -524 -720zM600 164q314 0 314 536q0 556 -314 556t-314 -556q0 -536 314 -536zM259 1580l260 260h172l260 -260h-222l-124 144l-124 -144h-222zM820 1828l220 250h282l-270 -250h-232z" />
    <glyph glyph-name="uni1ED1" unicode="&#x1ed1;" 
d="M600 -20q-221 0 -342.5 144t-121.5 406t121.5 406t342.5 144t342.5 -144t121.5 -406t-121.5 -406t-342.5 -144zM600 170q117 0 180.5 93.5t63.5 266.5t-63.5 266.5t-180.5 93.5t-180.5 -93.5t-63.5 -266.5t63.5 -266.5t180.5 -93.5zM274 1248l240 380h172l240 -380h-212
l-114 226l-114 -226h-212zM856 1588l170 380h212l-190 -380h-192z" />
    <glyph glyph-name="uni1ED2" unicode="&#x1ed2;" 
d="M600 -20q-524 0 -524 720q0 740 524 740t524 -740q0 -720 -524 -720zM600 164q314 0 314 536q0 556 -314 556t-314 -556q0 -536 314 -536zM259 1580l260 260h172l260 -260h-222l-124 144l-124 -144h-222zM860 1828l-270 250h282l220 -250h-232z" />
    <glyph glyph-name="uni1ED3" unicode="&#x1ed3;" 
d="M600 -20q-221 0 -342.5 144t-121.5 406t121.5 406t342.5 144t342.5 -144t121.5 -406t-121.5 -406t-342.5 -144zM600 170q117 0 180.5 93.5t63.5 266.5t-63.5 266.5t-180.5 93.5t-180.5 -93.5t-63.5 -266.5t63.5 -266.5t180.5 -93.5zM274 1248l240 380h172l240 -380h-212
l-114 226l-114 -226h-212zM881 1588l-190 380h212l170 -380h-192z" />
    <glyph glyph-name="uni1ED4" unicode="&#x1ed4;" 
d="M600 -20q-524 0 -524 720q0 740 524 740t524 -740q0 -720 -524 -720zM600 164q314 0 314 536q0 556 -314 556t-314 -556q0 -536 314 -536zM883 1777v21q0 33 66 78q71 45 71 74q0 51 -82 51q-96 0 -164 -43l-67 119q81 75 252 75q227 0 227 -163q0 -60 -27 -99.5
t-92 -77.5q-29 -17 -29 -35h-155zM259 1580l260 260h172l260 -260h-222l-124 144l-124 -144h-222z" />
    <glyph glyph-name="uni1ED5" unicode="&#x1ed5;" 
d="M600 -20q-221 0 -342.5 144t-121.5 406t121.5 406t342.5 144t342.5 -144t121.5 -406t-121.5 -406t-342.5 -144zM600 170q117 0 180.5 93.5t63.5 266.5t-63.5 266.5t-180.5 93.5t-180.5 -93.5t-63.5 -266.5t63.5 -266.5t180.5 -93.5zM274 1248l240 380h172l240 -380h-212
l-114 226l-114 -226h-212zM879 1588v36q0 35 16.5 66t37 49t37 41t16.5 45q0 25 -17 40.5t-45 15.5q-73 0 -124 -43l-67 119q31 34 89 54.5t123 20.5q94 0 150.5 -53t56.5 -140q0 -35 -12 -63.5t-29.5 -47.5t-35 -37t-29.5 -42t-12 -52v-9h-155z" />
    <glyph glyph-name="uni1ED6" unicode="&#x1ed6;" 
d="M600 -20q-524 0 -524 720q0 740 524 740t524 -740q0 -720 -524 -720zM600 164q314 0 314 536q0 556 -314 556t-314 -556q0 -536 314 -536zM225 1946v50q0 250 210 250q70 0 188 -49q17 -7 41 -17t35.5 -15t25.5 -10t24 -7t20 -2q54 0 54 64v60h172v-50q0 -240 -188 -240
q-62 0 -193 55q-107 45 -141 45q-74 0 -74 -74v-60h-174zM259 1580l260 260h172l260 -260h-222l-124 144l-124 -144h-222z" />
    <glyph glyph-name="uni1ED7" unicode="&#x1ed7;" 
d="M600 -20q-221 0 -342.5 144t-121.5 406t121.5 406t342.5 144t342.5 -144t121.5 -406t-121.5 -406t-342.5 -144zM600 170q117 0 180.5 93.5t63.5 266.5t-63.5 266.5t-180.5 93.5t-180.5 -93.5t-63.5 -266.5t63.5 -266.5t180.5 -93.5zM250 1776v40q0 250 210 250
q58 0 148 -44q112 -56 146 -56q54 0 54 64v90h172v-80q0 -240 -188 -240q-63 0 -163 50q-7 4 -25.5 13.5t-28 14t-25 11t-28 9t-24.5 2.5q-74 0 -74 -74v-50h-174zM274 1248l240 380h172l240 -380h-212l-114 226l-114 -226h-212z" />
    <glyph glyph-name="uni1ED8" unicode="&#x1ed8;" 
d="M600 -20q-524 0 -524 720q0 740 524 740t524 -740q0 -720 -524 -720zM600 164q314 0 314 536q0 556 -314 556t-314 -556q0 -536 314 -536zM259 1580l260 260h172l260 -260h-222l-124 144l-124 -144h-222zM600 -420q-56 0 -95 39t-39 95t39 95t95 39t95 -39t39 -95
t-39 -95t-95 -39z" />
    <glyph glyph-name="uni1ED9" unicode="&#x1ed9;" 
d="M600 -20q-221 0 -342.5 144t-121.5 406t121.5 406t342.5 144t342.5 -144t121.5 -406t-121.5 -406t-342.5 -144zM600 170q117 0 180.5 93.5t63.5 266.5t-63.5 266.5t-180.5 93.5t-180.5 -93.5t-63.5 -266.5t63.5 -266.5t180.5 -93.5zM274 1248l240 380h172l240 -380h-212
l-114 226l-114 -226h-212zM600 -420q-56 0 -95 39t-39 95t39 95t95 39t95 -39t39 -95t-39 -95t-95 -39z" />
    <glyph glyph-name="uni1EDA" unicode="&#x1eda;" 
d="M600 -20q-524 0 -524 720q0 740 524 740q148 0 254 -59q202 36 202 272h192q0 -321 -246 -412q122 -185 122 -541q0 -720 -524 -720zM600 164q314 0 314 536q0 556 -314 556t-314 -556q0 -536 314 -536zM469 1580l220 250h282l-270 -250h-232z" />
    <glyph glyph-name="uni1EDB" unicode="&#x1edb;" 
d="M600 -20q-221 0 -342.5 144t-121.5 406t121.5 406t342.5 144q76 0 141 -18l47 8q187 31 187 273h210q0 -315 -240 -410q119 -144 119 -403q0 -262 -121.5 -406t-342.5 -144zM600 170q117 0 180.5 93.5t63.5 266.5t-63.5 266.5t-180.5 93.5t-180.5 -93.5t-63.5 -266.5
t63.5 -266.5t180.5 -93.5zM499 1248l170 380h212l-190 -380h-192z" />
    <glyph glyph-name="uni1EDC" unicode="&#x1edc;" 
d="M600 -20q-524 0 -524 720q0 740 524 740q148 0 254 -59q202 36 202 272h192q0 -321 -246 -412q122 -185 122 -541q0 -720 -524 -720zM600 164q314 0 314 536q0 556 -314 556t-314 -556q0 -536 314 -536zM509 1580l-270 250h282l220 -250h-232z" />
    <glyph glyph-name="uni1EDD" unicode="&#x1edd;" 
d="M600 -20q-221 0 -342.5 144t-121.5 406t121.5 406t342.5 144q76 0 141 -18l47 8q187 31 187 273h210q0 -315 -240 -410q119 -144 119 -403q0 -262 -121.5 -406t-342.5 -144zM600 170q117 0 180.5 93.5t63.5 266.5t-63.5 266.5t-180.5 93.5t-180.5 -93.5t-63.5 -266.5
t63.5 -266.5t180.5 -93.5zM524 1248l-190 380h212l170 -380h-192z" />
    <glyph glyph-name="uni1EDE" unicode="&#x1ede;" 
d="M600 -20q-524 0 -524 720q0 740 524 740q148 0 254 -59q202 36 202 272h192q0 -321 -246 -412q122 -185 122 -541q0 -720 -524 -720zM600 164q314 0 314 536q0 556 -314 556t-314 -556q0 -536 314 -536zM532 1529v21q0 33 66 78q71 45 71 74q0 51 -82 51q-96 0 -164 -43
l-67 119q81 75 252 75q227 0 227 -163q0 -60 -27 -99.5t-92 -77.5q-29 -17 -29 -35h-155z" />
    <glyph glyph-name="uni1EDF" unicode="&#x1edf;" 
d="M600 -20q-221 0 -342.5 144t-121.5 406t121.5 406t342.5 144q76 0 141 -18l47 8q187 31 187 273h210q0 -315 -240 -410q119 -144 119 -403q0 -262 -121.5 -406t-342.5 -144zM600 170q117 0 180.5 93.5t63.5 266.5t-63.5 266.5t-180.5 93.5t-180.5 -93.5t-63.5 -266.5
t63.5 -266.5t180.5 -93.5zM522 1248v36q0 35 16.5 66t37 49t37 41t16.5 45q0 25 -17 40.5t-45 15.5q-73 0 -124 -43l-67 119q31 34 89 54.5t123 20.5q94 0 150.5 -53t56.5 -140q0 -35 -12 -63.5t-29.5 -47.5t-35 -37t-29.5 -42t-12 -52v-9h-155z" />
    <glyph glyph-name="uni1EE0" unicode="&#x1ee0;" 
d="M600 -20q-524 0 -524 720q0 740 524 740q148 0 254 -59q202 36 202 272h192q0 -321 -246 -412q122 -185 122 -541q0 -720 -524 -720zM600 164q314 0 314 536q0 556 -314 556t-314 -556q0 -536 314 -536zM225 1566v50q0 250 210 250q70 0 188 -49q17 -7 41 -17t35.5 -15
t25.5 -10t24 -7t20 -2q54 0 54 64v60h172v-50q0 -240 -188 -240q-62 0 -193 55q-107 45 -141 45q-74 0 -74 -74v-60h-174z" />
    <glyph glyph-name="uni1EE1" unicode="&#x1ee1;" 
d="M600 -20q-221 0 -342.5 144t-121.5 406t121.5 406t342.5 144q76 0 141 -18l47 8q187 31 187 273h210q0 -315 -240 -410q119 -144 119 -403q0 -262 -121.5 -406t-342.5 -144zM600 170q117 0 180.5 93.5t63.5 266.5t-63.5 266.5t-180.5 93.5t-180.5 -93.5t-63.5 -266.5
t63.5 -266.5t180.5 -93.5zM250 1256v40q0 250 210 250q58 0 148 -44q112 -56 146 -56q54 0 54 64v90h172v-80q0 -240 -188 -240q-63 0 -163 50q-7 4 -25.5 13.5t-28 14t-25 11t-28 9t-24.5 2.5q-74 0 -74 -74v-50h-174z" />
    <glyph glyph-name="uni1EE2" unicode="&#x1ee2;" 
d="M600 -20q-524 0 -524 720q0 740 524 740q148 0 254 -59q202 36 202 272h192q0 -321 -246 -412q122 -185 122 -541q0 -720 -524 -720zM600 164q314 0 314 536q0 556 -314 556t-314 -556q0 -536 314 -536zM600 -420q-56 0 -95 39t-39 95t39 95t95 39t95 -39t39 -95t-39 -95
t-95 -39z" />
    <glyph glyph-name="uni1EE3" unicode="&#x1ee3;" 
d="M600 -20q-221 0 -342.5 144t-121.5 406t121.5 406t342.5 144q76 0 141 -18l47 8q187 31 187 273h210q0 -315 -240 -410q119 -144 119 -403q0 -262 -121.5 -406t-342.5 -144zM600 170q117 0 180.5 93.5t63.5 266.5t-63.5 266.5t-180.5 93.5t-180.5 -93.5t-63.5 -266.5
t63.5 -266.5t180.5 -93.5zM600 -420q-56 0 -95 39t-39 95t39 95t95 39t95 -39t39 -95t-39 -95t-95 -39z" />
    <glyph glyph-name="uni1EE4" unicode="&#x1ee4;" 
d="M596 -20q-456 0 -456 476v964h200v-964q0 -144 63 -215t197 -71q260 0 260 286v964h200v-964q0 -237 -117.5 -356.5t-346.5 -119.5zM600 -420q-56 0 -95 39t-39 95t39 95t95 39t95 -39t39 -95t-39 -95t-95 -39z" />
    <glyph glyph-name="uni1EE5" unicode="&#x1ee5;" 
d="M496 -20q-167 0 -258.5 99t-91.5 281v700h212v-700q0 -91 52 -140.5t146 -49.5q118 0 176 75.5t58 244.5v570h212v-868l146 -22v-170l-340 -10l-15 214h-19q-25 -108 -98 -166t-180 -58zM560 -420q-56 0 -95 39t-39 95t39 95t95 39t95 -39t39 -95t-39 -95t-95 -39z" />
    <glyph glyph-name="uni1EE6" unicode="&#x1ee6;" 
d="M596 -20q-456 0 -456 476v964h200v-964q0 -144 63 -215t197 -71q260 0 260 286v964h200v-964q0 -237 -117.5 -356.5t-346.5 -119.5zM532 1529v21q0 33 66 78q71 45 71 74q0 51 -82 51q-96 0 -164 -43l-67 119q81 75 252 75q227 0 227 -163q0 -60 -27 -99.5t-92 -77.5
q-29 -17 -29 -35h-155z" />
    <glyph glyph-name="uni1EE7" unicode="&#x1ee7;" 
d="M496 -20q-167 0 -258.5 99t-91.5 281v700h212v-700q0 -91 52 -140.5t146 -49.5q118 0 176 75.5t58 244.5v570h212v-868l146 -22v-170l-340 -10l-15 214h-19q-25 -108 -98 -166t-180 -58zM502 1248v36q0 35 16.5 66t37 49t37 41t16.5 45q0 25 -17 40.5t-45 15.5
q-73 0 -124 -43l-67 119q31 34 89 54.5t123 20.5q94 0 150.5 -53t56.5 -140q0 -35 -12 -63.5t-29.5 -47.5t-35 -37t-29.5 -42t-12 -52v-9h-155z" />
    <glyph glyph-name="uni1EE8" unicode="&#x1ee8;" 
d="M596 -20q-456 0 -456 476v964h200v-964q0 -144 63 -215t197 -71q260 0 260 286v964l61 10q185 30 185 223h192q0 -287 -238 -366v-831q0 -237 -117.5 -356.5t-346.5 -119.5zM469 1580l220 250h282l-270 -250h-232z" />
    <glyph glyph-name="uni1EE9" unicode="&#x1ee9;" 
d="M496 -20q-167 0 -258.5 99t-91.5 281v700h212v-700q0 -91 52 -140.5t146 -49.5q118 0 176 75.5t58 244.5v570h1l40 10q93 23 135 88t42 185h220q0 -151 -54.5 -246.5t-171.5 -150.5v-754l146 -22v-170l-340 -10l-15 214h-19q-25 -108 -98 -166t-180 -58zM479 1248
l170 380h212l-190 -380h-192z" />
    <glyph glyph-name="uni1EEA" unicode="&#x1eea;" 
d="M596 -20q-456 0 -456 476v964h200v-964q0 -144 63 -215t197 -71q260 0 260 286v964l61 10q185 30 185 223h192q0 -287 -238 -366v-831q0 -237 -117.5 -356.5t-346.5 -119.5zM509 1580l-270 250h282l220 -250h-232z" />
    <glyph glyph-name="uni1EEB" unicode="&#x1eeb;" 
d="M496 -20q-167 0 -258.5 99t-91.5 281v700h212v-700q0 -91 52 -140.5t146 -49.5q118 0 176 75.5t58 244.5v570h1l40 10q93 23 135 88t42 185h220q0 -151 -54.5 -246.5t-171.5 -150.5v-754l146 -22v-170l-340 -10l-15 214h-19q-25 -108 -98 -166t-180 -58zM504 1248
l-190 380h212l170 -380h-192z" />
    <glyph glyph-name="uni1EEC" unicode="&#x1eec;" 
d="M596 -20q-456 0 -456 476v964h200v-964q0 -144 63 -215t197 -71q260 0 260 286v964l61 10q185 30 185 223h192q0 -287 -238 -366v-831q0 -237 -117.5 -356.5t-346.5 -119.5zM532 1529v21q0 33 66 78q71 45 71 74q0 51 -82 51q-96 0 -164 -43l-67 119q81 75 252 75
q227 0 227 -163q0 -60 -27 -99.5t-92 -77.5q-29 -17 -29 -35h-155z" />
    <glyph glyph-name="uni1EED" unicode="&#x1eed;" 
d="M496 -20q-167 0 -258.5 99t-91.5 281v700h212v-700q0 -91 52 -140.5t146 -49.5q118 0 176 75.5t58 244.5v570h1l40 10q93 23 135 88t42 185h220q0 -151 -54.5 -246.5t-171.5 -150.5v-754l146 -22v-170l-340 -10l-15 214h-19q-25 -108 -98 -166t-180 -58zM502 1248v36
q0 35 16.5 66t37 49t37 41t16.5 45q0 25 -17 40.5t-45 15.5q-73 0 -124 -43l-67 119q31 34 89 54.5t123 20.5q94 0 150.5 -53t56.5 -140q0 -35 -12 -63.5t-29.5 -47.5t-35 -37t-29.5 -42t-12 -52v-9h-155z" />
    <glyph glyph-name="uni1EEE" unicode="&#x1eee;" 
d="M596 -20q-456 0 -456 476v964h200v-964q0 -144 63 -215t197 -71q260 0 260 286v964l61 10q185 30 185 223h192q0 -287 -238 -366v-831q0 -237 -117.5 -356.5t-346.5 -119.5zM225 1566v50q0 250 210 250q70 0 188 -49q17 -7 41 -17t35.5 -15t25.5 -10t24 -7t20 -2
q54 0 54 64v60h172v-50q0 -240 -188 -240q-62 0 -193 55q-107 45 -141 45q-74 0 -74 -74v-60h-174z" />
    <glyph glyph-name="uni1EEF" unicode="&#x1eef;" 
d="M496 -20q-167 0 -258.5 99t-91.5 281v700h212v-700q0 -91 52 -140.5t146 -49.5q118 0 176 75.5t58 244.5v570h1l40 10q93 23 135 88t42 185h220q0 -151 -54.5 -246.5t-171.5 -150.5v-754l146 -22v-170l-340 -10l-15 214h-19q-25 -108 -98 -166t-180 -58zM230 1256v40
q0 250 210 250q58 0 148 -44q112 -56 146 -56q54 0 54 64v90h172v-80q0 -240 -188 -240q-63 0 -163 50q-7 4 -25.5 13.5t-28 14t-25 11t-28 9t-24.5 2.5q-74 0 -74 -74v-50h-174z" />
    <glyph glyph-name="uni1EF0" unicode="&#x1ef0;" 
d="M596 -20q-456 0 -456 476v964h200v-964q0 -144 63 -215t197 -71q260 0 260 286v964l61 10q185 30 185 223h192q0 -287 -238 -366v-831q0 -237 -117.5 -356.5t-346.5 -119.5zM600 -420q-56 0 -95 39t-39 95t39 95t95 39t95 -39t39 -95t-39 -95t-95 -39z" />
    <glyph glyph-name="uni1EF1" unicode="&#x1ef1;" 
d="M496 -20q-167 0 -258.5 99t-91.5 281v700h212v-700q0 -91 52 -140.5t146 -49.5q118 0 176 75.5t58 244.5v570h1l40 10q93 23 135 88t42 185h220q0 -151 -54.5 -246.5t-171.5 -150.5v-754l146 -22v-170l-340 -10l-15 214h-19q-25 -108 -98 -166t-180 -58zM560 -420
q-56 0 -95 39t-39 95t39 95t95 39t95 -39t39 -95t-39 -95t-95 -39z" />
    <glyph glyph-name="Ygrave" unicode="&#x1ef2;" 
d="M500 0v503l-475 917h220l346 -710h18l346 710h220l-475 -917v-503h-200zM509 1580l-270 250h282l220 -250h-232z" />
    <glyph glyph-name="ygrave" unicode="&#x1ef3;" 
d="M75 -480l-10 190l166 20q128 15 210.5 77.5t138.5 192.5h-103l-422 1060h220l346 -900h15l259 900h220l-306 -966q-89 -283 -214 -406.5t-340 -147.5zM539 1248l-190 380h212l170 -380h-192z" />
    <glyph glyph-name="uni1EF4" unicode="&#x1ef4;" 
d="M500 0v503l-475 917h220l346 -710h18l346 710h220l-475 -917v-503h-200zM600 -420q-56 0 -95 39t-39 95t39 95t95 39t95 -39t39 -95t-39 -95t-95 -39z" />
    <glyph glyph-name="uni1EF5" unicode="&#x1ef5;" 
d="M75 -480l-10 190l166 20q128 15 210.5 77.5t138.5 192.5h-103l-422 1060h220l346 -900h15l259 900h220l-306 -966q-89 -283 -214 -406.5t-340 -147.5zM945 -420q-55 0 -94.5 39t-39.5 95t39 95t95 39t95 -39t39 -95t-39.5 -95t-94.5 -39z" />
    <glyph glyph-name="uni1EF6" unicode="&#x1ef6;" 
d="M500 0v503l-475 917h220l346 -710h18l346 710h220l-475 -917v-503h-200zM532 1529v21q0 33 66 78q71 45 71 74q0 51 -82 51q-96 0 -164 -43l-67 119q81 75 252 75q227 0 227 -163q0 -60 -27 -99.5t-92 -77.5q-29 -17 -29 -35h-155z" />
    <glyph glyph-name="uni1EF7" unicode="&#x1ef7;" 
d="M75 -480l-10 190l166 20q128 15 210.5 77.5t138.5 192.5h-103l-422 1060h220l346 -900h15l259 900h220l-306 -966q-89 -283 -214 -406.5t-340 -147.5zM537 1248v36q0 35 16.5 66t37 49t37 41t16.5 45q0 25 -17 40.5t-45 15.5q-73 0 -124 -43l-67 119q31 34 89 54.5
t123 20.5q94 0 150.5 -53t56.5 -140q0 -35 -12 -63.5t-29.5 -47.5t-35 -37t-29.5 -42t-12 -52v-9h-155z" />
    <glyph glyph-name="uni1EF8" unicode="&#x1ef8;" 
d="M500 0v503l-475 917h220l346 -710h18l346 710h220l-475 -917v-503h-200zM225 1566v50q0 250 210 250q70 0 188 -49q17 -7 41 -17t35.5 -15t25.5 -10t24 -7t20 -2q54 0 54 64v60h172v-50q0 -240 -188 -240q-62 0 -193 55q-107 45 -141 45q-74 0 -74 -74v-60h-174z" />
    <glyph glyph-name="uni1EF9" unicode="&#x1ef9;" 
d="M75 -480l-10 190l166 20q128 15 210.5 77.5t138.5 192.5h-103l-422 1060h220l346 -900h15l259 900h220l-306 -966q-89 -283 -214 -406.5t-340 -147.5zM265 1256v40q0 250 210 250q58 0 148 -44q112 -56 146 -56q54 0 54 64v90h172v-80q0 -240 -188 -240q-63 0 -163 50
q-7 4 -25.5 13.5t-28 14t-25 11t-28 9t-24.5 2.5q-74 0 -74 -74v-50h-174z" />
    <glyph glyph-name="uni2008" unicode="&#x2008;" 
 />
    <glyph glyph-name="uni2010" unicode="&#x2010;" 
d="M100 616v186h1000v-186h-1000z" />
    <glyph glyph-name="uni2011" unicode="&#x2011;" 
d="M100 616v186h1000v-186h-1000z" />
    <glyph glyph-name="endash" unicode="&#x2013;" 
d="M70 616v186h1060v-186h-1060z" />
    <glyph glyph-name="emdash" unicode="&#x2014;" 
d="M40 616v186h1120v-186h-1120z" />
    <glyph glyph-name="uni2015" unicode="&#x2015;" 
d="M40 616v186h1120v-186h-1120z" />
    <glyph glyph-name="underscoredbl" unicode="&#x2017;" 
d="M100 -480v176h1000v-176h-1000zM100 -176v176h1000v-176h-1000z" />
    <glyph glyph-name="quoteleft" unicode="&#x2018;" 
d="M685 690q-157 0 -238 77t-81 225q0 197 175 387l56 61l150 -132l-60 -65q-116 -125 -116 -251q0 -117 144 -117h45v-185h-75z" />
    <glyph glyph-name="quoteright" unicode="&#x2019;" 
d="M559 670l-150 132l60 65q116 125 116 251q0 117 -144 117h-45v185h75q157 0 238 -76.5t81 -225.5q0 -197 -175 -387z" />
    <glyph glyph-name="quotesinglbase" unicode="&#x201a;" 
d="M559 -495l-150 132l60 65q116 125 116 251q0 117 -144 117h-45v185h75q157 0 238 -76.5t81 -225.5q0 -197 -175 -387z" />
    </font>
</defs>
</svg>
