<?xml version="1.0" encoding="utf-8"?>
<!-- Generator: Adobe Illustrator 26.4.1, SVG Export Plug-In . SVG Version: 6.00 Build 0)  -->
<svg version="1.1" id="Слой_1" xmlns="http://www.w3.org/2000/svg" xmlns:xlink="http://www.w3.org/1999/xlink" x="0px" y="0px"
	 viewBox="0 0 200 200" style="enable-background:new 0 0 200 200;" xml:space="preserve">
<style type="text/css">
	.st0{fill:none;stroke:#FFFFFF;stroke-width:3;stroke-miterlimit:10;}
</style>
<path class="st0" d="M195.81,154.37l-56.99-56.99l54.53-54.53c3.07-3.07,3.07-8.05,0-11.12L167.68,6.06
	c-3.07-3.07-8.05-3.07-11.12,0l-54.53,54.53L45.04,3.61c-3.07-3.07-8.05-3.07-11.12,0L8.25,29.28c-3.07,3.07-3.07,8.05,0,11.12
	l56.99,56.99L5.8,156.82c-3.07,3.07-3.07,8.05,0,11.12l25.67,25.67c3.07,3.07,8.05,3.07,11.12,0l59.44-59.44l56.99,56.99
	c3.07,3.07,8.05,3.07,11.12,0l25.67-25.67C198.88,162.42,198.88,157.44,195.81,154.37z"/>
</svg>
