<?xml version="1.0" encoding="utf-8"?>
<!-- Generator: Adobe Illustrator 26.4.1, SVG Export Plug-In . SVG Version: 6.00 Build 0)  -->
<svg version="1.1" id="Слой_1" xmlns="http://www.w3.org/2000/svg" xmlns:xlink="http://www.w3.org/1999/xlink" x="0px" y="0px"
	 viewBox="0 0 253.69 500" style="enable-background:new 0 0 253.69 500;" xml:space="preserve">
<style type="text/css">
	.st0{fill:none;stroke:#2F363D;stroke-miterlimit:10;}
</style>
<g>
	<path class="st0" d="M247.12,204.51C223.3,82.94,117.08,0.21-2,4.52v119.44c21.79-0.84,43.59,1.43,65.36,6.83
		c3.34,0.83,5.79,0.55,8.62-1.37c10.12-6.88,20.78-12.86,32.17-17.39c8.5-3.38,17.23-5.93,26.5-6.06c2.97-0.04,4.99,0.59,6.12,3.94
		c6.37,18.84,8.47,37.88,2.62,57.17c-1.2,3.96-0.39,6.29,2.1,9.23c7.73,9.12,13.28,19.49,16.88,30.93
		c6.55,20.78,5.5,41.85,2.06,62.86c-6.75,41.22-29.35,69.18-69.75,81.94c-12.45,3.93-25.23,6.14-39.29,8.04
		c13.08,13.53,16.26,29.58,16.18,46.71c-0.1,21.18-0.23,42.36-0.31,63.54c-0.05,13.53,7.17,18.56,20.03,14.01
		C202.12,443.75,270.52,323.98,247.12,204.51z"/>
</g>
</svg>
