<?xml version="1.0" encoding="utf-8"?>
<!-- Generator: Adobe Illustrator 26.4.1, SVG Export Plug-In . SVG Version: 6.00 Build 0)  -->
<svg version="1.1" id="Слой_1" xmlns="http://www.w3.org/2000/svg" xmlns:xlink="http://www.w3.org/1999/xlink" x="0px" y="0px"
	 viewBox="0 0 235.22 500" style="enable-background:new 0 0 235.22 500;" xml:space="preserve">
<style type="text/css">
	.st0{fill:none;stroke:#2F363D;stroke-miterlimit:10;}
</style>
<g>
	<path class="st0" d="M203.98,7.93C91.43,27.72,5.36,126.3,2.12,240.71c-2.44,86.03,30.9,155.91,98.99,208.78
		c20.21,15.7,42.78,27.34,67.09,35.42c10.52,3.5,17.87-1.81,17.87-12.8c0.01-13.41-0.25-26.82-0.23-40.24
		c0-3.03-0.48-4.12-3.93-3.37c-4.91,1.07-9.97,1.58-15,2.01c-29.34,2.48-56.7-9.45-66.26-37.79c-4.46-13.2-13.36-24.02-25.83-31.31
		c-2.14-1.25-4.08-3.01-5.78-4.84c-3.75-4.04-2.94-6.82,2.23-8.39c3.41-1.03,6.83-1.13,10.36-0.45
		c15.38,2.99,26.01,12.37,34.05,25.21c15.89,25.37,39.38,33.04,67.24,21.81c1.67-0.67,3.95-0.84,4.3-3.37
		c1.6-11.73,6.17-22.17,14.64-31.43c-9.89-1.29-18.92-2.55-27.8-4.69c-34.02-8.18-60.44-25.82-73.79-59.55
		c-5.7-14.39-7.97-29.48-9.18-44.86c-2.23-28.3,3.88-54,22.37-76.1c1.67-2,2.18-3.67,1.36-6.21c-5.71-17.8-4.64-35.62,0.42-53.34
		c2.86-10.01,3.88-10.5,14.35-8.87c19.27,3,35.8,12.29,51.81,22.69c2.98,1.94,5.51,2.49,9.13,1.59c15.56-3.85,31.13-6.1,46.7-6.77
		V4.36C226.23,4.8,215.13,5.97,203.98,7.93z"/>
</g>
</svg>
